<svg width="377" height="111" viewBox="0 0 377 111" fill="none" xmlns="http://www.w3.org/2000/svg">
<path d="M41.9247 86.5658C62.0233 86.5658 78.3165 70.2726 78.3165 50.174C78.3165 30.0754 62.0233 13.7822 41.9247 13.7822C21.8261 13.7822 5.53296 30.0754 5.53296 50.174C5.53296 70.2726 21.8261 86.5658 41.9247 86.5658Z" fill="url(#paint0_radial_119_69)"/>
<path d="M43.0565 106.751C45.9544 105.01 53.1432 101.229 62.9439 101.515C74.8216 101.851 82.8188 107.945 85.269 109.985C83.9009 103.642 82.5825 98.3687 81.5502 94.4633C78.3041 82.1752 76.8862 79.5385 74.5231 77.3246C71.0282 74.0536 67.0233 73.1084 63.7026 72.3497C54.9715 70.3348 46.4768 72.8223 42.2854 74.4019C42.2357 85.3219 43.0938 95.8439 43.0441 106.751H43.0565Z" fill="#1762A7"/>
<path d="M43.1186 106.764C40.1959 105.01 33.1812 101.329 23.6293 101.515C11.5775 101.739 3.41855 107.958 0.968384 109.985C2.93349 102.971 4.41354 97.5603 5.25928 94.4634C8.28156 83.3941 9.0278 80.3096 12.1745 77.3247C15.632 74.0412 19.6369 73.096 22.8209 72.3497C31.5146 70.31 39.7979 72.8721 43.7654 74.4019C43.8151 85.3219 43.0938 95.8439 43.1435 106.764" fill="#1762A7"/>
<path d="M40.8551 64.0152C40.7929 63.2316 40.2581 62.5724 39.5865 62.162C38.9273 61.7516 38.1562 61.5775 37.4224 61.4033C36.9498 61.2914 36.4647 61.1919 35.9797 61.0675C34.5991 60.7566 33.2186 60.4581 31.838 60.1472C31.2908 60.0228 30.6191 59.7989 30.5196 59.2392C30.4575 58.9034 30.6191 58.5801 30.6938 58.2442C30.7684 57.9084 30.6938 57.4856 30.3828 57.3861C30.0595 56.4657 29.0769 55.8936 28.2063 55.4956C27.3232 55.0976 26.3656 54.8488 25.5571 54.3389C24.8109 53.8663 24.189 53.1822 23.8159 52.3614C23.2313 51.1176 21.2041 51.1798 19.8484 51.3166C19.2887 51.3788 18.7415 51.5156 18.1942 51.6649C17.1246 51.9634 16.055 52.237 14.9854 52.5355C14.8734 52.5728 14.7615 52.5977 14.6496 52.6225H14.6371C14.6371 52.6225 14.6122 52.6226 14.5998 52.635C14.5003 52.6474 14.4132 52.6723 14.3137 52.6847C13.1073 52.8837 12.2616 52.3987 12.0626 52.3365H12.075C11.7392 52.1872 11.4283 51.9509 11.2044 51.7271C10.8437 51.3415 10.6696 50.7943 10.6323 50.247C10.595 49.6998 10.595 49.1774 10.6323 48.6426C10.6696 48.1948 10.2467 47.8466 9.82385 47.7595C9.38855 47.6725 8.95324 47.7595 8.50549 47.7347C8.05775 47.7098 7.59756 47.5108 7.44831 47.0755C7.37369 46.8143 7.44832 46.5282 7.52294 46.267C7.73437 45.6203 7.83387 44.7621 8.39356 44.3766C8.72936 44.1278 9.12736 43.8044 9.01542 43.4065C8.96567 43.1826 8.72936 43.0209 8.50549 42.996C8.26918 42.9587 8.03287 43.0458 7.83387 43.1453C7.12494 43.506 6.5777 44.2273 5.95583 44.7248C5.74439 45.9686 5.60758 47.1999 5.53296 48.4312C5.6449 48.456 5.75683 48.4809 5.85633 48.4933C7.14982 48.7048 8.28162 49.6251 8.79155 50.8564C9.10249 51.6151 9.20198 52.4982 9.7741 53.0952C10.396 53.7419 11.4656 53.6922 12.3362 53.7792C12.9083 53.8414 13.4431 54.1772 13.7541 54.6623C14.065 55.1598 14.1396 55.7941 13.9655 56.3662C13.7789 56.9134 13.3685 57.3363 13.07 57.8214C12.3362 58.9656 12.5476 60.371 12.3238 61.7267C11.9631 63.8411 13.1198 65.8932 14.2267 67.7215C15.1222 69.1767 15.6321 70.9552 16.9505 72.0124C17.4853 72.4477 17.9579 72.9701 18.331 73.5547C20.7563 72.6343 23.8532 71.7637 27.4849 71.4652C31.5271 71.1294 35.0717 71.5771 37.9199 72.2612C38.1686 71.4527 38.3179 70.6194 38.3552 69.811C38.3801 69.1394 38.3303 68.4305 38.4671 67.7837C38.6164 67.1245 39.0144 66.4529 39.6611 66.2539C40.3949 66.03 40.9297 64.8112 40.8551 64.0152ZM28.965 16.1562C28.8904 16.0815 28.6789 16.3427 28.6167 16.2557C19.0524 20.161 11.677 27.897 8.08262 37.1007C8.59255 37.0883 9.11492 37.2251 9.52536 37.5236C10.5079 38.1952 10.8437 39.5011 11.5278 40.4837C11.7143 40.7573 12.0128 41.0309 12.3238 40.9439C12.5601 40.8817 12.6969 40.608 12.6969 40.3717C12.6969 40.1105 12.7342 39.7872 12.7218 39.526C12.6844 38.8668 12.6471 38.1703 12.7466 37.5236C12.8461 36.8644 13.0824 36.1928 13.5053 35.6828C14.2267 34.8869 15.4953 34.6505 15.744 33.6058C15.943 32.7476 16.6022 32.1258 17.3112 31.6407C18.0201 31.1432 18.7912 30.7452 19.3882 30.1233C19.8857 29.601 20.1593 28.9418 20.4951 28.2826C20.9429 27.3995 21.8135 26.7652 22.7712 26.6284C23.4428 26.5414 24.2636 26.6036 24.6741 26.0688C25.0099 25.6334 24.9104 24.9991 24.6368 24.5265C24.3631 24.0539 23.9527 23.7057 23.592 23.2952C23.2438 22.8723 22.9577 22.3624 23.0199 21.8276C23.0945 21.2928 23.505 20.8699 23.99 20.6461C24.4502 20.4346 24.9975 20.3724 25.5323 20.36C26.4775 20.3476 27.4476 20.4222 28.3431 20.1112C29.251 19.8003 30.0719 18.9919 30.0222 18.0342C29.9848 17.1138 29.6117 16.8029 28.965 16.1562ZM78.2294 48.0705C78.1548 47.9337 78.0677 47.7844 77.9931 47.6476C77.6076 46.9387 77.2344 46.2049 76.8364 45.5084C76.0529 44.0034 75.3688 42.3493 74.5853 40.8568C74.4609 40.608 74.3365 40.3842 74.3241 40.1105C74.3241 39.8369 74.4733 39.5509 74.7221 39.4887C75.0206 39.4141 75.2942 39.6752 75.4932 39.924C76.1648 40.7449 76.7867 41.6403 77.3712 42.5358C76.8737 40.3842 76.1648 38.2201 75.2942 36.1306C75.1698 36.541 74.9086 36.9017 74.5355 37.0758C74.0007 37.3495 73.3788 37.337 72.8067 37.3246L69.9959 37.25C69.3616 37.2375 68.7024 37.2251 68.093 37.0136C67.5208 36.8271 66.8865 36.4415 66.302 36.6654C65.9289 36.8022 65.6925 37.1505 65.4562 37.4738C65.2199 37.7848 64.9587 38.1081 64.5856 38.2076C64.2001 38.2823 63.7274 37.9838 63.8021 37.5982C63.3916 36.9017 62.4215 36.3669 61.638 36.2674C61.3768 36.2425 61.0783 36.2425 60.8668 36.0684C60.531 35.7699 60.643 35.2227 60.643 34.7749C60.643 33.9789 60.1455 33.2202 59.4241 32.9093C58.4042 32.4864 57.2103 32.7103 56.1655 33.0586C55.1083 33.4068 54.1133 33.9167 53.0189 34.0784C52.5587 34.1406 52.0985 34.153 51.6507 34.2899C51.2154 34.4142 50.7926 34.7003 50.6184 35.1356C49.8349 37.3121 47.7703 38.8544 46.4271 40.7075C45.544 41.9388 44.6361 43.195 44.1386 44.6253C43.8774 45.3591 43.9147 46.1302 43.8525 46.9138C43.8152 47.4237 43.7654 47.9337 43.7281 48.4312C43.7033 48.7545 43.6784 49.053 43.7157 49.364C43.753 49.9112 43.9644 50.4336 44.3003 50.8564C45.2704 51.1425 45.8052 52.3862 46.1037 53.3688C46.4146 54.3389 46.6758 55.421 47.4718 56.0926C48.1434 56.6523 49.0886 56.7642 49.9468 56.6025C50.805 56.4408 51.5886 56.018 52.3597 55.6075C54.1258 54.6623 56.4143 55.6448 58.1306 56.6523C58.454 56.8388 58.7898 56.9881 59.0634 57.1995C59.4739 57.5353 59.9092 57.9582 59.8967 58.493C59.8843 58.9159 59.5858 59.2765 59.4614 59.6745C59.2251 60.3337 59.4987 61.167 60.0833 61.565C61.9116 62.7093 62.5335 65.5077 61.8121 67.5723C61.5509 68.3185 61.1032 69.0026 60.9166 69.7861C60.7176 70.5697 60.8544 71.5149 61.5136 71.9378C61.5385 71.9502 61.5385 71.9627 61.5509 71.9751C64.8095 72.485 67.4338 73.3681 69.2496 74.077C71.961 70.7936 78.503 61.9257 78.3165 49.8988C78.304 49.2893 78.2667 48.6799 78.2294 48.0705ZM71.9734 29.8622C71.9734 29.8622 71.9112 29.8995 71.8864 29.9243C71.5132 30.2477 70.9162 30.8571 70.4063 30.397C70.0456 30.086 70.0581 29.4268 70.2073 29.0288C70.3441 28.6433 70.4809 28.2826 70.6426 27.9344C69.4238 26.2926 67.7198 24.3026 65.4065 22.3251C63.0807 20.3476 60.8295 18.967 59.0137 18.0218C58.9639 18.1586 58.8644 18.3576 58.6903 18.5441C58.3545 18.9048 57.9192 18.967 57.7824 19.0416C56.6008 19.6262 55.4193 20.4844 54.9342 21.7405C54.7601 22.1883 54.275 22.3873 53.8397 22.5614L52.4094 23.0962C51.9866 23.2455 51.5015 23.4818 51.402 23.9171C51.3398 24.3275 51.6134 24.7131 51.9244 24.9743C52.2477 25.2479 52.6084 25.4718 52.7701 25.8573C52.9069 26.1683 52.8696 26.5289 52.6831 26.8026C52.4965 27.0886 52.1731 27.2379 51.8497 27.2379C51.2154 27.2503 50.5314 27.2503 49.9344 27.5364C49.1384 27.9095 48.7653 28.7179 48.5414 29.5637C48.2429 30.6208 48.616 31.8521 49.4369 32.5237C50.2578 33.2078 51.5015 33.3322 52.4592 32.8222C54.2626 31.8397 54.5487 29.1283 56.3272 28.0712C57.2103 27.5239 58.3296 27.5239 59.3744 27.5488C61.128 27.5737 62.235 29.7005 62.7076 31.4293C62.7946 31.7402 62.8817 32.076 63.1678 32.2004C63.3792 32.2999 63.6528 32.2128 63.8269 32.0636C64.0011 31.9019 64.113 31.678 64.2249 31.4541C64.3991 31.0935 64.5856 30.6955 64.4986 30.3099C64.3742 29.7502 63.7896 29.4642 63.2921 29.1905C62.6454 28.805 62.0857 28.2702 61.6628 27.6483C61.5012 27.4244 61.3519 27.1135 61.4887 26.8523C61.6006 26.6284 61.8867 26.5538 62.123 26.6036C62.3469 26.6657 62.5459 26.8274 62.7324 26.9891C64.3866 28.3572 65.8169 30.0487 66.302 32.1506C66.3642 32.3994 66.4139 32.6481 66.5507 32.8596C66.6751 33.071 66.9114 33.2576 67.1602 33.2327C67.496 33.1829 67.695 32.8098 67.6825 32.4616C67.6825 32.1258 67.5208 31.8273 67.4089 31.5039C67.2845 31.1805 67.2099 30.8198 67.3592 30.5089C67.6328 30.285 68.0432 30.3348 68.3417 30.5338C68.6278 30.7328 68.8268 31.0561 69.0133 31.3671C69.4611 32.1258 69.8964 32.8471 70.3566 33.5934C70.6053 34.0162 70.9909 34.2899 71.4759 34.3396C71.961 34.3894 72.4336 34.265 72.9187 34.1655C73.3788 34.0784 73.8888 34.0162 74.349 34.1779C73.6525 32.6979 72.844 31.2924 71.9485 29.8995L71.9734 29.8622Z" fill="url(#paint1_radial_119_69)" stroke="white" stroke-width="0.25" stroke-miterlimit="10"/>
<path d="M99.3854 90.6556C99.3854 93.7649 97.5074 95.643 94.7338 95.643C91.9603 95.643 90.2812 93.5162 90.2812 90.8297C90.2812 87.994 92.0971 85.8672 94.8831 85.8672C97.669 85.8672 99.373 88.0437 99.373 90.6556H99.3854ZM92.5573 90.78C92.5573 92.6331 93.4279 93.939 94.8582 93.939C96.2885 93.939 97.1342 92.5585 97.1342 90.7178C97.1342 89.0138 96.3258 87.5587 94.8458 87.5587C93.3657 87.5587 92.5573 88.9392 92.5573 90.78Z" fill="#0078BF"/>
<path d="M100.791 95.4814V86.0166H103.291L105.256 89.4866C105.816 90.4816 106.375 91.6632 106.798 92.7328H106.835C106.699 91.489 106.649 90.208 106.649 88.7901V86.029H108.614V95.4939H106.363L104.335 91.8373C103.776 90.8299 103.154 89.5986 102.694 88.4916H102.656C102.706 89.7602 102.743 91.0911 102.743 92.6333V95.4814H100.778H100.791Z" fill="#0078BF"/>
<path d="M116.114 91.4766H112.631V93.7278H116.524V95.4814H110.48V86.0166H116.325V87.7703H112.631V89.7354H116.114V91.4766Z" fill="#0078BF"/>
<path d="M121.151 91.0918V92.5097H117.469V91.0918H121.151Z" fill="#0078BF"/>
<path d="M122.569 93.2799C123.141 93.5784 124.024 93.8644 124.944 93.8644C125.927 93.8644 126.449 93.454 126.449 92.8446C126.449 92.2351 126.001 91.9118 124.857 91.5138C123.29 90.9665 122.258 90.0959 122.258 88.7153C122.258 87.0985 123.601 85.8672 125.84 85.8672C126.909 85.8672 127.693 86.0911 128.252 86.3398L127.78 88.0686C127.407 87.882 126.723 87.6209 125.802 87.6209C124.882 87.6209 124.422 88.0437 124.422 88.5288C124.422 89.1382 124.957 89.3994 126.175 89.8596C127.842 90.4815 128.638 91.3521 128.638 92.6829C128.638 94.2749 127.419 95.6181 124.82 95.6181C123.738 95.6181 122.668 95.332 122.133 95.046L122.569 93.2799Z" fill="#0078BF"/>
<path d="M131.909 87.8083H129.372V86.0049H136.648V87.8083H134.061V95.4822H131.909V87.8083Z" fill="#0078BF"/>
<path d="M146.026 90.6556C146.026 93.7649 144.148 95.643 141.374 95.643C138.6 95.643 136.921 93.5162 136.921 90.8297C136.921 87.994 138.737 85.8672 141.523 85.8672C144.309 85.8672 146.013 88.0437 146.013 90.6556H146.026ZM139.185 90.78C139.185 92.6331 140.056 93.939 141.486 93.939C142.916 93.939 143.762 92.5585 143.762 90.7178C143.762 89.0138 142.954 87.5587 141.473 87.5587C139.993 87.5587 139.185 88.9392 139.185 90.78Z" fill="#0078BF"/>
<path d="M147.431 86.1414C148.09 86.0294 149.023 85.9424 150.329 85.9424C151.635 85.9424 152.593 86.1911 153.227 86.7011C153.836 87.1737 154.234 87.9697 154.234 88.89C154.234 89.8104 153.923 90.6064 153.364 91.1412C152.63 91.8253 151.548 92.1362 150.292 92.1362C150.006 92.1362 149.757 92.1238 149.558 92.0989V95.4818H147.431V86.1414ZM149.558 90.4447C149.744 90.482 149.968 90.4945 150.279 90.4945C151.411 90.4945 152.12 89.9223 152.12 88.9522C152.12 88.0816 151.51 87.5592 150.453 87.5592C150.018 87.5592 149.72 87.5965 149.57 87.6463V90.4447H149.558Z" fill="#0078BF"/>
<path d="M164.06 91.4766H160.577V93.7278H164.47V95.4814H158.426V86.0166H164.271V87.7703H160.577V89.7354H164.06V91.4766Z" fill="#0078BF"/>
<path d="M165.925 86.1414C166.709 86.017 167.741 85.9424 168.823 85.9424C170.627 85.9424 171.783 86.2658 172.704 86.9498C173.686 87.6836 174.308 88.8403 174.308 90.5193C174.308 92.3352 173.649 93.5789 172.741 94.35C171.746 95.1833 170.229 95.5689 168.375 95.5689C167.269 95.5689 166.485 95.4943 165.95 95.4321V86.1414H165.925ZM168.077 93.865C168.264 93.9023 168.55 93.9023 168.823 93.9023C170.763 93.9147 172.02 92.8451 172.02 90.5815C172.032 88.6164 170.875 87.5717 169.047 87.5717C168.574 87.5717 168.264 87.609 168.077 87.6587V93.8525V93.865Z" fill="#0078BF"/>
<path d="M177.828 86.0166V91.4642C177.828 93.0935 178.45 93.9268 179.544 93.9268C180.639 93.9268 181.285 93.1432 181.285 91.4642V86.0166H183.425V91.3274C183.425 94.2501 181.945 95.6431 179.482 95.6431C177.019 95.6431 175.689 94.3248 175.689 91.3025V86.0166H177.84H177.828Z" fill="#0078BF"/>
<path d="M192.218 95.2084C191.82 95.4074 190.937 95.6188 189.793 95.6188C186.522 95.6188 184.83 93.5791 184.83 90.8802C184.83 87.6465 187.131 85.8555 190.004 85.8555C191.111 85.8555 191.957 86.0793 192.33 86.2783L191.895 87.9823C191.459 87.7957 190.85 87.634 190.091 87.634C188.387 87.634 187.069 88.6539 187.069 90.7682C187.069 92.6587 188.188 93.8527 190.104 93.8527C190.75 93.8527 191.472 93.7159 191.882 93.5418L192.206 95.2084H192.218Z" fill="#0078BF"/>
<path d="M195.962 93.0562L195.29 95.4814H193.076L195.974 86.0166H198.785L201.72 95.4814H199.419L198.685 93.0562H195.974H195.962ZM198.374 91.4517L197.79 89.4369C197.616 88.8772 197.454 88.1683 197.317 87.6086H197.292C197.156 88.1683 197.006 88.8896 196.857 89.4369L196.297 91.4517H198.387H198.374Z" fill="#0078BF"/>
<path d="M203.635 87.8083H201.098V86.0049H208.374V87.8083H205.787V95.4822H203.635V87.8083Z" fill="#0078BF"/>
<path d="M211.645 86.0166V95.4814H209.493V86.0166H211.645Z" fill="#0078BF"/>
<path d="M222.167 90.6556C222.167 93.7649 220.289 95.643 217.516 95.643C214.742 95.643 213.063 93.5162 213.063 90.8297C213.063 87.994 214.879 85.8672 217.665 85.8672C220.451 85.8672 222.155 88.0437 222.155 90.6556H222.167ZM215.327 90.78C215.327 92.6331 216.197 93.939 217.628 93.939C219.058 93.939 219.904 92.5585 219.904 90.7178C219.904 89.0138 219.083 87.5587 217.615 87.5587C216.147 87.5587 215.327 88.9392 215.327 90.78Z" fill="#0078BF"/>
<path d="M223.573 95.4814V86.0166H226.072L228.038 89.4866C228.597 90.4816 229.157 91.6632 229.58 92.7328H229.617C229.48 91.489 229.431 90.208 229.431 88.7901V86.029H231.396V95.4939H229.144L227.117 91.8373C226.557 90.8299 225.936 89.5986 225.475 88.4916H225.438C225.5 89.7602 225.525 91.0911 225.525 92.6333V95.4814H223.56H223.573Z" fill="#0078BF"/>
<path d="M238.298 93.0562L237.627 95.4814H235.413L238.311 86.0166H241.122L244.057 95.4814H241.756L241.022 93.0562H238.311H238.298ZM240.699 91.4517L240.114 89.4369C239.94 88.8772 239.778 88.1683 239.642 87.6086H239.617C239.48 88.1683 239.331 88.8896 239.181 89.4369L238.622 91.4517H240.711H240.699Z" fill="#0078BF"/>
<path d="M245.301 95.4814V86.0166H247.801L249.766 89.4866C250.325 90.4816 250.885 91.6632 251.308 92.7328H251.345C251.208 91.489 251.159 90.208 251.159 88.7901V86.029H253.124V95.4939H250.873L248.845 91.8373C248.286 90.8299 247.664 89.5986 247.204 88.4916H247.166C247.228 89.7602 247.253 91.0911 247.253 92.6333V95.4814H245.288H245.301Z" fill="#0078BF"/>
<path d="M254.989 86.1414C255.773 86.017 256.805 85.9424 257.887 85.9424C259.691 85.9424 260.847 86.2658 261.768 86.9498C262.75 87.6836 263.372 88.8403 263.372 90.5193C263.372 92.3352 262.713 93.5789 261.805 94.35C260.81 95.1833 259.293 95.5689 257.44 95.5689C256.333 95.5689 255.549 95.4943 255.014 95.4321V86.1414H254.989ZM257.141 93.865C257.328 93.9023 257.614 93.9023 257.887 93.9023C259.828 93.9147 261.084 92.8451 261.084 90.5815C261.096 88.6164 259.952 87.5717 258.111 87.5717C257.639 87.5717 257.328 87.609 257.141 87.6587V93.8525V93.865Z" fill="#0078BF"/>
<path d="M274.553 95.2084C274.155 95.4074 273.272 95.6188 272.128 95.6188C268.857 95.6188 267.166 93.5791 267.166 90.8802C267.166 87.6465 269.467 85.8555 272.34 85.8555C273.446 85.8555 274.292 86.0793 274.665 86.2783L274.23 87.9823C273.795 87.7957 273.185 87.634 272.427 87.634C270.723 87.634 269.404 88.6539 269.404 90.7682C269.404 92.6587 270.524 93.8527 272.439 93.8527C273.086 93.8527 273.807 93.7159 274.218 93.5418L274.541 95.2084H274.553Z" fill="#0078BF"/>
<path d="M278.297 93.0562L277.625 95.4814H275.412L278.309 86.0166H281.12L284.056 95.4814H281.755L281.021 93.0562H278.309H278.297ZM280.697 91.4517L280.113 89.4369C279.939 88.8772 279.777 88.1683 279.64 87.6086H279.615C279.479 88.1683 279.329 88.8896 279.18 89.4369L278.62 91.4517H280.71H280.697Z" fill="#0078BF"/>
<path d="M285.299 86.1414C285.983 86.0294 287.016 85.9424 288.147 85.9424C289.553 85.9424 290.535 86.1538 291.207 86.6886C291.767 87.1364 292.078 87.7955 292.078 88.6662C292.078 89.8726 291.219 90.7059 290.411 91.0044V91.0417C291.07 91.3029 291.431 91.9372 291.68 92.8078C291.978 93.8774 292.264 95.1087 292.451 95.4818H290.262C290.113 95.2207 289.889 94.4371 289.603 93.2804C289.354 92.0989 288.943 91.7755 288.073 91.7631H287.426V95.4818H285.299V86.1414ZM287.426 90.2208H288.272C289.341 90.2208 289.976 89.686 289.976 88.8652C289.976 87.9945 289.391 87.5592 288.409 87.5468C287.886 87.5468 287.588 87.5841 287.438 87.6214V90.2333L287.426 90.2208Z" fill="#0078BF"/>
<path d="M299.254 91.4766H295.772V93.7278H299.664V95.4814H293.62V86.0166H299.465V87.7703H295.772V89.7354H299.254V91.4766Z" fill="#0078BF"/>
<path d="M306.754 91.4766H303.271V93.7278H307.164V95.4814H301.12V86.0166H306.965V87.7703H303.271V89.7354H306.754V91.4766Z" fill="#0078BF"/>
<path d="M308.619 86.1414C309.303 86.0294 310.336 85.9424 311.467 85.9424C312.873 85.9424 313.855 86.1538 314.527 86.6886C315.087 87.1364 315.398 87.7955 315.398 88.6662C315.398 89.8726 314.54 90.7059 313.731 91.0044V91.0417C314.39 91.3029 314.751 91.9372 315 92.8078C315.298 93.8774 315.584 95.1087 315.771 95.4818H313.582C313.433 95.2207 313.209 94.4371 312.923 93.2804C312.674 92.0989 312.263 91.7755 311.393 91.7631H310.746V95.4818H308.619V86.1414ZM310.746 90.2208H311.592C312.661 90.2208 313.296 89.686 313.296 88.8652C313.296 87.9945 312.711 87.5592 311.729 87.5468C311.206 87.5468 310.908 87.5841 310.759 87.6214V90.2333L310.746 90.2208Z" fill="#0078BF"/>
<path d="M326.741 95.2084C326.343 95.4074 325.46 95.6188 324.315 95.6188C321.044 95.6188 319.353 93.5791 319.353 90.8802C319.353 87.6465 321.654 85.8555 324.527 85.8555C325.634 85.8555 326.479 86.0793 326.853 86.2783L326.417 87.9823C325.982 87.7957 325.372 87.634 324.614 87.634C322.91 87.634 321.591 88.6539 321.591 90.7682C321.591 92.6587 322.711 93.8527 324.626 93.8527C325.273 93.8527 325.994 93.7159 326.405 93.5418L326.728 95.2084H326.741Z" fill="#0078BF"/>
<path d="M333.768 91.4766H330.285V93.7278H334.178V95.4814H328.134V86.0166H333.979V87.7703H330.285V89.7354H333.768V91.4766Z" fill="#0078BF"/>
<path d="M335.633 95.4814V86.0166H338.133L340.098 89.4866C340.658 90.4816 341.218 91.6632 341.641 92.7328H341.678C341.541 91.489 341.491 90.208 341.491 88.7901V86.029H343.456V95.4939H341.205L339.178 91.8373C338.618 90.8299 337.996 89.5986 337.536 88.4916H337.499C337.549 89.7602 337.586 91.0911 337.586 92.6333V95.4814H335.621H335.633Z" fill="#0078BF"/>
<path d="M347.15 87.8083H344.613V86.0049H351.889V87.8083H349.302V95.4822H347.15V87.8083Z" fill="#0078BF"/>
<path d="M358.642 91.4766H355.16V93.7278H359.053V95.4814H353.008V86.0166H358.854V87.7703H355.16V89.7354H358.642V91.4766Z" fill="#0078BF"/>
<path d="M360.508 86.1414C361.192 86.0294 362.224 85.9424 363.356 85.9424C364.762 85.9424 365.744 86.1538 366.416 86.6886C366.975 87.1364 367.286 87.7955 367.286 88.6662C367.286 89.8726 366.428 90.7059 365.62 91.0044V91.0417C366.279 91.3029 366.64 91.9372 366.888 92.8078C367.187 93.8774 367.473 95.1087 367.66 95.4818H365.471C365.321 95.2207 365.085 94.4371 364.811 93.2804C364.563 92.0989 364.152 91.7755 363.282 91.7631H362.635V95.4818H360.508V86.1414ZM362.635 90.2208H363.481C364.55 90.2208 365.185 89.686 365.185 88.8652C365.185 87.9945 364.6 87.5592 363.617 87.5468C363.095 87.5468 362.797 87.5841 362.647 87.6214V90.2333L362.635 90.2208Z" fill="#0078BF"/>
<path d="M377 34.7876C377 37.2751 375.01 39.2402 372.46 39.2402C369.911 39.2402 367.896 37.2751 367.896 34.7876C367.896 32.3001 369.936 30.3848 372.46 30.3848C374.985 30.3848 377 32.3499 377 34.7876ZM369.164 34.8125C369.164 36.703 370.582 38.2203 372.473 38.2203C374.363 38.2203 375.744 36.703 375.744 34.8125C375.744 32.922 374.351 31.4046 372.473 31.4046C370.595 31.4046 369.164 32.922 369.164 34.8125ZM371.839 36.989H370.682V32.7727C371.018 32.723 371.652 32.6359 372.436 32.6359C373.331 32.6359 373.717 32.7727 374.003 32.9469C374.289 33.121 374.475 33.4444 374.475 33.8672C374.475 34.315 374.077 34.6757 373.53 34.8373V34.8871C373.978 35.0488 374.214 35.3846 374.338 35.9567C374.475 36.591 374.575 36.8273 374.649 36.9766H373.368C373.232 36.8149 373.157 36.4542 373.057 36.0065C372.983 35.5587 372.746 35.3722 372.274 35.3722H371.826V36.9766L371.839 36.989ZM371.863 34.5762H372.311C372.809 34.5762 373.182 34.3896 373.182 34.0289C373.182 33.6682 372.896 33.4568 372.373 33.4568C372.162 33.4568 372.013 33.4817 371.876 33.4817V34.5762H371.863Z" fill="white"/>
<path d="M100.654 63.3457C100.293 63.3457 99.945 63.3332 99.5843 63.2959C94.2363 62.8357 88.4653 58.7936 88.4653 53.0848H93.4403C93.4403 55.8459 96.9103 58.0722 100.007 58.3458C102.557 58.5573 105.057 57.3757 106.599 55.3609L88.9628 48.8437L89.2116 46.8786C89.9454 41.0828 94.8333 36.6675 100.579 36.5929C103.664 36.5804 106.761 37.8117 109.037 40.0505C111.151 42.1399 112.32 44.8388 112.32 47.6497H107.345C107.345 46.1821 106.711 44.7393 105.542 43.5951C104.236 42.3016 102.42 41.5678 100.642 41.5678C98.0048 41.6051 95.679 43.2593 94.6467 45.6348L113.241 52.5127L112.457 54.8136C110.703 59.9627 105.927 63.3581 100.642 63.3581L100.654 63.3457Z" fill="white"/>
<path d="M126.772 63.0956C121.623 63.0956 116.984 59.2773 116.101 54.0536L116.064 53.6308V28.6689H121.039V53.4069C121.648 56.3919 124.496 58.4689 127.481 58.0833C130.392 57.6978 132.506 55.1108 132.506 51.9393H137.481C137.481 57.648 133.551 62.2996 128.128 63.021C127.668 63.0832 127.22 63.108 126.772 63.108V63.0956Z" fill="white"/>
<path d="M125.404 38.5195H118.539V43.4945H125.404V38.5195Z" fill="white"/>
<path d="M303.93 63.0956C298.781 63.0956 294.142 59.2773 293.259 54.0536L293.222 53.6308V28.6689H298.197V53.4069C298.806 56.3919 301.642 58.4813 304.639 58.0833C307.575 57.6978 309.776 55.0362 309.664 52.0263L314.639 51.8398C314.85 57.3868 310.746 62.2996 305.286 63.0085C304.826 63.0707 304.378 63.0956 303.93 63.0956Z" fill="#0078BF"/>
<path d="M302.562 38.5195H295.697V43.4945H302.562V38.5195Z" fill="#0078BF"/>
<path d="M153.102 62.9582C152.841 62.9582 152.58 62.9582 152.319 62.9333C146.996 62.5726 141.337 59.2145 141.337 53.7296V39.9988H146.312V53.7296C146.312 56.2171 149.993 57.7842 152.655 57.9708C154.781 58.1076 157.418 57.1997 158.923 55.7942C159.433 55.3216 160.03 54.5754 160.03 53.7172V39.9863H165.005V61.7269H160.03V61.0801C157.94 62.2617 155.428 62.9457 153.09 62.9457L153.102 62.9582Z" fill="white"/>
<path d="M179.246 63.5309C179.171 63.5309 179.096 63.5309 179.022 63.5309C172.729 63.419 167.38 58.1953 167.094 51.902C166.808 45.6833 171.497 40.1238 177.753 39.2407C180.651 38.8303 183.549 39.5019 185.974 41.0193V28.6689H190.949V54.8621L190.8 55.2849C188.959 60.2474 184.333 63.5433 179.246 63.5433V63.5309ZM179.432 44.0913C179.109 44.0913 178.773 44.1162 178.45 44.1659C175.166 44.6261 171.87 47.5613 172.069 51.6781C172.243 55.4093 175.403 58.4938 179.121 58.5684C182.044 58.643 184.755 56.7774 185.987 53.9417V47.8847C184.544 45.534 182.044 44.1037 179.445 44.1037L179.432 44.0913Z" fill="white"/>
<path d="M205.352 82.5968C202.354 82.5968 199.556 81.6142 197.753 80.0595C194.668 77.3731 193.163 74.5871 193.163 71.5524H198.138C198.138 72.5225 198.437 74.0647 201.011 76.3159C202.441 77.5596 206.707 78.5671 210.103 76.1666C210.75 75.7065 211.857 74.4005 211.968 73.8906L212.143 59.7991C210.053 61.4284 207.441 62.3612 204.506 62.3612C197.653 62.3612 192.479 56.2793 192.479 48.2199V40.0236H197.454V48.2199C197.454 53.5306 200.414 57.3862 204.506 57.3862C209.008 57.3862 212.167 53.8043 212.279 48.6303V48.4064C212.279 48.4064 212.279 48.3816 212.279 48.3567L212.379 39.9863L217.354 40.0485L217.254 48.394C217.254 48.5557 217.254 48.7174 217.254 48.8666L216.943 74.0523C216.844 77.3482 213.026 80.2088 212.988 80.2337C210.625 81.9127 207.914 82.6216 205.352 82.6216V82.5968Z" fill="white"/>
<path d="M262.775 61.7523L257.8 61.7275C257.8 60.8817 257.788 59.7872 257.763 58.4813C257.738 56.6033 257.701 54.2775 257.701 51.6034C257.713 46.728 254.007 43.2704 250.661 43.2331C248.87 43.2082 247.502 44.1783 246.669 44.9992C244.791 46.8524 243.646 49.8498 243.597 53.0586C243.597 53.1332 243.597 53.2203 243.597 53.2949V61.7523H238.622C238.622 60.8195 238.622 59.8743 238.622 58.9415C238.622 57.051 238.609 55.1481 238.622 53.2576C238.622 53.183 238.622 53.0959 238.622 53.0213C238.622 49.6259 237.366 46.5166 235.164 44.452C233.709 43.0838 231.993 42.3625 230.438 42.4993C227.192 42.7605 223.697 46.9519 223.697 53.2825V61.7523H218.722V53.2825C218.722 44.9494 223.697 38.0343 230.04 37.5368C233.013 37.3005 236.047 38.4696 238.56 40.8202C239.555 41.753 240.425 42.8351 241.134 44.0166C241.719 43.0714 242.403 42.2132 243.161 41.467C245.251 39.4024 247.888 38.2706 250.587 38.2706C250.624 38.2706 250.674 38.2706 250.711 38.2706C257.203 38.3576 262.676 44.4768 262.651 51.6408C262.651 54.2775 262.676 56.566 262.713 58.4191C262.738 59.7748 262.75 60.9066 262.75 61.7772L262.775 61.7523Z" fill="#0078BF"/>
<path d="M288.769 62.1017L273.459 61.9152L272.949 61.6664C268.248 59.3406 265.462 54.403 266.009 49.4032C266.656 43.5079 271.879 38.707 277.65 38.707C283.72 38.707 288.471 43.5327 288.471 49.7017V52.1518L286.021 52.1891C283.061 52.2389 280.076 52.2016 277.19 52.1767C275.188 52.1518 273.136 52.1394 271.083 52.1394C271.519 54.1045 272.825 55.8706 274.703 56.9651L288.831 57.1392L288.769 62.1142V62.1017ZM271.917 47.152C273.708 47.152 275.499 47.1769 277.24 47.1893C279.13 47.2142 281.058 47.2391 282.998 47.2266C282.177 45.2491 280.362 43.6695 277.65 43.6695C275.598 43.6695 273.223 45.0128 271.917 47.152Z" fill="#0078BF"/>
<path d="M323.345 61.7403H318.37V46.716L318.569 46.2434C320.497 41.7162 324.887 38.6814 329.75 38.5073C333.046 38.383 336.541 39.664 338.78 41.8281C340.434 43.4325 341.305 45.3852 341.305 47.4871H336.33C336.33 46.7533 335.994 46.0444 335.322 45.3976C334.066 44.1788 331.915 43.4201 329.925 43.4823C327.139 43.5818 324.601 45.2359 323.345 47.7607V61.7279V61.7403Z" fill="#0078BF"/>
<path d="M355.968 62.5739C350.334 62.5739 345.397 58.6064 344.14 53.022L344.078 52.4747L344.14 47.3878C345.359 41.8283 350.322 37.8359 355.968 37.8359C356.031 37.8359 356.08 37.8359 356.143 37.8359C361.702 37.9106 366.602 41.9278 367.796 47.3878L367.859 47.9227L367.796 53.022C366.578 58.482 361.864 62.4122 356.317 62.5614C356.205 62.5614 356.093 62.5614 355.968 62.5614V62.5739ZM349.053 52.1762C349.887 55.3478 352.735 57.5865 355.968 57.5865C356.031 57.5865 356.105 57.5865 356.167 57.5865C359.339 57.4994 362.063 55.2856 362.871 52.1762V48.1963C362.075 45.0994 359.252 42.8358 356.068 42.7985C352.784 42.7363 349.874 45.0123 349.053 48.1963V52.1762Z" fill="#0078BF"/>
<path d="M38.6163 77.3987C33.3802 73.7545 23.8407 67.4239 19.2637 51.6036C12.7092 28.868 26.2038 10.4607 30.6937 4.98828C27.9326 10.2617 22.4601 22.6742 25.9053 36.8653C26.6018 39.7507 27.5843 42.3377 28.6664 44.6013C31.0046 42.5989 36.0293 38.8677 43.4047 37.5991C47.5215 36.8901 51.0537 37.1762 53.5411 37.5991C41.9246 43.2581 34.1388 51.6533 33.803 62.1007C33.5418 70.4213 36.2034 72.8963 38.6163 77.3987Z" fill="white" stroke="white" stroke-miterlimit="10" stroke-linecap="square"/>
<path d="M34.6986 36.3922C38.085 36.3922 40.8302 33.6469 40.8302 30.2605C40.8302 26.8741 38.085 24.1289 34.6986 24.1289C31.3122 24.1289 28.567 26.8741 28.567 30.2605C28.567 33.6469 31.3122 36.3922 34.6986 36.3922Z" fill="white" stroke="white" stroke-linecap="round" stroke-linejoin="round"/>
<path d="M62.6081 101.441C70.8789 101.528 79.0378 104.525 85.4804 109.724L84.958 110.06L80.3562 93.8786C78.6896 88.7668 77.9309 82.7471 74.436 78.5682C71.6998 75.4837 67.7198 73.9415 63.7647 73.0211C56.9988 71.1804 49.8349 71.9515 43.2057 74.0161C52.484 69.5138 67.9188 69.6879 75.3564 77.7473C79.0503 82.3367 79.5602 88.2444 81.2392 93.6423L85.5799 109.885C85.6296 110.06 85.5301 110.234 85.356 110.283C81.8611 107.883 78.7642 105.52 74.5728 104.015C70.7545 102.523 66.7 101.714 62.5956 101.565C62.521 101.565 62.521 101.441 62.5956 101.441H62.6081Z" fill="white"/>
<path d="M23.6417 101.565C15.458 101.814 7.43584 104.973 1.17984 110.234C0.955971 110.433 0.570412 110.197 0.657474 109.898C2.2619 104.152 5.59511 91.0678 7.19953 85.5208C8.56765 79.6379 12.162 74.949 18.0822 73.0212C26.0919 70.1979 35.4448 70.3845 43.0316 74.0411C36.4025 71.964 29.2386 71.2053 22.4851 73.0461C18.53 73.9664 14.55 75.5211 11.8138 78.5931C8.3189 82.7721 7.54778 88.7794 5.89361 93.9036L1.29178 110.085L0.76941 109.749C7.06272 104.674 15.8684 101.204 23.6417 101.59V101.565Z" fill="white"/>
<path d="M71.1649 96.59C63.8766 93.7916 56.2028 94.8488 48.815 96.59C48.7528 96.6024 48.703 96.5029 48.7652 96.4781C52.086 94.3886 56.1033 93.605 59.9837 93.8289C63.6154 93.9782 68.3914 94.8239 71.1525 96.59H71.1649Z" fill="white"/>
<path d="M71.1649 89.8986C63.8766 87.1002 56.2028 88.1574 48.815 89.8986C48.7528 89.911 48.703 89.8115 48.7652 89.7867C52.086 87.6972 56.1033 86.9136 59.9837 87.1375C63.6154 87.2867 68.3914 88.1325 71.1525 89.8986H71.1649Z" fill="white"/>
<path d="M71.1649 82.7462C63.8766 79.9478 56.2028 81.005 48.815 82.7462C48.7528 82.7587 48.703 82.6592 48.7652 82.6343C52.086 80.5448 56.1033 79.7613 59.9837 79.9852C63.6154 80.1344 68.3914 80.9801 71.1525 82.7462H71.1649Z" fill="white"/>
<path d="M15.0475 95.6062C21.9378 92.5093 30.7808 91.4894 37.4845 95.6062C37.5467 95.6435 37.5094 95.743 37.4347 95.7181C33.6911 94.9097 30.0718 94.1759 26.266 93.952C22.4975 93.8401 18.6916 94.4371 15.0972 95.7181C15.035 95.743 14.9728 95.6311 15.0475 95.6062Z" fill="white"/>
<path d="M15.0475 88.9158C21.9378 85.8189 30.7808 84.799 37.4845 88.9158C37.5467 88.9531 37.5094 89.0526 37.4347 89.0277C33.6911 88.2193 30.0718 87.4855 26.266 87.2616C22.4975 87.1497 18.6916 87.7467 15.0972 89.0277C15.035 89.0526 14.9728 88.9407 15.0475 88.9158Z" fill="white"/>
<path d="M15.0475 81.7634C21.9378 78.6665 30.7808 77.6467 37.4845 81.7634C37.5467 81.8007 37.5094 81.9002 37.4347 81.8754C33.6911 81.0669 30.0718 80.3331 26.266 80.1093C22.4975 79.9973 18.6916 80.5943 15.0972 81.8754C15.035 81.9002 14.9728 81.7883 15.0475 81.7634Z" fill="white"/>
<path d="M0.968384 109.986C5.03541 107.523 14.6744 102.461 27.4849 103.12C34.0891 103.456 39.4248 105.197 43.0565 106.764C42.8077 105.881 42.3475 104.687 41.4272 103.543C36.191 96.9512 22.7214 100.11 18.928 101.006C14.8858 101.951 8.095 104.19 0.968384 109.986Z" fill="white"/>
<path d="M85.244 109.986C81.177 107.523 71.538 102.461 58.7275 103.12C52.1233 103.456 46.7877 105.197 43.1559 106.764C43.4047 105.881 43.8649 104.687 44.7852 103.543C50.0214 96.9512 63.4911 100.11 67.2845 101.006C71.3266 101.951 78.1174 104.19 85.244 109.986Z" fill="white"/>
<path d="M43.2928 79.8359C43.84 84.301 44.2878 88.766 44.5987 93.2434C45.2454 97.7831 45.2828 102.385 43.2928 106.651H42.9197C40.9297 102.397 40.967 97.7831 41.6137 93.2434C41.9247 88.766 42.3724 84.301 42.9197 79.8359H43.2928Z" fill="white"/>
<defs>
<radialGradient id="paint0_radial_119_69" cx="0" cy="0" r="1" gradientUnits="userSpaceOnUse" gradientTransform="translate(41.6387 55.3977) scale(37.9962 37.9962)">
<stop stop-color="#F1F6F7"/>
<stop offset="1" stop-color="#6AC9F3"/>
</radialGradient>
<radialGradient id="paint1_radial_119_69" cx="0" cy="0" r="1" gradientUnits="userSpaceOnUse" gradientTransform="translate(46.8772 55.6989) scale(41.4538 42.2746)">
<stop stop-color="#51B4E6"/>
<stop offset="0.99" stop-color="#1768AE"/>
</radialGradient>
</defs>
</svg>
