<svg width="372" height="117" viewBox="0 0 372 117" fill="none" xmlns="http://www.w3.org/2000/svg">
<mask id="mask0_1_16153" style="mask-type:luminance" maskUnits="userSpaceOnUse" x="0" y="0" width="117" height="117">
<path d="M58.1196 117C90.2182 117 116.239 90.979 116.239 58.8804C116.239 26.7818 90.2182 0.760742 58.1196 0.760742C26.021 0.760742 0 26.7818 0 58.8804C0 90.979 26.021 117 58.1196 117Z" fill="white"/>
</mask>
<g mask="url(#mask0_1_16153)">
<path d="M8.64905 30.9448C29.3211 5.46935 63.5253 -38.6319 149.333 -31.0858C149.333 -31.0858 115.434 71.9478 8.6563 30.9448H8.64905Z" fill="#FCFAFF"/>
<path d="M96.7065 40.4276C75.9039 14.9232 41.4893 -29.2507 -44.5873 -21.4723C-44.5873 -21.4723 -10.3323 81.8224 96.7065 40.4276Z" fill="#FAF1FD"/>
<path d="M0.754639 62.8626C21.4194 37.3945 55.6236 -6.71407 141.432 0.832051C141.432 0.832051 107.532 103.866 0.754639 62.8626Z" fill="#F3E4FE"/>
<path d="M93.8838 72.8475C73.0812 47.3431 38.6665 3.16926 -47.41 10.9476C-47.41 10.9476 -13.155 114.242 93.8838 72.8475Z" fill="#E8CBFE"/>
<path d="M26.9048 80.4512C45.4291 57.6314 76.0707 18.1086 152.961 24.8711C152.961 24.8711 122.588 117.195 26.9048 80.4512Z" fill="#CEB3FE"/>
<path d="M88.0067 81.8736C69.3664 59.0176 38.5289 19.4367 -38.6012 26.4024C-38.6012 26.4024 -7.90154 118.958 88.0067 81.8663V81.8736Z" fill="#B298FE"/>
<path d="M19.5039 93.4395C35.4669 73.7615 61.8855 39.6952 128.168 45.5289C128.168 45.5289 101.982 125.111 19.5039 93.4395Z" fill="#9583FE"/>
<path d="M93.6154 94.6587C77.5508 74.959 50.9653 40.8418 -15.5204 46.8424C-15.5204 46.8424 10.9418 126.628 93.6154 94.6587Z" fill="#5D5FDC"/>
<path d="M43.5353 90.6171C62.981 74.3204 95.4366 45.8701 159.767 63.8792C159.767 63.8792 119.018 136.939 43.5353 90.6171Z" fill="#39479D"/>
<path d="M96.1551 110.65C76.2087 89.826 43.0783 53.6699 -31.8314 66.0412C-31.8314 66.0412 5.13731 153.62 96.1551 110.65Z" fill="#293572"/>
</g>
<path d="M134.938 26.9676C134.938 20.0165 138.558 17.8252 144.087 17.8252H163.141C180.193 17.8252 195.822 25.2552 195.822 52.1238C195.822 73.8479 183.719 86.4223 162.858 86.4223H144.087C138.558 86.4223 134.938 84.231 134.938 77.2799V26.9676ZM150.56 73.8406H163.707C176.187 73.8406 180.193 62.6956 180.193 52.1165C180.193 38.5915 175.048 30.3924 163.613 30.3924H150.56V73.8334V73.8406Z" fill="white"/>
<path d="M252.686 79.4645C252.686 83.6584 250.778 86.4156 246.395 86.4156C242.013 86.4156 240.104 83.6512 240.104 79.4645V77.6505H239.916C236.012 82.795 230.962 86.4156 223.053 86.4156C214.673 86.4156 205.523 82.2217 205.523 68.1236V41.0664C205.523 37.3514 207.047 34.1152 212.474 34.1152C217.901 34.1152 219.425 37.3514 219.425 41.0664V65.3591C219.425 70.9824 222.19 74.9804 228.19 74.9804C233.052 74.9804 238.762 70.9751 238.762 64.024V41.0664C238.762 37.3514 240.286 34.1152 245.713 34.1152C251.141 34.1152 252.672 37.3514 252.672 41.0664V79.4645H252.686Z" fill="white"/>
<path d="M263.73 41.0732C263.73 36.8793 265.638 34.1221 270.02 34.1221C274.403 34.1221 276.311 36.8866 276.311 41.0732V42.8872H276.5C280.404 37.7428 285.454 34.1221 293.363 34.1221C301.743 34.1221 310.893 38.316 310.893 52.4142V79.4714C310.893 83.1864 309.369 86.4225 303.942 86.4225C298.514 86.4225 296.983 83.1864 296.983 79.4714V55.1786C296.983 49.5553 294.219 45.5573 288.218 45.5573C283.357 45.5573 277.639 49.5626 277.639 56.5137V79.4714C277.639 83.1864 276.115 86.4225 270.688 86.4225C265.261 86.4225 263.737 83.1864 263.737 79.4714V41.0732H263.73Z" fill="white"/>
<path d="M333.749 62.8917C333.749 70.2273 338.516 75.5604 346.614 75.5604C357.091 75.5604 357.091 68.7036 362.715 68.7036C366.052 68.7036 368.432 71.5624 368.432 74.131C368.432 82.5116 355.002 86.4225 346.614 86.4225C327.175 86.4225 319.839 73.2748 319.839 61.1793C319.839 44.9841 329.649 34.1221 346.135 34.1221C362.62 34.1221 371.284 45.4558 371.284 56.891C371.284 61.6582 369.854 62.8917 365.189 62.8917H333.749ZM358.143 54.8884C357.381 48.5032 352.614 43.8377 346.425 43.8377C339.474 43.8377 335.28 48.1259 333.756 54.8884H358.143Z" fill="white"/>
<path d="M139.937 111.846C138.943 111.846 138 111.701 137.093 111.418C136.186 111.135 135.467 110.765 134.938 110.323L135.75 108.494C136.258 108.893 136.89 109.227 137.637 109.488C138.384 109.757 139.153 109.887 139.937 109.887C140.605 109.887 141.142 109.815 141.548 109.67C141.961 109.524 142.259 109.329 142.455 109.082C142.651 108.835 142.745 108.552 142.745 108.24C142.745 107.856 142.607 107.544 142.331 107.304C142.056 107.072 141.693 106.883 141.25 106.745C140.808 106.608 140.322 106.477 139.785 106.354C139.248 106.23 138.711 106.092 138.174 105.926C137.637 105.759 137.144 105.548 136.708 105.294C136.273 105.04 135.91 104.685 135.627 104.249C135.351 103.814 135.213 103.255 135.213 102.581C135.213 101.906 135.395 101.26 135.765 100.687C136.135 100.114 136.694 99.6564 137.448 99.3081C138.203 98.9671 139.161 98.793 140.322 98.793C141.083 98.793 141.838 98.8873 142.585 99.0832C143.333 99.2791 143.986 99.5548 144.545 99.9176L143.804 101.746C143.238 101.405 142.651 101.158 142.049 100.992C141.446 100.825 140.866 100.745 140.307 100.745C139.654 100.745 139.124 100.825 138.718 100.977C138.312 101.137 138.014 101.34 137.833 101.594C137.644 101.848 137.55 102.138 137.55 102.464C137.55 102.849 137.688 103.161 137.956 103.4C138.225 103.633 138.587 103.821 139.023 103.952C139.465 104.083 139.959 104.213 140.503 104.344C141.047 104.474 141.591 104.612 142.128 104.772C142.665 104.931 143.159 105.135 143.594 105.389C144.029 105.643 144.392 105.984 144.661 106.419C144.929 106.854 145.067 107.406 145.067 108.066C145.067 108.726 144.886 109.372 144.516 109.945C144.145 110.518 143.58 110.976 142.818 111.324C142.056 111.672 141.098 111.839 139.937 111.839V111.846Z" fill="white"/>
<path d="M145.909 103.865V102.051H152.366V103.865H145.909ZM150.843 111.788C149.776 111.788 148.956 111.513 148.376 110.961C147.795 110.41 147.505 109.597 147.505 108.523V99.8379H149.769V108.472C149.769 108.93 149.885 109.285 150.124 109.539C150.356 109.793 150.69 109.916 151.111 109.916C151.619 109.916 152.04 109.786 152.381 109.517L153.012 111.128C152.744 111.346 152.417 111.513 152.033 111.614C151.648 111.723 151.249 111.781 150.835 111.781L150.843 111.788Z" fill="white"/>
<path d="M158.984 111.788C158.164 111.788 157.438 111.636 156.807 111.324C156.176 111.019 155.689 110.548 155.341 109.909C154.993 109.278 154.819 108.473 154.819 107.507V101.979H157.083V107.203C157.083 108.073 157.279 108.726 157.67 109.155C158.062 109.583 158.621 109.8 159.346 109.8C159.876 109.8 160.341 109.692 160.732 109.474C161.124 109.256 161.436 108.93 161.654 108.494C161.879 108.059 161.988 107.522 161.988 106.883V101.986H164.251V111.672H162.096V109.06L162.474 109.858C162.147 110.49 161.668 110.969 161.044 111.302C160.42 111.636 159.724 111.803 158.976 111.803L158.984 111.788Z" fill="white"/>
<path d="M171.333 111.789C170.404 111.789 169.563 111.579 168.823 111.165C168.083 110.751 167.495 110.171 167.074 109.431C166.653 108.691 166.443 107.82 166.443 106.819C166.443 105.817 166.653 104.947 167.074 104.207C167.495 103.467 168.083 102.893 168.823 102.487C169.563 102.073 170.404 101.87 171.333 101.87C172.146 101.87 172.871 102.052 173.51 102.407C174.149 102.763 174.656 103.307 175.034 104.033C175.411 104.758 175.592 105.687 175.592 106.826C175.592 107.965 175.411 108.879 175.048 109.612C174.685 110.345 174.185 110.889 173.546 111.252C172.908 111.615 172.168 111.796 171.333 111.796V111.789ZM171.602 109.852C172.146 109.852 172.632 109.728 173.06 109.489C173.488 109.25 173.836 108.894 174.09 108.437C174.344 107.98 174.482 107.443 174.482 106.826C174.482 106.209 174.352 105.658 174.09 105.201C173.829 104.751 173.488 104.403 173.06 104.156C172.632 103.909 172.146 103.793 171.602 103.793C171.057 103.793 170.571 103.916 170.143 104.156C169.715 104.395 169.367 104.744 169.113 105.201C168.852 105.658 168.721 106.195 168.721 106.826C168.721 107.457 168.852 107.98 169.113 108.437C169.374 108.894 169.715 109.25 170.143 109.489C170.571 109.728 171.057 109.852 171.602 109.852ZM174.54 111.666V109.38L174.627 106.804L174.446 104.228V98.2061H176.695V111.666H174.54Z" fill="white"/>
<path d="M180.49 115.308C180.019 115.308 179.547 115.228 179.075 115.075C178.604 114.916 178.212 114.698 177.893 114.422L178.8 112.754C179.032 112.957 179.286 113.124 179.576 113.24C179.866 113.363 180.164 113.421 180.461 113.421C180.875 113.421 181.201 113.319 181.455 113.109C181.709 112.906 181.941 112.558 182.159 112.079L182.718 110.809L182.899 110.54L186.563 101.979H188.74L184.205 112.441C183.9 113.167 183.567 113.74 183.197 114.161C182.827 114.582 182.413 114.879 181.963 115.046C181.513 115.213 181.013 115.3 180.468 115.3L180.49 115.308ZM182.486 112.006L178.118 101.979H180.476L184.031 110.337L182.493 112.006H182.486Z" fill="white"/>
<path d="M193.601 111.665L199.312 98.9668H201.634L207.366 111.665H204.899L199.987 100.222H200.93L196.032 111.665H193.601ZM196.235 108.726L196.874 106.876H203.731L204.362 108.726H196.235Z" fill="white"/>
<path d="M208.766 111.666V98.2061H211.03V104.228L210.849 106.804L210.921 109.38V111.666H208.766ZM214.136 111.789C213.316 111.789 212.583 111.608 211.944 111.245C211.306 110.882 210.798 110.338 210.428 109.605C210.058 108.872 209.877 107.943 209.877 106.819C209.877 105.694 210.065 104.751 210.45 104.025C210.834 103.3 211.342 102.755 211.988 102.4C212.634 102.044 213.352 101.863 214.136 101.863C215.093 101.863 215.935 102.066 216.668 102.48C217.401 102.893 217.981 103.467 218.409 104.199C218.838 104.932 219.055 105.81 219.055 106.812C219.055 107.813 218.838 108.684 218.409 109.424C217.981 110.164 217.401 110.737 216.668 111.158C215.935 111.571 215.093 111.782 214.136 111.782V111.789ZM213.882 109.852C214.426 109.852 214.912 109.728 215.34 109.489C215.768 109.25 216.109 108.894 216.363 108.437C216.617 107.98 216.748 107.443 216.748 106.826C216.748 106.209 216.617 105.658 216.363 105.201C216.109 104.751 215.768 104.403 215.34 104.156C214.912 103.909 214.426 103.793 213.882 103.793C213.338 103.793 212.851 103.916 212.416 104.156C211.981 104.395 211.64 104.744 211.386 105.201C211.132 105.658 211.001 106.195 211.001 106.826C211.001 107.457 211.132 107.98 211.386 108.437C211.64 108.894 211.981 109.25 212.416 109.489C212.851 109.728 213.338 109.852 213.882 109.852Z" fill="white"/>
<path d="M221.203 111.666V101.979H223.358V104.642L223.104 103.865C223.394 103.212 223.851 102.719 224.475 102.378C225.099 102.037 225.876 101.87 226.805 101.87V104.025C226.71 104.003 226.616 103.989 226.536 103.982C226.449 103.982 226.369 103.974 226.282 103.974C225.426 103.974 224.744 104.228 224.236 104.729C223.728 105.23 223.474 105.977 223.474 106.971V111.666H221.21H221.203Z" fill="white"/>
<path d="M232.994 111.788C232 111.788 231.122 111.571 230.345 111.143C229.569 110.714 228.959 110.127 228.517 109.372C228.067 108.625 227.849 107.769 227.849 106.818C227.849 105.868 228.074 104.997 228.517 104.249C228.967 103.509 229.576 102.922 230.345 102.501C231.122 102.08 232 101.862 232.994 101.862C233.988 101.862 234.888 102.073 235.671 102.501C236.448 102.922 237.064 103.502 237.5 104.242C237.942 104.982 238.16 105.839 238.16 106.818C238.16 107.798 237.942 108.625 237.5 109.372C237.057 110.12 236.448 110.714 235.671 111.143C234.888 111.571 234.002 111.788 232.994 111.788ZM232.994 109.851C233.552 109.851 234.046 109.728 234.481 109.488C234.917 109.249 235.258 108.893 235.504 108.436C235.751 107.979 235.874 107.442 235.874 106.825C235.874 106.209 235.751 105.657 235.504 105.2C235.258 104.75 234.917 104.402 234.481 104.155C234.046 103.916 233.56 103.792 233.016 103.792C232.471 103.792 231.963 103.916 231.535 104.155C231.107 104.395 230.766 104.743 230.512 105.2C230.258 105.657 230.135 106.194 230.135 106.825C230.135 107.457 230.258 107.979 230.512 108.436C230.766 108.893 231.107 109.249 231.535 109.488C231.963 109.728 232.45 109.851 232.994 109.851Z" fill="white"/>
<path d="M243.13 111.788C242.405 111.788 241.773 111.665 241.229 111.418C240.685 111.172 240.264 110.823 239.967 110.388C239.669 109.945 239.524 109.445 239.524 108.893C239.524 108.342 239.655 107.863 239.916 107.428C240.177 106.992 240.605 106.644 241.193 106.397C241.788 106.143 242.572 106.013 243.551 106.013H246.359V107.515H243.711C242.934 107.515 242.419 107.638 242.151 107.885C241.882 108.132 241.752 108.436 241.752 108.799C241.752 109.213 241.919 109.539 242.245 109.779C242.572 110.018 243.022 110.141 243.602 110.141C244.182 110.141 244.654 110.011 245.097 109.757C245.539 109.503 245.859 109.126 246.047 108.632L246.432 109.989C246.214 110.555 245.822 110.998 245.264 111.31C244.705 111.622 243.994 111.781 243.13 111.781V111.788ZM246.178 111.665V109.706L246.047 109.292V105.868C246.047 105.2 245.851 104.685 245.452 104.315C245.053 103.945 244.451 103.763 243.638 103.763C243.094 103.763 242.557 103.851 242.035 104.017C241.512 104.184 241.062 104.424 240.7 104.721L239.814 103.074C240.337 102.675 240.954 102.378 241.672 102.174C242.39 101.971 243.138 101.877 243.914 101.877C245.314 101.877 246.403 102.211 247.172 102.886C247.941 103.553 248.326 104.591 248.326 105.998V111.672H246.185L246.178 111.665Z" fill="white"/>
<path d="M255.335 111.789C254.406 111.789 253.564 111.579 252.824 111.165C252.084 110.751 251.496 110.171 251.075 109.431C250.655 108.691 250.444 107.82 250.444 106.819C250.444 105.817 250.655 104.947 251.075 104.207C251.496 103.467 252.084 102.893 252.824 102.487C253.564 102.073 254.406 101.87 255.335 101.87C256.147 101.87 256.873 102.052 257.511 102.407C258.15 102.763 258.658 103.307 259.035 104.033C259.412 104.758 259.594 105.687 259.594 106.826C259.594 107.965 259.412 108.879 259.05 109.612C258.687 110.345 258.186 110.889 257.548 111.252C256.909 111.615 256.169 111.796 255.335 111.796V111.789ZM255.61 109.852C256.155 109.852 256.641 109.728 257.069 109.489C257.497 109.25 257.845 108.894 258.099 108.437C258.353 107.98 258.491 107.443 258.491 106.826C258.491 106.209 258.36 105.658 258.099 105.201C257.838 104.751 257.497 104.403 257.069 104.156C256.641 103.909 256.155 103.793 255.61 103.793C255.066 103.793 254.58 103.916 254.152 104.156C253.724 104.395 253.376 104.744 253.122 105.201C252.86 105.658 252.73 106.195 252.73 106.826C252.73 107.457 252.86 107.98 253.122 108.437C253.383 108.894 253.724 109.25 254.152 109.489C254.58 109.728 255.066 109.852 255.61 109.852ZM258.549 111.666V109.38L258.636 106.804L258.455 104.228V98.2061H260.704V111.666H258.549Z" fill="white"/>
<path d="M274.795 111.846C273.83 111.846 272.93 111.686 272.103 111.367C271.276 111.048 270.557 110.591 269.948 110.01C269.338 109.422 268.86 108.733 268.526 107.935C268.185 107.137 268.018 106.266 268.018 105.323C268.018 104.38 268.185 103.509 268.526 102.711C268.867 101.913 269.338 101.223 269.955 100.636C270.572 100.048 271.29 99.598 272.11 99.2787C272.93 98.9594 273.83 98.7998 274.809 98.7998C275.847 98.7998 276.798 98.9812 277.654 99.3367C278.51 99.6923 279.235 100.222 279.83 100.926L278.307 102.355C277.85 101.862 277.334 101.484 276.768 101.238C276.203 100.991 275.586 100.868 274.918 100.868C274.251 100.868 273.648 100.977 273.097 101.194C272.546 101.412 272.067 101.717 271.668 102.116C271.261 102.515 270.949 102.986 270.724 103.531C270.499 104.075 270.391 104.67 270.391 105.323C270.391 105.976 270.499 106.571 270.724 107.115C270.949 107.659 271.261 108.131 271.668 108.53C272.074 108.929 272.553 109.234 273.097 109.451C273.648 109.669 274.258 109.778 274.918 109.778C275.579 109.778 276.203 109.655 276.768 109.408C277.334 109.161 277.85 108.784 278.307 108.276L279.83 109.727C279.235 110.416 278.51 110.939 277.654 111.302C276.798 111.664 275.84 111.846 274.788 111.846H274.795Z" fill="white"/>
<path d="M285.875 111.788C284.88 111.788 284.003 111.571 283.226 111.143C282.45 110.714 281.84 110.127 281.398 109.372C280.948 108.625 280.73 107.769 280.73 106.818C280.73 105.868 280.955 104.997 281.398 104.249C281.848 103.509 282.457 102.922 283.226 102.501C284.003 102.08 284.88 101.862 285.875 101.862C286.869 101.862 287.768 102.073 288.552 102.501C289.328 102.922 289.945 103.502 290.38 104.242C290.823 104.982 291.041 105.839 291.041 106.818C291.041 107.798 290.823 108.625 290.38 109.372C289.938 110.12 289.328 110.714 288.552 111.143C287.768 111.571 286.883 111.788 285.875 111.788ZM285.875 109.851C286.433 109.851 286.927 109.728 287.362 109.488C287.797 109.249 288.138 108.893 288.385 108.436C288.632 107.979 288.755 107.442 288.755 106.825C288.755 106.209 288.632 105.657 288.385 105.2C288.138 104.75 287.797 104.402 287.362 104.155C286.927 103.916 286.44 103.792 285.896 103.792C285.352 103.792 284.844 103.916 284.416 104.155C283.988 104.395 283.647 104.743 283.393 105.2C283.139 105.657 283.016 106.194 283.016 106.825C283.016 107.457 283.139 107.979 283.393 108.436C283.647 108.893 283.988 109.249 284.416 109.488C284.844 109.728 285.33 109.851 285.875 109.851Z" fill="white"/>
<path d="M298.718 101.87C299.494 101.87 300.183 102.022 300.793 102.327C301.402 102.632 301.881 103.089 302.237 103.713C302.585 104.337 302.759 105.135 302.759 106.115V111.666H300.495V106.405C300.495 105.549 300.292 104.903 299.886 104.482C299.479 104.061 298.913 103.844 298.188 103.844C297.658 103.844 297.187 103.953 296.773 104.17C296.359 104.388 296.047 104.714 295.822 105.143C295.597 105.571 295.489 106.115 295.489 106.768V111.666H293.225V101.979H295.38V104.591L295.002 103.793C295.344 103.176 295.837 102.705 296.483 102.371C297.128 102.037 297.876 101.87 298.725 101.87H298.718Z" fill="white"/>
<path d="M308.636 111.789C307.824 111.789 307.047 111.68 306.307 111.47C305.567 111.259 304.972 110.998 304.537 110.701L305.407 108.981C305.843 109.257 306.365 109.489 306.967 109.67C307.57 109.852 308.179 109.939 308.781 109.939C309.492 109.939 310.015 109.844 310.334 109.648C310.653 109.453 310.813 109.199 310.813 108.872C310.813 108.604 310.704 108.4 310.487 108.263C310.269 108.125 309.986 108.016 309.638 107.943C309.289 107.871 308.897 107.805 308.469 107.747C308.041 107.689 307.613 107.602 307.185 107.501C306.757 107.399 306.365 107.247 306.017 107.044C305.669 106.848 305.386 106.572 305.168 106.238C304.95 105.897 304.841 105.455 304.841 104.896C304.841 104.279 305.016 103.742 305.364 103.292C305.712 102.842 306.206 102.487 306.844 102.24C307.483 101.993 308.23 101.87 309.101 101.87C309.754 101.87 310.414 101.943 311.074 102.088C311.735 102.233 312.286 102.436 312.721 102.705L311.851 104.424C311.394 104.148 310.929 103.953 310.465 103.851C310 103.749 309.536 103.699 309.079 103.699C308.39 103.699 307.882 103.8 307.548 104.011C307.214 104.214 307.047 104.475 307.047 104.787C307.047 105.077 307.156 105.295 307.374 105.44C307.591 105.585 307.874 105.701 308.223 105.781C308.571 105.868 308.963 105.933 309.391 105.991C309.819 106.05 310.247 106.129 310.668 106.238C311.089 106.347 311.481 106.492 311.836 106.681C312.192 106.869 312.482 107.131 312.7 107.472C312.917 107.813 313.026 108.248 313.026 108.792C313.026 109.394 312.845 109.924 312.489 110.367C312.134 110.817 311.626 111.165 310.973 111.412C310.32 111.658 309.543 111.782 308.636 111.782V111.789Z" fill="white"/>
<path d="M319.085 111.788C318.265 111.788 317.539 111.636 316.908 111.324C316.277 111.019 315.791 110.548 315.442 109.909C315.094 109.278 314.92 108.473 314.92 107.507V101.979H317.184V107.203C317.184 108.073 317.38 108.726 317.772 109.155C318.163 109.583 318.722 109.8 319.448 109.8C319.977 109.8 320.442 109.692 320.833 109.474C321.225 109.256 321.537 108.93 321.755 108.494C321.98 108.059 322.089 107.522 322.089 106.883V101.986H324.353V111.672H322.198V109.06L322.575 109.858C322.248 110.49 321.769 110.969 321.145 111.302C320.521 111.636 319.825 111.803 319.078 111.803L319.085 111.788Z" fill="white"/>
<path d="M327.335 111.666V98.2061H329.599V111.666H327.335Z" fill="white"/>
<path d="M331.761 103.865V102.051H338.219V103.865H331.761ZM336.695 111.788C335.628 111.788 334.808 111.513 334.228 110.961C333.647 110.41 333.357 109.597 333.357 108.523V99.8379H335.621V108.472C335.621 108.93 335.737 109.285 335.977 109.539C336.209 109.793 336.542 109.916 336.963 109.916C337.471 109.916 337.892 109.786 338.233 109.517L338.864 111.128C338.596 111.346 338.269 111.513 337.885 111.614C337.5 111.723 337.101 111.781 336.688 111.781L336.695 111.788Z" fill="white"/>
<path d="M341.883 100.382C341.462 100.382 341.114 100.251 340.838 99.983C340.569 99.7145 340.432 99.3953 340.432 99.0252C340.432 98.6552 340.569 98.3142 340.838 98.0529C341.106 97.7917 341.455 97.6611 341.883 97.6611C342.311 97.6611 342.652 97.7845 342.928 98.0312C343.196 98.2779 343.334 98.5899 343.334 98.9672C343.334 99.3663 343.203 99.7 342.935 99.9758C342.666 100.244 342.318 100.382 341.883 100.382ZM340.736 111.665V101.978H343V111.665H340.736Z" fill="white"/>
<path d="M351.475 101.87C352.251 101.87 352.941 102.022 353.55 102.327C354.16 102.632 354.639 103.089 354.994 103.713C355.342 104.337 355.517 105.135 355.517 106.115V111.666H353.253V106.405C353.253 105.549 353.05 104.903 352.643 104.482C352.237 104.061 351.671 103.844 350.945 103.844C350.416 103.844 349.944 103.953 349.53 104.17C349.117 104.388 348.805 104.714 348.58 105.143C348.355 105.571 348.246 106.115 348.246 106.768V111.666H345.982V101.979H348.137V104.591L347.76 103.793C348.101 103.176 348.594 102.705 349.24 102.371C349.886 102.037 350.633 101.87 351.482 101.87H351.475Z" fill="white"/>
<path d="M362.519 111.23C361.597 111.23 360.77 111.034 360.023 110.642C359.282 110.25 358.695 109.699 358.267 109.002C357.839 108.298 357.621 107.478 357.621 106.535C357.621 105.592 357.839 104.787 358.267 104.09C358.695 103.386 359.282 102.842 360.023 102.457C360.763 102.073 361.597 101.877 362.519 101.877C363.338 101.877 364.079 102.044 364.732 102.37C365.385 102.697 365.907 103.205 366.299 103.894C366.691 104.583 366.887 105.469 366.887 106.542C366.887 107.616 366.691 108.502 366.299 109.198C365.907 109.895 365.385 110.41 364.732 110.736C364.079 111.07 363.338 111.237 362.519 111.237V111.23ZM362.809 115.308C361.916 115.308 361.038 115.192 360.189 114.952C359.341 114.72 358.637 114.372 358.092 113.929L359.108 112.224C359.529 112.572 360.066 112.855 360.712 113.066C361.358 113.276 362.018 113.385 362.678 113.385C363.745 113.385 364.521 113.138 365.015 112.652C365.508 112.166 365.755 111.426 365.755 110.446V108.727L365.936 106.535L365.864 104.344V101.986H368.019V110.199C368.019 111.955 367.569 113.24 366.676 114.074C365.784 114.901 364.485 115.315 362.794 115.315L362.809 115.308ZM362.86 109.307C363.426 109.307 363.933 109.191 364.383 108.951C364.833 108.719 365.181 108.393 365.428 107.972C365.675 107.558 365.798 107.072 365.798 106.528C365.798 105.984 365.675 105.505 365.428 105.084C365.181 104.67 364.833 104.344 364.383 104.126C363.933 103.909 363.426 103.793 362.86 103.793C362.294 103.793 361.778 103.901 361.329 104.126C360.879 104.351 360.523 104.67 360.277 105.084C360.03 105.498 359.906 105.984 359.906 106.528C359.906 107.072 360.03 107.551 360.277 107.972C360.523 108.385 360.871 108.712 361.329 108.951C361.786 109.191 362.294 109.307 362.86 109.307Z" fill="white"/>
</svg>
