<svg width="77" height="77" viewBox="0 0 77 77" fill="none" xmlns="http://www.w3.org/2000/svg">
<mask id="mask0_3_1793" style="mask-type:luminance" maskUnits="userSpaceOnUse" x="0" y="0" width="77" height="77">
<path d="M38.1001 77C59.1422 77 76.2002 59.942 76.2002 38.8999C76.2002 17.8578 59.1422 0.799805 38.1001 0.799805C17.058 0.799805 0 17.8578 0 38.8999C0 59.942 17.058 77 38.1001 77Z" fill="white"/>
</mask>
<g mask="url(#mask0_3_1793)">
<path d="M5.6698 20.5872C19.2213 3.88693 41.6437 -25.0235 97.8949 -20.0767C97.8949 -20.0767 75.6722 47.4666 5.67456 20.5872H5.6698Z" fill="#FCFAFF"/>
<path d="M63.3955 26.8042C49.7584 10.0849 27.198 -18.8731 -29.2291 -13.774C-29.2291 -13.774 -6.77338 53.9405 63.3955 26.8042Z" fill="#FAF1FD"/>
<path d="M0.494751 41.5115C14.0415 24.8159 36.4639 -4.09924 92.7151 0.847585C92.7151 0.847585 70.4924 68.3908 0.494751 41.5115Z" fill="#F3E4FE"/>
<path d="M61.5453 48.0562C47.9082 31.3369 25.3478 2.37889 -31.0793 7.47793C-31.0793 7.47793 -8.6236 75.1924 61.5453 48.0562Z" fill="#E8CBFE"/>
<path d="M17.6373 53.0415C29.7808 38.0821 49.8678 12.1731 100.273 16.6062C100.273 16.6062 80.3622 77.1288 17.6373 53.0415Z" fill="#CEB3FE"/>
<path d="M57.6924 53.9734C45.4728 38.9903 25.2574 13.0432 -25.3049 17.6095C-25.3049 17.6095 -5.17989 78.2843 57.6924 53.9687V53.9734Z" fill="#B298FE"/>
<path d="M12.7856 61.5554C23.2501 48.6556 40.5687 26.3235 84.02 30.1478C84.02 30.1478 66.8535 82.3178 12.7856 61.5554Z" fill="#9583FE"/>
<path d="M61.3692 62.3546C50.8382 49.4405 33.4101 27.0751 -10.1743 31.0088C-10.1743 31.0088 7.17288 83.312 61.3692 62.3546Z" fill="#5D5FDC"/>
<path d="M28.5394 59.705C41.287 49.0218 62.5631 30.3713 104.735 42.1771C104.735 42.1771 78.022 90.071 28.5394 59.705Z" fill="#39479D"/>
<path d="M63.034 72.8382C49.9582 59.1869 28.2397 35.4849 -20.8671 43.5949C-20.8671 43.5949 3.36764 101.007 63.034 72.8382Z" fill="#293572"/>
</g>
</svg>
