<svg width="250" height="132" viewBox="0 0 250 132" fill="none" xmlns="http://www.w3.org/2000/svg">
<path d="M8.31787 125.438L8.11787 127.738C7.51787 128.138 6.21787 128.338 5.21787 128.338C2.01787 128.338 0.317871 126.838 0.317871 123.638C0.317871 122.138 0.717871 120.938 1.51787 120.138C2.31787 119.238 3.61787 118.738 5.21787 118.738C6.41787 118.738 7.41787 118.938 8.01787 119.238V121.338H7.61787C7.31787 119.838 6.51787 119.138 5.11787 119.138C2.61787 119.138 1.91787 121.338 1.91787 123.438C1.91787 125.038 2.41787 127.738 5.11787 127.738C6.81787 127.738 7.41787 126.738 7.81787 125.338H8.31787V125.438Z" fill="#0078BF"/>
<path d="M15.818 124.939C15.818 127.039 14.818 128.339 12.618 128.339C10.518 128.339 9.41797 127.039 9.41797 124.939C9.41797 122.839 10.518 121.539 12.618 121.539C14.818 121.439 15.818 122.739 15.818 124.939ZM12.618 127.839C13.818 127.839 14.418 126.739 14.418 124.939C14.418 123.139 13.818 122.039 12.618 122.039C11.418 122.039 10.818 123.139 10.818 124.939C10.918 126.739 11.418 127.839 12.618 127.839Z" fill="#0078BF"/>
<path d="M23.1178 126.938C23.1178 127.638 23.2178 127.638 24.1178 127.738V128.138H20.9178V127.738C21.8178 127.638 21.9178 127.638 21.9178 126.938V123.838C21.9178 122.738 21.4178 122.238 20.5178 122.238C19.8178 122.238 19.2178 122.638 19.0178 123.138C18.9178 123.338 18.9178 123.538 18.9178 123.838V126.838C18.9178 127.538 19.0178 127.538 19.9178 127.638V128.038H16.7178V127.738C17.6178 127.638 17.7178 127.638 17.7178 126.938V122.938C17.7178 122.438 17.6178 122.338 17.3178 122.338L16.8178 122.238V121.838L18.8178 121.538L19.0178 122.538C19.8178 122.038 20.4178 121.538 21.4178 121.538C22.6178 121.538 23.4178 122.338 23.4178 123.638V126.938H23.1178Z" fill="#0078BF"/>
<path d="M31.6177 126.938C31.6177 127.638 31.7177 127.638 32.6177 127.738V128.138H29.3177V127.738C30.2177 127.638 30.3177 127.638 30.3177 126.938V123.838C30.3177 122.738 29.8177 122.238 28.9177 122.238C28.2177 122.238 27.6177 122.638 27.4177 123.138C27.3177 123.338 27.3177 123.538 27.3177 123.838V126.838C27.3177 127.538 27.4177 127.538 28.3177 127.638V128.038H25.1177V127.738C26.0177 127.638 26.1177 127.638 26.1177 126.938V122.938C26.1177 122.438 26.0177 122.338 25.7177 122.338L25.2177 122.238V121.838L27.2177 121.538L27.4177 122.538C28.2177 122.038 28.8177 121.538 29.8177 121.538C31.0177 121.538 31.8177 122.338 31.8177 123.638V126.938H31.6177Z" fill="#0078BF"/>
<path d="M34.7178 124.638C34.7178 126.038 35.0178 127.538 36.6178 127.538C37.6178 127.538 38.1178 126.938 38.5178 126.138L38.9178 126.338C38.5178 127.438 37.8178 128.238 36.3178 128.238C34.1178 128.238 33.2178 126.938 33.2178 124.838C33.2178 122.838 34.2178 121.338 36.2178 121.338C38.6178 121.338 38.9178 123.238 38.9178 124.038C38.9178 124.438 38.6178 124.538 38.4178 124.538H34.7178V124.638ZM37.1178 124.138C37.5178 124.138 37.5178 123.938 37.5178 123.738C37.5178 123.238 37.4178 121.938 36.2178 121.938C34.9178 121.938 34.7178 123.538 34.7178 124.138H37.1178Z" fill="#0078BF"/>
<path d="M45.8177 126.338C45.4177 127.738 44.2177 128.238 43.2177 128.238C41.2177 128.238 40.1177 127.138 40.1177 124.938C40.1177 123.138 40.9177 121.438 43.3177 121.438C44.7177 121.438 45.6177 122.138 45.6177 122.738C45.6177 123.238 45.1177 123.438 44.8177 123.438C44.5177 123.438 44.5177 123.338 44.4177 123.138C44.1177 122.438 43.8177 122.038 43.2177 122.038C42.3177 122.038 41.5177 122.838 41.5177 124.738C41.5177 126.038 41.9177 127.638 43.4177 127.638C44.4177 127.638 44.9177 127.138 45.3177 126.238L45.8177 126.338Z" fill="#0078BF"/>
<path d="M48.8177 122.238V126.238C48.8177 127.238 49.2177 127.538 49.7177 127.538C50.0177 127.538 50.2177 127.538 50.5177 127.338L50.6177 127.738C50.2177 128.038 49.6177 128.338 49.0177 128.338C48.5177 128.338 47.5177 128.138 47.5177 126.838V122.338H46.6177V121.738H47.6177L48.4177 120.038H48.8177V121.738H50.5177V122.338H48.8177V122.238Z" fill="#0078BF"/>
<path d="M52.3179 122.938C52.3179 122.438 52.2179 122.338 51.9179 122.338L51.4179 122.238V121.838L53.5179 121.538L53.6179 121.638V127.038C53.6179 127.738 53.6179 127.738 54.6179 127.838V128.238H51.3179V127.738C52.2179 127.638 52.3179 127.638 52.3179 126.938V122.938ZM53.8179 119.638C53.8179 120.138 53.5179 120.438 53.0179 120.438C52.5179 120.438 52.2179 120.138 52.2179 119.638C52.2179 119.138 52.5179 118.738 53.0179 118.738C53.4179 118.738 53.8179 119.138 53.8179 119.638Z" fill="#0078BF"/>
<path d="M62.1178 126.938C62.1178 127.638 62.2178 127.638 63.1178 127.738V128.138H59.9178V127.738C60.8178 127.638 60.9178 127.638 60.9178 126.938V123.838C60.9178 122.738 60.4178 122.238 59.5178 122.238C58.8178 122.238 58.2178 122.638 58.0178 123.138C57.9178 123.338 57.9178 123.538 57.9178 123.838V126.838C57.9178 127.538 58.0178 127.538 58.9178 127.638V128.038H55.7178V127.738C56.6178 127.638 56.7178 127.638 56.7178 126.938V122.938C56.7178 122.438 56.6178 122.338 56.3178 122.338L55.8178 122.238V121.838L57.8178 121.538L58.0178 122.538C58.8178 122.038 59.4178 121.538 60.4178 121.538C61.6178 121.538 62.4178 122.338 62.4178 123.638V126.938H62.1178Z" fill="#0078BF"/>
<path d="M70.0177 121.438L70.1177 121.538L69.8177 122.338H68.7177C68.9177 122.538 69.1177 123.038 69.1177 123.638C69.1177 125.238 67.7177 125.738 66.4177 125.738C66.2177 125.738 65.9177 125.738 65.7177 125.638C65.5177 125.738 65.1177 125.838 65.1177 126.238C65.1177 126.438 65.2177 126.838 66.2177 126.838H67.4177C68.8177 126.838 69.8177 127.338 69.8177 128.738C69.8177 129.638 69.3177 130.338 68.7177 130.738C68.1177 131.138 67.4177 131.238 66.5177 131.238C64.9177 131.238 63.6177 130.638 63.6177 129.238C63.6177 128.338 64.6177 127.938 65.1177 127.738C64.5177 127.638 63.9177 127.138 63.9177 126.638C63.9177 126.138 64.3177 125.738 65.1177 125.438C64.5177 125.238 63.7177 124.738 63.7177 123.438C63.7177 122.438 64.4177 121.238 66.5177 121.238C67.1177 121.238 67.8177 121.438 68.2177 121.638L70.0177 121.438ZM68.7177 129.338C68.7177 128.338 68.0177 128.038 66.7177 128.038C65.9177 128.038 65.5177 128.138 65.3177 128.338C65.0177 128.538 64.9177 128.838 64.9177 129.238C64.9177 130.238 65.8177 130.838 67.0177 130.838C67.8177 130.938 68.7177 130.438 68.7177 129.338ZM65.2177 123.738C65.2177 124.838 65.8177 125.338 66.5177 125.338C67.3177 125.338 67.8177 124.738 67.8177 123.738C67.8177 122.438 67.2177 122.038 66.5177 122.038C65.9177 121.938 65.2177 122.438 65.2177 123.738Z" fill="#0078BF"/>
<path d="M73.418 128.139V127.739C74.618 127.639 74.618 127.639 74.618 126.939V120.339C74.618 119.639 74.618 119.539 73.418 119.539V119.139H77.118C78.018 119.139 78.918 119.239 79.518 119.639C80.118 120.039 80.518 120.739 80.518 121.739C80.518 123.339 79.618 124.139 78.518 124.439C78.018 124.639 77.418 124.639 77.018 124.639C76.618 124.639 76.118 124.539 75.918 124.539V127.039C75.918 127.739 75.918 127.839 77.318 127.839V128.239H73.418V128.139ZM76.018 123.439C76.018 123.839 76.418 123.939 77.218 123.939C78.418 123.939 79.118 123.239 79.118 121.639C79.118 120.239 78.318 119.439 77.018 119.439C76.118 119.439 76.018 119.539 76.018 119.939V123.439Z" fill="#0078BF"/>
<path d="M82.8179 124.638C82.8179 126.038 83.1179 127.538 84.7179 127.538C85.7179 127.538 86.2179 126.938 86.6179 126.138L87.0179 126.338C86.6179 127.438 85.9179 128.238 84.4179 128.238C82.2179 128.238 81.3179 126.938 81.3179 124.838C81.3179 122.838 82.3179 121.338 84.3179 121.338C86.7179 121.338 87.0179 123.238 87.0179 124.038C87.0179 124.438 86.7179 124.538 86.5179 124.538H82.8179V124.638ZM85.3179 124.138C85.7179 124.138 85.7179 123.938 85.7179 123.738C85.7179 123.238 85.6179 121.938 84.4179 121.938C83.1179 121.938 82.9179 123.538 82.9179 124.138H85.3179Z" fill="#0078BF"/>
<path d="M94.7179 124.939C94.7179 127.039 93.7179 128.339 91.5179 128.339C89.4179 128.339 88.3179 127.039 88.3179 124.939C88.3179 122.839 89.4179 121.539 91.5179 121.539C93.6179 121.439 94.7179 122.739 94.7179 124.939ZM91.5179 127.839C92.7179 127.839 93.3179 126.739 93.3179 124.939C93.3179 123.139 92.7179 122.039 91.5179 122.039C90.3179 122.039 89.7179 123.139 89.7179 124.939C89.7179 126.739 90.3179 127.839 91.5179 127.839Z" fill="#0078BF"/>
<path d="M96.3179 122.838C96.3179 122.338 96.2179 122.338 95.9179 122.238L95.4179 122.138V121.738L97.4179 121.438L97.6179 122.438C98.1179 122.138 98.9179 121.438 99.8179 121.438C102.118 121.438 102.418 123.638 102.418 124.738C102.418 127.438 100.918 128.338 99.1179 128.338C98.5179 128.338 97.9179 128.238 97.6179 128.038V130.038C97.6179 130.738 97.7179 130.738 98.8179 130.838V131.238H95.3179V130.838C96.2179 130.738 96.3179 130.738 96.3179 130.038V122.838ZM97.6179 126.038C97.6179 126.338 97.6179 126.638 97.7179 126.838C97.9179 127.438 98.4179 127.738 99.1179 127.738C100.418 127.738 101.018 126.638 101.018 124.738C101.018 122.438 99.9179 122.138 99.3179 122.138C98.6179 122.138 98.0179 122.438 97.8179 123.038C97.7179 123.238 97.6179 123.438 97.6179 123.738V126.038Z" fill="#0078BF"/>
<path d="M104.018 119.638C104.018 119.138 103.918 119.038 103.618 119.038H103.118V118.638L105.218 118.338L105.318 118.438V127.038C105.318 127.738 105.418 127.738 106.318 127.838V128.238H103.018V127.738C103.918 127.638 104.018 127.638 104.018 126.938V119.638Z" fill="#0078BF"/>
<path d="M108.418 124.638C108.418 126.038 108.718 127.538 110.318 127.538C111.318 127.538 111.818 126.938 112.218 126.138L112.618 126.338C112.218 127.438 111.518 128.238 110.018 128.238C107.818 128.238 106.918 126.938 106.918 124.838C106.918 122.838 107.918 121.338 109.918 121.338C112.318 121.338 112.618 123.238 112.618 124.038C112.618 124.438 112.318 124.538 112.118 124.538H108.418V124.638ZM110.918 124.138C111.318 124.138 111.318 123.938 111.318 123.738C111.318 123.238 111.218 121.938 110.018 121.938C108.718 121.938 108.518 123.538 108.518 124.138H110.918Z" fill="#0078BF"/>
<path d="M113.918 127.438C113.918 126.938 114.218 126.538 114.718 126.538C115.218 126.538 115.618 126.938 115.618 127.438C115.618 127.938 115.318 128.338 114.718 128.338C114.318 128.238 113.918 127.938 113.918 127.438Z" fill="#0078BF"/>
<path d="M126.918 125.438L126.718 127.738C126.118 128.138 124.818 128.338 123.818 128.338C120.618 128.338 118.918 126.838 118.918 123.638C118.918 122.138 119.318 120.938 120.118 120.138C120.918 119.238 122.218 118.738 123.818 118.738C125.018 118.738 126.018 118.938 126.618 119.238V121.338H126.118C125.818 119.838 125.018 119.138 123.618 119.138C121.118 119.138 120.418 121.338 120.418 123.438C120.418 125.038 120.918 127.738 123.618 127.738C125.318 127.738 125.918 126.738 126.318 125.338H126.918V125.438Z" fill="#0078BF"/>
<path d="M128.818 119.638C128.818 119.138 128.718 119.138 128.418 119.038L127.918 118.938V118.538L130.018 118.238L130.118 118.338V122.538C130.918 122.038 131.518 121.538 132.518 121.538C133.718 121.538 134.518 122.338 134.518 123.638V126.938C134.518 127.538 134.618 127.638 135.518 127.738V128.138H132.318V127.738C133.218 127.638 133.318 127.638 133.318 126.938V123.838C133.318 122.738 132.818 122.238 131.918 122.238C131.218 122.238 130.618 122.638 130.318 123.238C130.218 123.438 130.218 123.638 130.218 123.938V126.938C130.218 127.538 130.318 127.638 131.218 127.738V128.138H128.018V127.738C128.918 127.638 129.018 127.638 129.018 126.938V119.638H128.818Z" fill="#0078BF"/>
<path d="M141.418 126.338C141.418 127.138 141.618 127.438 141.818 127.438C141.918 127.438 142.118 127.438 142.318 127.438L142.418 127.838C142.118 128.038 141.518 128.238 141.018 128.238C140.518 128.238 140.318 127.938 140.118 127.438C139.718 127.738 139.018 128.238 138.118 128.238C136.818 128.238 136.218 127.338 136.218 126.338C136.218 125.738 136.518 125.038 137.418 124.738C138.418 124.438 139.718 124.038 140.118 123.738V123.338C140.118 122.338 139.618 121.938 138.918 121.938C138.418 121.938 137.918 122.238 137.618 123.238C137.518 123.438 137.418 123.638 137.218 123.638C136.918 123.638 136.518 123.438 136.518 123.038C136.518 122.338 137.618 121.538 139.118 121.538C141.118 121.538 141.418 122.538 141.418 123.338V126.338ZM140.218 124.338C139.918 124.538 139.218 124.738 138.718 124.938C138.018 125.238 137.718 125.538 137.718 126.138C137.718 126.938 138.118 127.438 138.918 127.438C139.418 127.438 140.218 127.138 140.218 126.138V124.338Z" fill="#0078BF"/>
<path d="M149.918 126.938C149.918 127.638 150.018 127.638 150.918 127.738V128.138H147.718V127.738C148.618 127.638 148.718 127.638 148.718 126.938V123.838C148.718 122.738 148.218 122.238 147.318 122.238C146.618 122.238 146.018 122.638 145.818 123.138C145.718 123.338 145.718 123.538 145.718 123.838V126.838C145.718 127.538 145.818 127.538 146.718 127.638V128.038H143.318V127.738C144.218 127.638 144.318 127.638 144.318 126.938V122.938C144.318 122.438 144.218 122.338 143.918 122.338L143.418 122.238V121.838L145.418 121.538L145.618 122.538C146.418 122.038 147.018 121.538 148.018 121.538C149.218 121.538 150.018 122.338 150.018 123.638V126.938H149.918Z" fill="#0078BF"/>
<path d="M157.818 121.438L157.918 121.538L157.618 122.338H156.518C156.718 122.538 156.918 123.038 156.918 123.638C156.918 125.238 155.518 125.738 154.218 125.738C154.018 125.738 153.718 125.738 153.518 125.638C153.318 125.738 152.918 125.838 152.918 126.238C152.918 126.438 153.018 126.838 154.018 126.838H155.218C156.618 126.838 157.618 127.338 157.618 128.738C157.618 129.638 157.118 130.338 156.518 130.738C155.918 131.138 155.218 131.238 154.318 131.238C152.718 131.238 151.418 130.638 151.418 129.238C151.418 128.338 152.418 127.938 152.918 127.738C152.318 127.638 151.718 127.138 151.718 126.638C151.718 126.138 152.118 125.738 152.918 125.438C152.318 125.238 151.518 124.738 151.518 123.438C151.518 122.438 152.218 121.238 154.318 121.238C154.918 121.238 155.618 121.438 156.018 121.638L157.818 121.438ZM156.618 129.338C156.618 128.338 155.918 128.038 154.618 128.038C153.818 128.038 153.418 128.138 153.218 128.338C152.918 128.538 152.818 128.838 152.818 129.238C152.818 130.238 153.718 130.838 154.918 130.838C155.718 130.938 156.618 130.438 156.618 129.338ZM153.118 123.738C153.118 124.838 153.718 125.338 154.418 125.338C155.218 125.338 155.718 124.738 155.718 123.738C155.718 122.438 155.118 122.038 154.418 122.038C153.718 121.938 153.118 122.438 153.118 123.738Z" fill="#0078BF"/>
<path d="M159.718 122.938C159.718 122.438 159.618 122.338 159.318 122.338L158.818 122.238V121.838L160.918 121.538L161.018 121.638V127.038C161.018 127.738 161.018 127.738 162.018 127.838V128.238H158.718V127.738C159.618 127.638 159.718 127.638 159.718 126.938V122.938ZM161.118 119.638C161.118 120.138 160.818 120.438 160.318 120.438C159.818 120.438 159.518 120.138 159.518 119.638C159.518 119.138 159.818 118.738 160.318 118.738C160.818 118.738 161.118 119.138 161.118 119.638Z" fill="#0078BF"/>
<path d="M169.418 126.938C169.418 127.638 169.518 127.638 170.418 127.738V128.138H167.218V127.738C168.118 127.638 168.218 127.638 168.218 126.938V123.838C168.218 122.738 167.718 122.238 166.818 122.238C166.118 122.238 165.518 122.638 165.318 123.138C165.218 123.338 165.218 123.538 165.218 123.838V126.838C165.218 127.538 165.318 127.538 166.218 127.638V128.038H163.018V127.738C163.918 127.638 164.018 127.638 164.018 126.938V122.938C164.018 122.438 163.918 122.338 163.618 122.338L163.118 122.238V121.838L165.118 121.538L165.318 122.538C166.118 122.038 166.718 121.538 167.718 121.538C168.918 121.538 169.718 122.338 169.718 123.638V126.938H169.418Z" fill="#0078BF"/>
<path d="M177.418 121.438L177.518 121.538L177.218 122.338H176.118C176.318 122.538 176.518 123.038 176.518 123.638C176.518 125.238 175.118 125.738 173.818 125.738C173.618 125.738 173.318 125.738 173.118 125.638C172.918 125.738 172.518 125.838 172.518 126.238C172.518 126.438 172.618 126.838 173.618 126.838H174.818C176.218 126.838 177.218 127.338 177.218 128.738C177.218 129.638 176.718 130.338 176.118 130.738C175.518 131.138 174.818 131.238 173.918 131.238C172.318 131.238 171.018 130.638 171.018 129.238C171.018 128.338 172.018 127.938 172.518 127.738C171.918 127.638 171.318 127.138 171.318 126.638C171.318 126.138 171.718 125.738 172.518 125.438C171.918 125.238 171.118 124.738 171.118 123.438C171.118 122.438 171.818 121.238 173.918 121.238C174.518 121.238 175.218 121.438 175.618 121.638L177.418 121.438ZM176.118 129.338C176.118 128.338 175.418 128.038 174.118 128.038C173.318 128.038 172.918 128.138 172.718 128.338C172.418 128.538 172.318 128.838 172.318 129.238C172.318 130.238 173.218 130.838 174.418 130.838C175.218 130.938 176.118 130.438 176.118 129.338ZM172.618 123.738C172.618 124.838 173.218 125.338 173.918 125.338C174.718 125.338 175.218 124.738 175.218 123.738C175.218 122.438 174.618 122.038 173.918 122.038C173.218 121.938 172.618 122.438 172.618 123.738Z" fill="#0078BF"/>
<path d="M183.418 122.238V126.238C183.418 127.238 183.818 127.538 184.318 127.538C184.618 127.538 184.818 127.538 185.118 127.338L185.218 127.738C184.818 128.038 184.218 128.338 183.618 128.338C183.118 128.338 182.118 128.138 182.118 126.838V122.338H181.218V121.738H182.218L183.018 120.038H183.418V121.738H185.118V122.338H183.418V122.238Z" fill="#0078BF"/>
<path d="M186.918 119.638C186.918 119.138 186.818 119.138 186.518 119.038L186.018 118.938V118.538L188.118 118.238L188.218 118.338V122.538C189.018 122.038 189.618 121.538 190.618 121.538C191.818 121.538 192.618 122.338 192.618 123.638V126.938C192.618 127.538 192.718 127.638 193.618 127.738V128.138H190.418V127.738C191.318 127.638 191.418 127.638 191.418 126.938V123.838C191.418 122.738 190.918 122.238 190.018 122.238C189.318 122.238 188.718 122.638 188.418 123.238C188.318 123.438 188.318 123.638 188.318 123.938V126.938C188.318 127.538 188.418 127.638 189.318 127.738V128.138H186.118V127.738C187.018 127.638 187.118 127.638 187.118 126.938V119.638H186.918Z" fill="#0078BF"/>
<path d="M195.618 124.638C195.618 126.038 195.918 127.538 197.518 127.538C198.518 127.538 199.018 126.938 199.418 126.138L199.818 126.338C199.418 127.438 198.718 128.238 197.218 128.238C195.018 128.238 194.118 126.938 194.118 124.838C194.118 122.838 195.118 121.338 197.118 121.338C199.518 121.338 199.818 123.238 199.818 124.038C199.818 124.438 199.518 124.538 199.318 124.538H195.618V124.638ZM198.018 124.138C198.418 124.138 198.418 123.938 198.418 123.738C198.418 123.238 198.318 121.938 197.118 121.938C195.818 121.938 195.618 123.538 195.618 124.138H198.018Z" fill="#0078BF"/>
<path d="M215.718 118.938V119.338C214.918 119.438 214.718 119.438 214.518 120.238C213.818 122.538 212.918 125.638 212.318 128.138H211.218C210.518 125.838 209.818 123.438 209.018 120.938C208.518 122.738 207.618 126.138 207.018 128.138H205.918C205.218 125.438 204.518 122.838 203.718 120.238C203.518 119.538 203.418 119.438 202.618 119.438V119.038H206.018V119.438L205.318 119.538C205.018 119.538 204.918 119.638 205.018 120.038C205.518 122.138 206.118 124.338 206.818 126.538C207.518 124.138 208.218 121.338 208.818 119.238H209.818C210.518 121.638 211.318 124.138 212.018 126.538C212.518 124.738 213.318 121.938 213.718 120.038C213.818 119.738 213.718 119.538 213.418 119.538L212.618 119.438V119.038H215.718V118.938Z" fill="#0078BF"/>
<path d="M221.618 124.939C221.618 127.039 220.618 128.339 218.418 128.339C216.318 128.339 215.218 127.039 215.218 124.939C215.218 122.839 216.318 121.539 218.418 121.539C220.618 121.439 221.618 122.739 221.618 124.939ZM218.418 127.839C219.618 127.839 220.218 126.739 220.218 124.939C220.218 123.139 219.618 122.039 218.418 122.039C217.218 122.039 216.618 123.139 216.618 124.939C216.718 126.739 217.318 127.839 218.418 127.839Z" fill="#0078BF"/>
<path d="M224.618 126.938C224.618 127.638 224.718 127.638 225.818 127.738V128.138H222.318V127.738C223.218 127.638 223.318 127.638 223.318 126.938V122.938C223.318 122.438 223.218 122.338 222.918 122.338L222.418 122.238V121.838L224.518 121.538L224.718 122.638C225.618 121.838 226.018 121.538 226.418 121.538C226.918 121.538 227.118 121.938 227.118 122.238C227.118 122.638 226.818 123.038 226.518 123.038C226.418 123.038 226.318 123.038 226.218 122.938C225.918 122.638 225.718 122.638 225.418 122.638C225.118 122.638 224.618 123.038 224.618 123.938V126.938Z" fill="#0078BF"/>
<path d="M228.318 119.638C228.318 119.138 228.218 119.038 227.918 119.038H227.418V118.638L229.518 118.338L229.618 118.438V127.038C229.618 127.738 229.718 127.738 230.618 127.838V128.238H227.318V127.738C228.218 127.638 228.318 127.638 228.318 126.938V119.638Z" fill="#0078BF"/>
<path d="M235.618 119.038L235.018 118.938V118.538L237.218 118.238L237.318 118.338V126.938C237.318 127.638 237.418 127.638 238.318 127.638V128.138H236.018V127.438C235.318 128.038 234.618 128.338 233.918 128.338C232.118 128.338 231.218 127.038 231.218 125.038C231.218 123.838 231.518 123.038 232.118 122.438C232.718 121.838 233.518 121.538 234.518 121.538C235.118 121.538 235.618 121.638 235.918 121.838V119.638C236.118 119.138 236.018 119.038 235.618 119.038ZM236.118 123.538C236.118 123.138 236.118 123.038 236.018 122.738C235.818 122.238 235.318 121.938 234.718 121.938C233.418 121.938 232.818 123.138 232.818 124.838C232.818 126.338 233.418 127.538 234.618 127.538C235.318 127.538 235.818 127.238 236.118 126.638C236.218 126.438 236.218 126.238 236.218 125.938V123.538H236.118Z" fill="#0078BF"/>
<path d="M239.518 127.438C239.518 126.938 239.818 126.538 240.318 126.538C240.818 126.538 241.218 126.938 241.218 127.438C241.218 127.938 240.918 128.338 240.318 128.338C239.818 128.238 239.518 127.938 239.518 127.438Z" fill="#0078BF"/>
<path d="M44.8179 113.439C33.7179 97.6387 22.9179 81.8387 11.6179 66.0387H11.4179V96.8387C11.4179 101.239 11.6179 104.239 11.9179 106.839C12.4179 110.239 14.8179 110.439 20.0179 110.839V113.439H0.317871V110.839C4.41787 110.539 6.71787 110.139 7.21787 106.839C7.51787 104.239 7.71787 101.239 7.71787 96.8387V66.3387C7.71787 61.8387 7.51787 61.7387 0.617871 61.3387V58.6387H16.1179C25.0179 71.3387 36.3179 87.6387 46.6179 102.039L46.7179 102.239V75.2387C46.7179 70.8387 46.5179 67.8387 46.2179 65.2387C45.7179 61.8387 43.2179 61.6387 38.1179 61.3387V58.6387H57.8179V61.3387C53.7179 61.6387 51.6179 61.8387 51.1179 65.2387C50.8179 67.9387 50.6179 70.8387 50.6179 75.2387V113.439H44.8179Z" fill="#0078BF"/>
<path d="M146.618 58.6381V71.9381H143.918C142.718 63.8381 141.018 61.6381 131.818 61.6381H124.618C122.018 61.6381 121.718 61.9381 121.718 64.5381V84.6381H132.218C138.818 84.6381 139.218 82.6381 139.918 77.4381H142.618V95.5381H139.918C139.118 90.4381 138.818 87.8381 132.218 87.8381H121.718V105.938C121.718 110.338 122.018 110.438 130.018 110.938V113.538H106.318V110.938C113.218 110.438 113.418 110.238 113.418 105.938V66.2381C113.418 61.8381 113.218 61.7381 106.318 61.2381V58.5381H146.618V58.6381Z" fill="#0078BF"/>
<path d="M179.718 73.0387C178.418 65.3387 174.618 61.4387 167.918 61.4387C161.318 61.4387 157.818 65.5387 157.818 71.0387C157.818 77.0387 164.218 79.9387 169.218 81.7387C178.718 85.1387 185.718 88.1387 185.718 97.9387C185.718 105.939 180.218 113.339 166.018 113.339C160.518 113.339 153.918 111.939 150.418 108.839L149.618 96.7387H152.318C154.418 105.239 159.218 110.639 166.518 110.639C173.518 110.639 177.818 107.039 177.818 100.539C177.818 94.3387 171.218 91.0387 165.418 89.0387C157.318 86.2387 150.418 82.9387 150.418 73.6387C150.418 63.4387 158.718 58.6387 168.518 58.6387C173.918 58.6387 179.418 60.0387 182.418 61.8387V73.1387H179.718V73.0387Z" fill="#0078BF"/>
<path d="M244.318 122.438V122.238C244.618 122.238 244.818 122.138 244.818 121.938C244.818 121.738 244.818 121.538 244.818 121.238V119.238C244.818 118.938 244.818 118.938 244.318 118.938V118.738H245.718C245.918 119.238 246.118 119.638 246.318 120.138L246.918 121.438L247.518 120.138C247.718 119.638 248.018 119.238 248.118 118.738H249.418V118.938C248.918 118.938 248.918 119.038 248.918 119.238V121.838C248.918 122.138 248.918 122.138 249.418 122.138V122.338H247.718V122.138C248.218 122.138 248.218 122.038 248.218 121.838V119.238L246.718 122.338H246.518L245.018 119.238V121.338C245.018 121.638 245.018 121.838 245.018 122.038C245.018 122.238 245.218 122.238 245.618 122.338V122.538H244.318V122.438ZM242.718 121.938C242.718 122.238 242.718 122.238 243.318 122.238V122.438H241.418V122.238C242.018 122.238 242.018 122.138 242.018 121.938V119.038H241.718C241.118 119.038 240.918 119.138 240.818 119.738H240.618V118.738H244.018V119.638H243.818C243.718 119.038 243.618 118.938 242.918 118.938H242.618V121.938H242.718Z" fill="#0078BF"/>
<path d="M89.818 59.1387C89.918 57.6387 89.818 56.0387 89.718 54.4387C89.518 52.8387 89.318 51.1387 88.818 49.4387C88.318 47.4387 87.718 45.4387 86.818 43.5387C86.918 43.3387 87.018 43.2387 87.118 43.0387L88.418 40.7387C88.718 40.2387 88.918 39.6387 89.118 39.1387C89.218 38.8387 89.318 38.6387 89.518 38.3387C89.618 38.2387 89.618 38.0387 89.718 37.9387C89.818 37.6387 89.918 37.3387 90.018 37.1387L90.418 35.9387C90.918 34.5387 91.218 33.1387 91.418 31.7387L91.618 30.8387C91.718 30.1387 91.818 29.4387 91.818 28.8387L91.918 27.2387C91.918 26.9387 91.918 26.7387 91.918 26.4387C91.918 26.3387 91.918 26.1387 91.918 26.0387L91.818 23.7387C91.818 23.2387 91.718 22.8387 91.618 22.3387C91.618 22.1387 91.518 21.9387 91.518 21.6387C91.518 21.4387 91.418 21.2387 91.418 20.9387C91.318 20.5387 91.318 20.1387 91.218 19.7387L90.318 16.7387C90.218 16.4387 90.118 16.1387 90.018 15.9387L89.818 15.5387C89.218 14.1387 88.818 13.4387 88.818 13.4387C88.718 13.2387 88.418 13.1387 88.218 13.1387C88.018 13.2387 87.818 13.4387 87.918 13.6387C87.918 13.6387 88.018 14.5387 88.318 15.9387C88.318 16.0387 88.318 16.2387 88.418 16.3387C88.418 16.5387 88.518 16.8387 88.518 17.0387L88.818 20.0387C88.818 20.3387 88.818 20.7387 88.818 21.1387C88.818 21.3387 88.818 21.5387 88.818 21.8387C88.818 22.0387 88.818 22.3387 88.818 22.5387C88.818 22.9387 88.818 23.3387 88.818 23.7387L88.618 25.7387C88.618 25.8387 88.618 25.9387 88.618 26.1387C88.618 26.3387 88.618 26.5387 88.518 26.7387L88.318 27.9387C88.218 28.2387 88.218 28.6387 88.118 28.9387C88.018 29.3387 88.018 29.7387 87.918 30.1387L87.318 32.4387C87.218 32.7387 87.118 33.1387 87.018 33.5387L86.318 35.6387C86.218 35.8387 86.118 36.1387 86.018 36.3387C85.918 36.4387 85.918 36.6387 85.818 36.7387C85.718 37.0387 85.518 37.2387 85.418 37.5387C85.218 38.0387 85.018 38.4387 84.818 38.8387L84.618 39.2387C82.618 36.0387 80.118 32.9387 77.218 30.2387C76.118 29.2387 74.918 28.2387 73.718 27.3387C73.518 27.7387 73.418 28.1387 73.218 28.5387C73.018 28.9387 72.918 29.2387 72.718 29.6387C72.518 30.0387 72.318 30.3387 72.118 30.6387C72.018 30.8387 71.918 30.9387 71.918 31.1387C72.818 31.8387 73.618 32.4387 74.418 33.2387C77.118 35.7387 79.518 38.3387 81.418 41.2387C81.718 41.7387 82.118 42.2387 82.418 42.7387L82.318 42.8387C82.118 43.1387 81.918 43.5387 81.718 43.8387L81.018 44.7387C80.818 44.9387 80.618 45.1387 80.518 45.4387C80.218 45.8387 79.918 46.2387 79.618 46.5387C79.218 46.9387 78.918 47.3387 78.518 47.7387C77.818 48.4387 77.218 49.1387 76.518 49.7387L75.918 50.2387C75.618 50.5387 75.318 50.8387 75.018 51.0387L73.518 52.2387C72.818 52.8387 72.118 53.3387 71.418 53.7387C71.218 53.8387 71.018 54.0387 70.818 54.1387L69.618 54.9387L68.518 55.5387C67.218 56.2387 66.518 56.7387 66.518 56.7387C66.318 56.8387 66.218 57.1387 66.318 57.3387C66.418 57.5387 66.618 57.6387 66.818 57.6387H66.918C66.918 57.6387 67.718 57.4387 69.218 57.0387L70.418 56.6387C70.718 56.5387 71.018 56.4387 71.318 56.2387L72.218 55.8387C73.118 55.4387 74.018 55.0387 75.018 54.4387L76.818 53.4387C77.218 53.1387 77.618 52.9387 78.018 52.6387C78.218 52.5387 78.418 52.3387 78.618 52.2387C79.718 51.4387 80.818 50.5387 81.918 49.5387L82.318 49.1387C82.718 48.7387 83.118 48.3387 83.418 47.9387C83.618 47.7387 83.818 47.5387 84.018 47.3387L84.518 46.7387C85.018 47.9387 85.518 49.1387 85.818 50.2387C86.718 53.2387 87.218 56.3387 87.418 59.1387C87.518 61.9387 87.318 64.5387 87.018 66.8387C86.618 69.1387 86.218 71.1387 85.718 72.7387C85.218 74.3387 84.818 75.6387 84.518 76.4387C84.218 77.3387 84.018 77.7387 84.018 77.7387C84.018 77.7387 84.218 77.3387 84.718 76.5387C84.918 76.1387 85.218 75.6387 85.518 75.0387C85.818 74.4387 86.118 73.7387 86.518 72.9387C87.218 71.3387 87.918 69.4387 88.618 67.0387C89.218 64.9387 89.718 62.1387 89.818 59.1387Z" fill="#FAA41A"/>
<path d="M69.2178 30.2383C69.4178 29.9383 69.6178 29.5383 69.8178 29.2383C70.0178 28.8383 70.1178 28.5383 70.3178 28.1383C70.8178 26.8383 71.4178 25.5383 71.7178 24.1383C72.2178 22.8383 72.4178 21.5383 72.6178 20.3383C72.7178 19.8383 72.8178 19.4383 72.9178 18.9383C73.0178 18.0383 73.1178 17.2383 73.1178 16.4383L73.2178 15.2383L73.0178 11.7383C72.9178 11.2383 72.9178 10.8383 72.8178 10.3383C72.8178 10.1383 72.7178 9.83828 72.7178 9.63828C72.7178 9.43828 72.6178 9.23828 72.6178 8.93828C72.5178 8.53828 72.5178 8.03828 72.4178 7.63828L71.5178 4.43828L71.0178 3.23828C70.4178 1.83828 70.1178 1.03828 70.1178 1.03828C70.1178 0.838281 69.8178 0.738281 69.6178 0.738281C69.4178 0.838281 69.2178 1.03828 69.2178 1.23828C69.2178 1.23828 69.3178 2.13828 69.6178 3.63828L69.8178 4.83828L70.0178 7.93828C70.0178 8.33828 70.0178 8.63828 70.0178 9.03828C70.0178 9.23828 70.0178 9.43828 70.0178 9.73828V10.4383C70.0178 10.8383 70.0178 11.3383 70.0178 11.7383L69.7178 14.7383L69.5178 16.0383C69.4178 16.4383 69.4178 16.8383 69.3178 17.3383C69.2178 17.6383 69.2178 18.0383 69.1178 18.3383C69.0178 18.7383 68.9178 19.0383 68.8178 19.4383C68.5178 20.6383 68.2178 21.8383 67.8178 23.0383C67.8178 23.1383 67.7178 23.2383 67.7178 23.4383C67.6178 23.4383 67.5178 23.3383 67.5178 23.3383C63.9178 21.3383 60.1178 19.8383 56.3178 18.8383C52.4178 17.7383 48.5178 17.4383 44.7178 17.4383C40.9178 17.4383 37.2178 18.0383 33.9178 19.0383C31.2178 19.8383 28.6178 20.8383 26.4178 22.1383C30.1178 19.0383 34.3178 16.6383 38.7178 14.9383C43.3178 13.1383 48.3178 12.2383 53.2178 12.1383C52.7178 10.1383 53.1178 7.93828 54.2178 6.13828C48.1178 6.13828 42.1178 7.43828 36.6178 9.73828C30.5178 12.3383 24.8178 16.3383 20.1178 21.2383C15.8178 25.8383 12.4178 31.3383 10.2178 37.1383C8.31777 42.3383 7.21777 47.4383 7.21777 53.1383C7.21777 53.8383 7.21777 54.8383 7.21777 54.8383H10.3178C10.3178 54.8383 10.3178 53.8383 10.4178 53.2383C10.7178 47.9383 11.9178 43.1383 13.9178 38.4383C15.4178 34.9383 17.4178 31.7383 19.7178 28.7383C21.5178 27.3383 23.6178 26.0383 26.1178 24.8383C28.6178 23.6383 31.5178 22.6383 34.7178 21.9383C37.8178 21.2383 41.2178 20.9383 44.7178 21.0383C48.2178 21.1383 51.8178 21.7383 55.3178 22.6383C58.8178 23.5383 62.3178 25.1383 65.5178 26.9383C65.8178 27.1383 66.0178 27.2383 66.3178 27.4383C66.3178 27.5383 66.2178 27.6383 66.2178 27.6383C66.0178 28.0383 65.8178 28.4383 65.6178 28.7383C65.0178 29.8383 64.5178 30.9383 63.8178 31.9383C63.2178 33.0383 62.5178 34.0383 61.8178 34.9383C61.6178 35.2383 61.3178 35.5383 61.1178 35.8383C60.9178 36.1383 60.6178 36.3383 60.4178 36.6383C60.1178 36.9383 59.8178 37.2383 59.6178 37.6383L58.9178 38.4383L56.6178 40.7383C56.3178 41.0383 56.0178 41.3383 55.6178 41.6383C55.4178 41.8383 55.2178 41.9383 55.1178 42.1383C54.9178 42.3383 54.8178 42.4383 54.6178 42.6383C54.3178 42.9383 54.0178 43.1383 53.7178 43.3383L51.2178 45.2383C51.0178 45.4383 50.7178 45.5383 50.5178 45.6383C50.4178 45.7383 50.3178 45.8383 50.1178 45.8383C48.8178 46.6383 48.1178 47.2383 48.1178 47.2383C47.9178 47.3383 47.8178 47.6383 47.9178 47.8383C48.0178 48.0383 48.2178 48.1383 48.3178 48.1383C48.3178 48.1383 48.4178 48.1383 48.5178 48.1383C48.5178 48.1383 49.4178 47.8383 50.8178 47.3383L51.2178 47.2383C51.5178 47.1383 51.7178 47.0383 52.1178 46.9383L55.0178 45.4383C55.4178 45.2383 55.7178 45.0383 56.1178 44.7383C56.3178 44.6383 56.5178 44.5383 56.7178 44.3383C56.9178 44.2383 57.1178 44.0383 57.3178 43.9383C57.7178 43.7383 58.1178 43.4383 58.5178 43.1383L61.2178 40.9383L62.1178 40.1383C62.7178 39.5383 63.3178 38.9383 63.9178 38.3383C64.2178 37.9383 64.5178 37.6383 64.8178 37.2383C65.6178 36.2383 66.4178 35.2383 67.1178 34.1383C67.8178 32.8383 68.5178 31.5383 69.2178 30.2383Z" fill="#FAA41A"/>
<path d="M84.9178 16.0379C84.2178 15.1379 83.2178 14.5379 82.1178 14.4379C81.0178 14.3379 79.9178 14.6379 79.0178 15.2379C77.2178 16.6379 76.8178 19.3379 78.2178 21.1379C79.0178 22.2379 80.3178 22.8379 81.6178 22.8379C82.5178 22.8379 83.4178 22.5379 84.2178 21.9379C85.1178 21.2379 85.7178 20.2379 85.8178 19.1379C85.9178 18.0379 85.6178 16.9379 84.9178 16.0379Z" fill="#FAA41A"/>
<path d="M102.018 41.2387C101.218 38.1387 100.218 35.1387 98.9181 32.3387C98.1181 30.6387 97.4181 29.2387 96.6181 28.0387C96.1181 27.2387 95.7181 26.5387 95.2181 25.8387L94.7181 25.1387V25.7387C94.7181 25.9387 94.7181 26.0387 94.7181 26.1387C94.7181 26.4387 94.7181 26.7387 94.7181 26.9387L94.6181 28.6387C94.5181 29.3387 94.5181 30.1387 94.4181 30.8387C94.3181 31.1387 94.3181 31.4387 94.2181 31.7387C93.9181 33.2387 93.6181 34.7387 93.1181 36.2387V36.7387C94.0181 38.7387 94.9181 40.8387 95.5181 43.0387C97.0181 47.9387 97.8181 53.1387 97.8181 58.0387C97.9181 62.1387 97.5181 66.5387 96.5181 70.9387C95.7181 74.2387 94.6181 77.4387 93.1181 80.4387C92.0181 82.7387 90.8181 84.5387 89.8181 86.0387C88.9181 87.2387 88.4181 87.9387 88.4181 87.9387C88.2181 88.2387 88.2181 88.6387 88.4181 88.9387C88.6181 89.1387 88.8181 89.2387 89.0181 89.2387C89.2181 89.2387 89.4181 89.1387 89.5181 89.0387C89.5181 89.0387 90.1181 88.4387 91.3181 87.3387C92.9181 85.8387 94.4181 83.9387 95.8181 81.9387C97.9181 78.8387 99.5181 75.6387 100.718 72.1387C102.218 67.9387 103.218 63.1387 103.518 58.1387C103.818 52.1387 103.318 46.4387 102.018 41.2387Z" fill="#FAA41A"/>
<path d="M64.1178 13.7381C65.1178 13.0381 65.7178 11.9381 65.9178 10.7381C66.1178 9.53809 65.7178 8.33809 65.0178 7.33809C64.3178 6.33809 63.2178 5.73809 62.0178 5.53809C61.8178 5.53809 61.6178 5.53809 61.4178 5.53809C60.4178 5.53809 59.4178 5.83809 58.6178 6.43809C56.6178 7.93809 56.2178 10.8381 57.8178 12.8381C59.2178 14.8381 62.1178 15.2381 64.1178 13.7381Z" fill="#FAA41A"/>
<path d="M86.318 113.439V110.839L90.018 110.539C92.418 110.339 92.918 109.339 92.018 107.239C90.718 103.439 87.818 95.2387 86.818 92.5387H69.118C67.318 98.1387 65.718 102.639 64.418 107.439C63.718 109.439 64.018 110.239 66.318 110.539L70.418 110.939V113.539H52.918V110.939C57.918 110.639 58.618 109.739 60.318 105.539C66.018 90.7387 71.718 73.9387 77.118 58.6387H83.518C88.018 71.6387 96.118 94.6387 100.318 106.239C101.718 110.239 102.618 110.539 107.118 110.939V113.539H86.318V113.439ZM78.118 66.7387H77.818C75.418 73.5387 72.618 81.7387 70.218 89.5387H85.818C84.018 83.8387 79.918 71.9387 78.118 66.7387Z" fill="#0078BF"/>
<path d="M215.218 113.438V110.838L218.918 110.538C221.318 110.338 221.818 109.338 220.918 107.238C219.618 103.438 216.718 95.2383 215.718 92.5383H198.018C196.218 98.1383 194.618 102.638 193.318 107.438C192.618 109.438 192.918 110.238 195.218 110.538L199.318 110.938V113.538H181.818V110.938C186.818 110.638 187.518 109.738 189.218 105.538C194.918 90.7383 200.618 73.9383 206.018 58.7383H212.418C216.918 71.7383 225.018 94.7383 229.218 106.338C230.618 110.338 231.518 110.638 236.018 111.038V113.638H215.218V113.438ZM207.018 66.7383H206.718C204.318 73.5383 201.518 81.7383 199.118 89.5383H214.718C213.018 83.8383 208.918 71.9383 207.018 66.7383Z" fill="#0078BF"/>
</svg>
