<svg width="336" height="116" viewBox="0 0 336 116" fill="none" xmlns="http://www.w3.org/2000/svg">
<g clip-path="url(#clip0_202_53)">
<mask id="mask0_202_53" style="mask-type:luminance" maskUnits="userSpaceOnUse" x="0" y="0" width="336" height="116">
<path d="M335.196 0.488281H0.311035V115.488H335.196V0.488281Z" fill="white"/>
</mask>
<g mask="url(#mask0_202_53)">
<path d="M144.373 48.7406H127.955L130.392 37.1088H144.964L146.267 30.5658H131.763L133.913 20.3541H150.144L151.396 13.8281H126.957L118.224 55.2836H142.967L144.389 48.7575L144.373 48.7406ZM0.311035 55.2836H25.0546L26.4763 48.7575H10.0595L12.4966 37.1257H27.0687L28.3718 30.5827H13.8675L16 20.371H32.2305L33.4831 13.845H9.04406L0.311035 55.2836ZM115.381 13.8281H106.698L97.9653 55.2836H106.648L115.397 13.8281H115.381Z" fill="#004A99"/>
<path d="M98.3714 0.488281H45.0593L31.4351 63.5675L31.5027 63.2463C41.1328 68.183 48.6811 76.5519 52.5399 86.7468C58.4465 86.9327 64.0654 88.3022 69.1428 90.6522C72.4262 85.9352 76.6234 81.8945 81.4638 78.7836M80.1268 84.9546C77.3851 87.1863 74.9479 89.7899 72.8832 92.6641C74.5756 93.6616 76.2173 94.7606 77.7405 95.9778M64.0654 13.8277H73.2893L80.8377 55.2832H72.5108L71.0892 45.7816H53.42L48.1227 55.2832H38.8988L64.0485 13.8277H64.0654Z" fill="#77B82B"/>
<path d="M20.2144 115.488H48.6982C50.2214 111.295 51.1015 106.781 51.1015 102.064C51.1015 97.3473 50.2891 93.0022 48.8336 88.877C39.102 89.4687 30.3182 93.5095 23.6162 99.7649" fill="#77B82B"/>
<path d="M24.3608 96.265C30.9106 90.9225 39.0681 87.5072 48.0042 86.831C44.5347 78.6143 38.3574 71.784 30.572 67.5234" fill="#77B82B"/>
<path d="M67.3317 21.1826H67.0948L57.1094 39.2391H69.9551L67.3317 21.1826Z" fill="#77B82B"/>
<path d="M53.2679 88.8936C54.588 93.0525 55.3327 97.4653 55.3327 102.064C55.3327 106.663 54.571 111.244 53.2002 115.488H61.29C61.29 107.018 63.7273 99.1221 67.9244 92.444C63.4225 90.3982 58.4637 89.164 53.251 88.8936H53.2679Z" fill="#77B82B"/>
<path d="M77.2499 98.2776C75.5237 96.8236 73.6789 95.5217 71.7156 94.3721C67.823 100.475 65.5552 107.712 65.5552 115.489H73.5266" fill="#77B82B"/>
<path d="M98.1517 77.7012H108.103V79.8145H100.504V83.2973H107.24V85.4107H100.504V89.0119H108.188V91.1252H98.1348V77.7181L98.1517 77.7012Z" fill="#004A99"/>
<path d="M108.289 91.1933H98.1515L98.0669 77.7017L108.103 77.6172L108.188 79.8151L100.504 79.8996L100.589 83.2978L107.24 83.2133L107.325 85.4112L100.504 85.4957L100.589 89.0123L108.205 88.9278L108.289 91.2102V91.1933ZM108.018 77.7017L98.1515 77.7862L98.2361 91.1257L108.12 91.0411V89.0123L100.504 89.0968L100.419 85.4112L107.24 85.3267L107.155 83.2978L100.504 83.3824L100.419 79.8151L108.103 79.7305L108.018 77.7017Z" fill="#004A99"/>
<path d="M110.422 87.4398V80.9983H112.741V86.7467C112.741 88.319 113.519 89.2151 114.907 89.2151C116.295 89.2151 117.192 88.2683 117.192 86.696V80.9814H119.51V91.1087H117.192V89.5363C116.532 90.5 115.601 91.3115 114.027 91.3115C111.742 91.3115 110.422 89.773 110.422 87.4229V87.4398Z" fill="#004A99"/>
<path d="M114.027 91.4134C111.759 91.4134 110.337 89.8918 110.337 87.4404V80.9989L112.741 80.9144L112.825 86.7472C112.825 88.2687 113.587 89.131 114.907 89.131C116.227 89.131 117.108 88.1842 117.108 86.6965V80.982L119.51 80.8975L119.595 91.1091L117.192 91.1936L117.108 89.5367C116.431 90.8048 115.364 91.3965 114.027 91.3965V91.4134ZM112.656 80.9989L110.422 81.0834L110.507 87.4404C110.507 89.7904 111.861 91.2444 114.027 91.2444C115.33 91.2444 116.312 90.6865 117.124 89.5029L117.277 91.126L119.51 91.0415L119.426 80.9989L117.192 81.0834L117.277 86.7134C117.277 88.2856 116.346 89.317 114.907 89.317C113.468 89.317 112.656 88.3871 112.656 86.7641V81.0158V80.9989Z" fill="#004A99"/>
<path d="M122.235 80.9985H124.553V83.2809C125.18 81.7761 126.364 80.7279 128.142 80.8124V83.264H128.006C125.975 83.264 124.553 84.5827 124.553 87.2708V91.1256H122.235V80.9985Z" fill="#004A99"/>
<path d="M124.639 91.1932H122.235L122.15 80.9814L124.554 80.8969L124.639 83.2638C124.96 82.0804 125.958 80.7109 127.955 80.7109H128.142L128.226 83.3315H128.006C125.857 83.3315 124.639 84.7686 124.639 87.2539V91.1932ZM124.47 80.9814L122.235 81.0659L122.319 91.1087L124.47 91.0241V87.2539C124.47 84.701 125.789 83.1624 128.006 83.1624L128.057 80.7955L127.955 80.88C126.043 80.88 125.095 82.1987 124.622 83.2976L124.452 80.9814H124.47Z" fill="#004A99"/>
<path d="M129.056 86.104V86.0702C129.056 83.1792 131.357 80.7783 134.471 80.7783C137.585 80.7783 139.87 83.1283 139.87 86.0194V86.0533C139.87 88.9274 137.569 91.3282 134.438 91.3282C131.306 91.3282 129.072 88.9782 129.072 86.104H129.056ZM137.534 86.104V86.0702C137.534 84.295 136.248 82.8071 134.438 82.8071C132.627 82.8071 131.391 84.2612 131.391 86.0194V86.0533C131.391 87.8116 132.677 89.3163 134.471 89.3163C136.266 89.3163 137.534 87.8454 137.534 86.104Z" fill="#004A99"/>
<path d="M134.438 91.4298C131.374 91.4298 128.988 89.0967 128.988 86.1211C128.988 83.1455 131.408 80.7109 134.488 80.7109C137.569 80.7109 139.971 83.061 139.971 86.0366C139.971 89.0122 137.552 91.4298 134.454 91.4298H134.438ZM134.471 80.8631C131.493 80.8631 129.14 83.1455 129.14 86.0704C129.14 88.9953 131.458 91.2608 134.42 91.2608C137.382 91.2608 139.769 88.9784 139.769 86.0704C139.769 83.1624 137.433 80.8631 134.454 80.8631H134.471ZM134.471 89.401C132.695 89.401 131.306 87.9302 131.306 86.0535C131.306 84.1768 132.627 82.706 134.438 82.706C136.248 82.706 137.62 84.143 137.62 86.0535C137.62 87.964 136.299 89.401 134.471 89.401ZM134.438 82.8919C132.711 82.8919 131.476 84.2106 131.476 86.0197C131.476 87.8287 132.796 89.232 134.471 89.232C136.147 89.232 137.45 87.9133 137.45 86.1042C137.45 84.2951 136.147 82.8919 134.42 82.8919H134.438Z" fill="#004A99"/>
<path d="M142.02 80.9988H144.338V82.6895C145.083 81.6413 146.149 80.7959 147.774 80.7959C150.177 80.7959 152.495 82.6895 152.495 86.037V86.0708C152.495 89.4184 150.194 91.312 147.774 91.312C146.098 91.312 145.049 90.4666 144.338 89.5367V94.1691H142.02V80.9819V80.9988ZM150.144 86.0708V86.037C150.144 84.0758 148.823 82.7909 147.249 82.7909C145.676 82.7909 144.287 84.0927 144.287 86.037V86.0708C144.287 88.0319 145.676 89.3169 147.249 89.3169C148.823 89.3169 150.144 88.0659 150.144 86.0708Z" fill="#004A99"/>
<path d="M144.423 94.2702H142.02L141.936 80.9983L144.338 80.9138L144.423 82.689C145.202 81.3365 146.335 80.7109 147.774 80.7109C150.161 80.7109 152.581 82.5369 152.581 86.0366C152.581 89.5363 150.161 91.413 147.774 91.413C146.335 91.413 145.202 90.8212 144.271 89.6039L144.423 94.2702ZM144.254 80.9983L142.02 81.0828L142.105 94.1857L144.254 94.1011V89.5532C145.303 90.6859 146.403 91.2439 147.774 91.2439C150.076 91.2439 152.411 89.4686 152.411 86.0704C152.411 82.6721 150.076 80.8631 147.774 80.8631C146.403 80.8631 145.303 81.4718 144.406 82.7229L144.254 80.9814V80.9983ZM147.232 89.401C145.507 89.401 144.186 87.9809 144.186 86.0704C144.186 84.1599 145.523 82.706 147.232 82.706C148.942 82.706 150.212 84.1261 150.212 86.0366C150.212 87.9471 148.959 89.401 147.232 89.401ZM147.232 82.8919C145.591 82.8919 144.355 84.2444 144.355 86.0535C144.355 87.8626 145.591 89.2489 147.232 89.2489C148.874 89.2489 150.042 87.9302 150.042 86.0873C150.042 84.2444 148.84 82.8919 147.232 82.8919Z" fill="#004A99"/>
<path d="M154.121 86.0871V86.0533C154.121 83.1623 156.169 80.7783 159.063 80.7783C162.279 80.7783 163.92 83.3144 163.92 86.2223C163.92 86.4253 163.903 86.645 163.886 86.8648H156.44C156.693 88.5216 157.861 89.4346 159.35 89.4346C160.484 89.4346 161.297 89.012 162.092 88.2342L163.463 89.4346C162.498 90.5843 161.178 91.3282 159.316 91.3282C156.389 91.3282 154.121 89.1979 154.121 86.0702V86.0871ZM161.618 85.3432C161.466 83.8554 160.586 82.6719 159.046 82.6719C157.624 82.6719 156.625 83.7708 156.422 85.3432H161.618Z" fill="#004A99"/>
<path d="M159.316 91.4302C156.253 91.4302 154.036 89.1816 154.036 86.0876C154.036 82.9936 156.202 80.6943 159.063 80.6943C162.481 80.6943 164.004 83.467 164.004 86.2228C164.004 86.4257 164.004 86.6117 163.971 86.8315L156.439 86.9668C156.761 88.4038 157.844 89.3675 159.35 89.3675C160.382 89.3675 161.178 89.0125 162.024 88.1841L163.496 89.3844C162.447 90.7877 161.026 91.4302 159.299 91.4302H159.316ZM159.063 80.8634C156.286 80.8634 154.205 83.0951 154.205 86.0538C154.205 89.0125 156.354 91.2611 159.316 91.2611C160.992 91.2611 162.362 90.6355 163.395 89.4013L162.041 88.3193C161.279 89.1816 160.433 89.5535 159.35 89.5535C157.743 89.5535 156.591 88.5391 156.354 86.9161L163.885 86.8146C163.819 86.6286 163.835 86.4426 163.835 86.2567C163.835 83.5854 162.362 80.8972 159.063 80.8972V80.8634ZM156.405 85.4282C156.541 83.67 157.607 82.6048 159.028 82.6048C160.45 82.6048 161.516 83.6531 161.685 85.3437L156.405 85.4282ZM159.028 82.757C157.692 82.757 156.693 83.7714 156.49 85.3437L161.601 85.2422C161.347 83.7376 160.399 82.7401 159.028 82.7401V82.757Z" fill="#004A99"/>
<path d="M172.264 91.1085V89.8574C171.57 90.6858 170.521 91.3113 168.981 91.3113C167.067 91.3113 165.375 90.2124 165.375 88.1836V88.1498C165.375 85.9012 167.119 84.836 169.488 84.836C170.723 84.836 171.502 85.0051 172.281 85.2587V85.0727C172.281 83.6695 171.4 82.9086 169.792 82.9086C168.658 82.9086 167.812 83.1622 166.898 83.5342L166.272 81.6745C167.39 81.1842 168.473 80.8291 170.131 80.8291C173.127 80.8291 174.582 82.4015 174.582 85.1065V91.1085H172.281H172.264ZM172.332 86.8649C171.739 86.6282 170.91 86.459 170.013 86.459C168.557 86.459 167.694 87.0508 167.694 88.0314V88.0652C167.694 89.0289 168.557 89.553 169.657 89.553C171.198 89.553 172.348 88.6908 172.348 87.4227V86.848L172.332 86.8649Z" fill="#004A99"/>
<path d="M168.981 91.4127C167.203 91.4127 165.291 90.4152 165.291 88.2004C165.291 85.9856 166.865 84.7684 169.488 84.7684C170.724 84.7684 171.502 84.9374 172.315 85.191L172.213 85.0895C172.213 83.7201 171.383 83.01 169.809 83.01C168.676 83.01 167.847 83.2637 166.95 83.6356L166.205 81.7251C167.39 81.1165 168.489 80.7783 170.131 80.7783C173.093 80.7783 174.666 82.2831 174.666 85.1403V91.1422L172.281 91.2268L172.196 89.8911C171.536 90.9225 170.368 91.4296 168.997 91.4296L168.981 91.4127ZM169.488 84.9374C166.966 84.9374 165.46 86.1378 165.46 88.1666C165.46 90.2969 167.22 91.2437 168.981 91.2437C170.3 91.2437 171.418 90.7534 172.196 89.8235L172.348 91.1253L174.565 91.0408L174.481 85.1234C174.481 82.3845 172.974 80.9305 170.115 80.9305C168.489 80.9305 167.406 81.2687 166.289 81.7589L166.966 83.5173C167.779 83.0776 168.625 82.8241 169.792 82.8241C171.451 82.8241 172.365 83.6187 172.365 85.0726V85.2586C171.468 85.0896 170.69 84.9205 169.488 84.9205V84.9374ZM169.64 89.6714C168.422 89.6714 167.592 89.0458 167.592 88.099C167.592 87.017 168.489 86.4083 169.996 86.4083C170.825 86.4083 171.671 86.5605 172.348 86.8141L172.399 87.4734C172.399 88.7584 171.231 89.6883 169.623 89.6883L169.64 89.6714ZM169.996 86.5605C168.592 86.5605 167.761 87.1184 167.761 88.0483C167.761 89.0627 168.71 89.5022 169.64 89.5022C171.147 89.5022 172.247 88.6401 172.247 87.4565V86.8817C171.655 86.7127 170.808 86.5605 170.013 86.5605H169.996Z" fill="#004A99"/>
<path d="M177.121 80.9988H179.439V82.571C180.1 81.6075 181.03 80.7959 182.604 80.7959C184.889 80.7959 186.209 82.3344 186.209 84.6844V91.1259H183.891V85.3776C183.891 83.8053 183.113 82.9093 181.724 82.9093C180.336 82.9093 179.439 83.8561 179.439 85.4283V91.1428H177.121V81.0157V80.9988Z" fill="#004A99"/>
<path d="M186.311 91.1932H183.907L183.823 85.3603C183.823 83.8387 183.061 82.9764 181.742 82.9764C180.421 82.9764 179.54 83.9232 179.54 85.411V91.1256L177.138 91.2101L177.053 80.9983L179.456 80.9138L179.54 82.5707C180.235 81.2858 181.267 80.7109 182.621 80.7109C184.889 80.7109 186.311 82.2325 186.311 84.6841V91.2101V91.1932ZM181.742 82.8074C183.179 82.8074 183.992 83.7373 183.992 85.3603V91.1087L186.141 91.0241V84.6672C186.141 82.3171 184.788 80.8631 182.621 80.8631C181.318 80.8631 180.336 81.4211 179.524 82.6045L179.371 80.9814L177.138 81.0659L177.222 91.1087L179.456 91.0241L179.371 85.3941C179.371 83.8218 180.303 82.7905 181.742 82.7905V82.8074Z" fill="#004A99"/>
<path d="M199.41 77.6006H201.594L207.5 91.1092H205.012L203.641 87.8631H197.295L195.907 91.1092H193.486L199.393 77.6006H199.41ZM202.795 85.7835L200.476 80.4241L198.175 85.7835H202.795Z" fill="#004A99"/>
<path d="M207.636 91.1932H205.012L203.574 87.8963L197.295 87.947L195.991 91.1424L193.503 91.1932L199.342 77.5663L201.61 77.5156L207.653 91.1932H207.636ZM201.526 77.634L199.41 77.6847L193.571 91.1424L195.907 91.0241L197.21 87.8287L203.642 87.778L205.08 91.0748L207.365 91.0241L201.509 77.634H201.526ZM198.175 85.8676L200.476 80.2038L202.88 85.7492L198.175 85.8676ZM200.476 80.6265L198.243 85.8169L202.796 85.6985L200.476 80.6265Z" fill="#004A99"/>
<path d="M208.517 89.79L209.548 88.2177C210.649 89.0462 211.833 89.4688 212.866 89.4688C213.898 89.4688 214.44 89.0462 214.44 88.3698V88.336C214.44 87.5583 213.356 87.2878 212.172 86.9159C210.682 86.4932 209.007 85.8846 209.007 83.9403V83.9065C209.007 81.996 210.598 80.8125 212.611 80.8125C213.881 80.8125 215.27 81.252 216.336 81.9622L215.422 83.6191C214.44 83.0273 213.407 82.6554 212.561 82.6554C211.664 82.6554 211.139 83.078 211.139 83.6698V83.7036C211.139 84.4305 212.24 84.7349 213.424 85.1237C214.897 85.5803 216.573 86.2565 216.573 88.0825V88.1163C216.573 90.2465 214.914 91.2947 212.815 91.2947C211.376 91.2947 209.785 90.7706 208.517 89.7731V89.79Z" fill="#004A99"/>
<path d="M212.815 91.396C211.292 91.396 209.701 90.8381 208.465 89.8576L209.481 88.1668C210.649 88.9446 211.816 89.3672 212.866 89.3672C213.796 89.3672 214.356 88.9953 214.356 88.3528C214.356 87.6428 213.442 87.3722 212.392 87.051L212.154 86.9834C210.598 86.5437 208.922 85.9013 208.922 83.9232C208.922 81.9451 210.446 80.7109 212.611 80.7109C213.864 80.7109 215.268 81.1505 216.386 81.8775L215.489 83.6358C213.255 82.4862 211.224 82.52 211.224 83.6358C211.224 84.2951 212.172 84.5995 213.255 84.9545L213.458 85.0222C215.116 85.5463 216.657 86.2732 216.657 88.0485C216.657 90.0942 215.184 91.3453 212.815 91.3453V91.396ZM209.497 88.3021L208.583 89.8576C209.768 90.7028 211.326 91.2439 212.815 91.2439C215.083 91.2439 216.488 90.0604 216.488 88.1499C216.488 86.3578 214.897 85.6985 213.407 85.2419L213.204 85.1743C212.053 84.8024 211.055 84.4812 211.055 83.7373C211.055 82.3848 213.306 82.2664 215.455 83.5682L216.25 81.9451C215.202 81.3534 213.831 80.9138 212.595 80.9138C210.513 80.9138 209.075 82.148 209.075 83.9232C209.075 85.8168 210.682 86.4254 212.172 86.8481L212.409 86.9158C213.526 87.2539 214.49 87.5412 214.49 88.3359C214.49 89.1305 213.864 89.5532 212.831 89.5532C211.732 89.5532 210.547 89.1136 209.464 88.2852L209.497 88.3021Z" fill="#004A99"/>
<path d="M217.723 89.79L218.755 88.2177C219.856 89.0462 221.04 89.4688 222.072 89.4688C223.105 89.4688 223.647 89.0462 223.647 88.3698V88.336C223.647 87.5583 222.581 87.2878 221.379 86.9159C219.889 86.4932 218.214 85.8846 218.214 83.9403V83.9065C218.214 81.996 219.804 80.8125 221.819 80.8125C223.088 80.8125 224.476 81.252 225.542 81.9622L224.628 83.6191C223.647 83.0273 222.614 82.6554 221.768 82.6554C220.871 82.6554 220.346 83.078 220.346 83.6698V83.7036C220.346 84.4305 221.447 84.7349 222.631 85.1237C224.104 85.5803 225.779 86.2565 225.779 88.0825V88.1163C225.779 90.2465 224.12 91.2947 222.021 91.2947C220.583 91.2947 218.992 90.7706 217.723 89.7731V89.79Z" fill="#004A99"/>
<path d="M222.005 91.396C220.482 91.396 218.891 90.8381 217.655 89.8576L218.67 88.1668C219.839 88.9446 221.006 89.3672 222.056 89.3672C222.986 89.3672 223.544 88.9953 223.544 88.3528C223.544 87.6428 222.631 87.3722 221.582 87.051L221.344 86.9834C219.788 86.5437 218.112 85.9013 218.112 83.9232C218.112 81.9451 219.635 80.7109 221.801 80.7109C223.054 80.7109 224.458 81.1505 225.576 81.8775L224.679 83.6358C222.445 82.4862 220.414 82.5369 220.414 83.6358C220.414 84.2951 221.362 84.5995 222.445 84.9545L222.648 85.0222C224.306 85.5463 225.847 86.2732 225.847 88.0485C225.847 90.0942 224.374 91.3453 222.005 91.3453V91.396ZM218.687 88.3021L217.773 89.8576C218.958 90.7028 220.516 91.2439 222.005 91.2439C224.273 91.2439 225.678 90.0604 225.678 88.1499C225.678 86.3578 224.087 85.6985 222.597 85.2419L222.394 85.1743C221.243 84.8024 220.245 84.4812 220.245 83.7373C220.245 82.3848 222.496 82.2664 224.645 83.5682L225.44 81.9451C224.392 81.3534 223.021 80.9138 221.785 80.9138C219.703 80.9138 218.265 82.148 218.265 83.9232C218.265 85.8168 219.872 86.4254 221.362 86.8481L221.599 86.9158C222.715 87.2539 223.68 87.5412 223.68 88.3359C223.68 89.1305 223.054 89.5532 222.021 89.5532C220.938 89.5532 219.737 89.1136 218.654 88.2852L218.687 88.3021Z" fill="#004A99"/>
<path d="M227.37 86.104V86.0702C227.37 83.1792 229.671 80.7783 232.786 80.7783C235.9 80.7783 238.184 83.1283 238.184 86.0194V86.0533C238.184 88.9274 235.883 91.3282 232.752 91.3282C229.62 91.3282 227.387 88.9782 227.387 86.104H227.37ZM235.849 86.104V86.0702C235.849 84.295 234.562 82.8071 232.734 82.8071C230.907 82.8071 229.688 84.2612 229.688 86.0194V86.0533C229.688 87.8116 230.975 89.3163 232.786 89.3163C234.597 89.3163 235.849 87.8454 235.849 86.104Z" fill="#004A99"/>
<path d="M232.752 91.4298C229.688 91.4298 227.302 89.0967 227.302 86.1211C227.302 83.1455 229.723 80.7109 232.802 80.7109C235.883 80.7109 238.287 83.061 238.287 86.0366C238.287 89.0122 235.866 91.4298 232.769 91.4298H232.752ZM232.786 80.8631C229.807 80.8631 227.455 83.1455 227.455 86.0704C227.455 88.9953 229.773 91.2608 232.734 91.2608C235.696 91.2608 238.083 88.9784 238.083 86.0704C238.083 83.1624 235.747 80.8631 232.769 80.8631H232.786ZM232.786 89.401C231.009 89.401 229.62 87.9302 229.62 86.0535C229.62 84.1768 230.941 82.706 232.752 82.706C234.562 82.706 235.951 84.143 235.951 86.0535C235.951 87.964 234.63 89.401 232.802 89.401H232.786ZM232.752 82.8919C231.026 82.8919 229.79 84.2106 229.79 86.0197C229.79 87.8287 231.11 89.232 232.802 89.232C234.494 89.232 235.782 87.9133 235.782 86.1042C235.782 84.2951 234.478 82.8919 232.752 82.8919Z" fill="#004A99"/>
<path d="M239.775 86.104V86.0702C239.775 83.1961 241.992 80.7783 245.039 80.7783C246.952 80.7783 248.153 81.4884 249.084 82.5198L247.646 84.0751C246.934 83.3313 246.189 82.8071 245.022 82.8071C243.33 82.8071 242.111 84.2612 242.111 86.0194V86.0533C242.111 87.8454 243.363 89.3163 245.141 89.3163C246.24 89.3163 247.036 88.7922 247.764 88.0483L249.169 89.4346C248.169 90.5504 247.002 91.3282 245.022 91.3282C242.009 91.3282 239.792 88.9782 239.792 86.104H239.775Z" fill="#004A99"/>
<path d="M245.022 91.4298C242.043 91.4298 239.708 89.0967 239.708 86.1211C239.708 83.1455 242.06 80.7109 245.055 80.7109C246.782 80.7109 248.051 81.252 249.169 82.4862L247.73 84.1599C247.002 83.5175 246.257 82.9257 245.039 82.9257C243.448 82.9257 242.212 84.2951 242.212 86.0535C242.212 87.8964 243.482 89.2658 245.158 89.2658C246.088 89.2658 246.883 88.877 247.73 88.0316L249.253 89.4179C248.406 90.4831 247.239 91.4637 245.055 91.4637L245.022 91.4298ZM245.039 80.8631C242.145 80.8631 239.86 83.1455 239.86 86.0704C239.86 88.9953 242.128 91.2608 245.005 91.2608C247.121 91.2608 248.255 90.314 249.083 89.401L247.679 88.133C246.934 89.0291 246.105 89.4179 245.106 89.4179C243.33 89.4179 241.992 87.9809 241.992 86.0704C241.992 84.1599 243.312 82.7229 244.989 82.7229C246.274 82.7229 247.035 83.3485 247.679 84.0247L248.999 82.4693C247.916 81.4042 246.697 80.8631 245.022 80.8631H245.039Z" fill="#004A99"/>
<path d="M251.132 77.2285H253.62V79.4264H251.132V77.2285ZM251.233 80.9819H253.552V91.109H251.233V80.9819Z" fill="#004A99"/>
<path d="M253.636 91.1931H251.233L251.149 80.9813L253.551 80.8968L253.636 91.1762V91.1931ZM253.467 80.9813L251.233 81.0659L251.318 91.1086L253.467 91.0241V80.9813ZM253.72 79.5105H251.149L251.063 77.2281L253.636 77.1436L253.72 79.5105ZM253.551 77.2281L251.149 77.3126L251.233 79.426L253.551 79.3414V77.2281Z" fill="#004A99"/>
<path d="M262.572 91.1085V89.8574C261.879 90.6858 260.829 91.3113 259.289 91.3113C257.377 91.3113 255.685 90.2124 255.685 88.1836V88.1498C255.685 85.9012 257.427 84.836 259.797 84.836C261.032 84.836 261.811 85.0051 262.607 85.2587V85.0727C262.607 83.6695 261.726 82.9086 260.119 82.9086C258.985 82.9086 258.139 83.1622 257.225 83.5342L256.599 81.6745C257.715 81.1842 258.799 80.8291 260.457 80.8291C263.453 80.8291 264.908 82.4015 264.908 85.1065V91.1085H262.607H262.572ZM262.623 86.8649C262.031 86.6282 261.201 86.459 260.304 86.459C258.849 86.459 257.986 87.0508 257.986 88.0314V88.0652C257.986 89.0289 258.849 89.553 259.95 89.553C261.489 89.553 262.64 88.6908 262.64 87.4227V86.848L262.623 86.8649Z" fill="#004A99"/>
<path d="M259.306 91.4127C257.529 91.4127 255.617 90.4152 255.617 88.2004C255.617 85.9856 257.19 84.7684 259.814 84.7684C261.049 84.7684 261.829 84.9374 262.64 85.191L262.539 85.0895C262.539 83.7201 261.71 83.01 260.135 83.01C259.001 83.01 258.172 83.2637 257.276 83.6356L256.531 81.7251C257.715 81.1165 258.816 80.7783 260.474 80.7783C263.436 80.7783 265.009 82.2831 265.009 85.1403V91.1422L262.624 91.2268L262.539 89.8911C261.879 90.9225 260.711 91.4296 259.34 91.4296L259.306 91.4127ZM259.797 84.9374C257.276 84.9374 255.769 86.1378 255.769 88.1666C255.769 90.2969 257.546 91.2437 259.289 91.2437C260.627 91.2437 261.71 90.7703 262.506 89.8235L262.657 91.1253L264.875 91.0408L264.789 85.1234C264.789 82.3845 263.284 80.9305 260.423 80.9305C258.799 80.9305 257.715 81.2687 256.599 81.7589L257.276 83.5173C258.087 83.0776 258.934 82.8241 260.085 82.8241C261.743 82.8241 262.657 83.6187 262.657 85.0726V85.2586C261.761 85.0896 260.981 84.9205 259.763 84.9205L259.797 84.9374ZM259.95 89.6714C258.731 89.6714 257.902 89.0458 257.902 88.099C257.902 87.017 258.799 86.4083 260.304 86.4083C261.134 86.4083 261.981 86.5605 262.657 86.8141L262.708 87.4734C262.708 88.7584 261.541 89.6883 259.933 89.6883L259.95 89.6714ZM260.322 86.5605C258.917 86.5605 258.087 87.1184 258.087 88.0483C258.087 89.0627 259.036 89.5022 259.966 89.5022C261.473 89.5022 262.572 88.6401 262.572 87.4565V86.8817C261.981 86.7127 261.134 86.5605 260.339 86.5605H260.322Z" fill="#004A99"/>
<path d="M267.837 88.319V82.9934H266.55V80.9983H267.837V78.2256H270.155V80.9983H272.88V82.9934H270.155V87.9639C270.155 88.86 270.612 89.232 271.408 89.232C271.932 89.232 272.389 89.1136 272.846 88.8769V90.7705C272.27 91.0917 271.61 91.2945 270.747 91.2945C269.038 91.2945 267.837 90.5507 267.837 88.319Z" fill="#004A99"/>
<path d="M270.747 91.3621C268.75 91.3621 267.752 90.3308 267.752 88.302V82.9763L266.55 83.0609L266.466 80.9813L267.837 80.8968L267.752 78.2086L270.155 78.124L270.239 80.9813L272.88 80.8968L272.964 82.9763L270.155 83.0609L270.239 87.9469C270.239 88.7584 270.612 89.1304 271.408 89.1304C271.898 89.1304 272.338 89.0289 272.812 88.7922L272.931 90.7703C272.254 91.2099 271.577 91.379 270.747 91.379V91.3621ZM267.837 82.8918L267.921 88.302C267.921 90.2463 268.852 91.193 270.747 91.193C271.527 91.193 272.186 91.0239 272.795 90.6858L272.744 88.8599C272.389 89.1812 271.916 89.2826 271.391 89.2826C270.51 89.2826 270.054 88.826 270.054 87.93V82.9594L272.863 82.8749L272.778 80.9644L270.138 81.0489L270.054 78.1916L267.82 78.2763L267.904 80.9644L266.534 81.0489L266.618 82.9594L267.82 82.8749L267.837 82.8918Z" fill="#004A99"/>
<path d="M275.063 77.2285H277.551V79.4264H275.063V77.2285ZM275.164 80.9819H277.483V91.109H275.164V80.9819Z" fill="#004A99"/>
<path d="M277.568 91.1931H275.164L275.08 80.9813L277.483 80.8968L277.568 91.1762V91.1931ZM277.399 80.9813L275.164 81.0659L275.25 91.1086L277.399 91.0241V80.9813ZM277.636 79.5105H275.063L274.979 77.2281L277.551 77.1436L277.636 79.5105ZM277.467 77.2281L275.063 77.3126L275.148 79.426L277.467 79.3414V77.2281Z" fill="#004A99"/>
<path d="M279.75 86.104V86.0702C279.75 83.1792 282.053 80.7783 285.167 80.7783C288.281 80.7783 290.549 83.1283 290.549 86.0194V86.0533C290.549 88.9274 288.248 91.3282 285.116 91.3282C281.985 91.3282 279.75 88.9782 279.75 86.104ZM288.23 86.104V86.0702C288.23 84.295 286.944 82.8071 285.116 82.8071C283.288 82.8071 282.07 84.2612 282.07 86.0194V86.0533C282.07 87.8116 283.356 89.3163 285.167 89.3163C286.978 89.3163 288.23 87.8454 288.23 86.104Z" fill="#004A99"/>
<path d="M285.133 91.4298C282.07 91.4298 279.684 89.0967 279.684 86.1211C279.684 83.1455 282.103 80.7109 285.184 80.7109C288.264 80.7109 290.65 83.061 290.65 86.0366C290.65 89.0122 288.23 91.4298 285.133 91.4298ZM285.167 80.8631C282.189 80.8631 279.836 83.1455 279.836 86.0704C279.836 88.9953 282.154 91.2608 285.116 91.2608C288.078 91.2608 290.465 88.9784 290.465 86.0704C290.465 83.1624 288.129 80.8631 285.167 80.8631ZM285.167 89.401C283.389 89.401 282.002 87.9302 282.002 86.0535C282.002 84.1768 283.323 82.706 285.133 82.706C286.944 82.706 288.331 84.143 288.331 86.0535C288.331 87.964 287.011 89.401 285.184 89.401H285.167ZM285.133 82.8919C283.424 82.8919 282.171 84.2106 282.171 86.0197C282.171 87.8287 283.492 89.232 285.184 89.232C286.876 89.232 288.162 87.9133 288.162 86.1042C288.162 84.2951 286.859 82.8919 285.133 82.8919Z" fill="#004A99"/>
<path d="M292.715 80.9988H295.034V82.571C295.677 81.6075 296.625 80.7959 298.199 80.7959C300.484 80.7959 301.804 82.3344 301.804 84.6844V91.1259H299.484V85.3776C299.484 83.8053 298.689 82.9093 297.319 82.9093C295.948 82.9093 295.034 83.8561 295.034 85.4283V91.1428H292.715V81.0157V80.9988Z" fill="#004A99"/>
<path d="M301.905 91.1932H299.502L299.418 85.3603C299.418 83.8387 298.656 82.9764 297.335 82.9764C296.016 82.9764 295.135 83.9232 295.135 85.411V91.1256L292.733 91.2101L292.647 80.9983L295.051 80.9138L295.135 82.5707C295.812 81.3027 296.862 80.7109 298.216 80.7109C300.501 80.7109 301.905 82.2325 301.905 84.6841V91.2101V91.1932ZM297.335 82.8074C298.774 82.8074 299.587 83.7373 299.587 85.3603V91.1087L301.736 91.0241V84.6672C301.736 82.3171 300.382 80.8631 298.216 80.8631C296.913 80.8631 295.931 81.4211 295.119 82.6045L294.966 80.9814L292.733 81.0659L292.817 91.1087L295.051 91.0241L294.966 85.3941C294.966 83.8218 295.897 82.7905 297.335 82.7905V82.8074Z" fill="#004A99"/>
<path d="M310.485 82.9938H309.199V81.0664H310.485V80.3394C310.485 79.2067 310.773 78.3614 311.315 77.8203C311.856 77.2794 312.601 77.0088 313.6 77.0088C314.396 77.0088 314.954 77.1271 315.478 77.2794V79.2405C315.021 79.0883 314.616 78.9869 314.124 78.9869C313.245 78.9869 312.788 79.4604 312.788 80.5255V81.0834H315.478V82.9938H312.838V91.126H310.52V82.9938H310.485Z" fill="#004A99"/>
<path d="M312.906 91.1931H310.502L310.418 82.9764L309.217 83.0609L309.131 81.049L310.502 80.9645L310.418 80.3221C310.418 79.1724 310.706 78.3102 311.265 77.7522C311.823 77.1943 312.584 76.9238 313.599 76.9238C314.463 76.9238 315.055 77.0591 315.495 77.1943L315.563 79.2231C315.005 79.1555 314.616 79.0541 314.124 79.0541C313.261 79.0541 312.872 79.5105 312.872 80.508V81.0659L315.478 80.9814L315.563 82.9764L312.838 83.0609L312.922 91.1931H312.906ZM310.502 82.8919L310.588 91.1086L312.737 91.0241V82.9764L315.462 82.8919L315.377 81.0659L312.77 81.1504L312.686 80.508C312.686 79.4429 313.159 78.8849 314.108 78.8849C314.632 78.8849 315.038 78.9865 315.495 79.1386L315.377 77.2619C315.005 77.2112 314.429 77.076 313.583 77.076C312.618 77.076 311.891 77.3296 311.366 77.8536C310.841 78.3778 310.57 79.2062 310.57 80.3052V81.0321L309.199 81.1166L309.284 82.9764L310.485 82.8919H310.502Z" fill="#004A99"/>
<path d="M316.24 86.104V86.0702C316.24 83.1792 318.542 80.7783 321.656 80.7783C324.771 80.7783 327.055 83.1283 327.055 86.0194V86.0533C327.055 88.9274 324.753 91.3282 321.622 91.3282C318.491 91.3282 316.258 88.9782 316.258 86.104H316.24ZM324.719 86.104V86.0702C324.719 84.295 323.433 82.8071 321.622 82.8071C319.811 82.8071 318.576 84.2612 318.576 86.0194V86.0533C318.576 87.8116 319.862 89.3163 321.656 89.3163C323.45 89.3163 324.719 87.8454 324.719 86.104Z" fill="#004A99"/>
<path d="M321.622 91.4298C318.559 91.4298 316.172 89.0967 316.172 86.1211C316.172 83.1455 318.593 80.7109 321.673 80.7109C324.753 80.7109 327.157 83.061 327.157 86.0366C327.157 89.0122 324.736 91.4298 321.639 91.4298H321.622ZM321.657 80.8631C318.677 80.8631 316.325 83.1455 316.325 86.0704C316.325 88.9953 318.644 91.2608 321.605 91.2608C324.567 91.2608 326.953 88.9784 326.953 86.0704C326.953 83.1624 324.618 80.8631 321.639 80.8631H321.657ZM321.657 89.401C319.879 89.401 318.491 87.9302 318.491 86.0535C318.491 84.1768 319.811 82.706 321.622 82.706C323.433 82.706 324.804 84.143 324.804 86.0535C324.804 87.964 323.484 89.401 321.657 89.401ZM321.622 82.8919C319.897 82.8919 318.66 84.2106 318.66 86.0197C318.66 87.8287 319.981 89.232 321.657 89.232C323.332 89.232 324.635 87.9133 324.635 86.1042C324.635 84.2951 323.332 82.8919 321.605 82.8919H321.622Z" fill="#004A99"/>
<path d="M329.204 80.9985H331.524V83.2809C332.149 81.7761 333.335 80.7279 335.111 80.8124V83.264H334.976C332.944 83.264 331.524 84.5827 331.524 87.2708V91.1256H329.204V80.9985Z" fill="#004A99"/>
<path d="M331.608 91.1932H329.204L329.12 80.9814L331.523 80.8969L331.608 83.2638C331.929 82.0804 332.928 80.7109 334.924 80.7109H335.111L335.196 83.3315H334.976C332.843 83.3315 331.608 84.7686 331.608 87.2539V91.1932ZM331.439 80.9814L329.204 81.0659L329.289 91.1087L331.439 91.0241V87.2539C331.439 84.701 332.759 83.1624 334.976 83.1624L335.027 80.7955L334.924 80.88C333.012 80.88 332.065 82.1987 331.608 83.2976L331.439 80.9814Z" fill="#004A99"/>
<path d="M98.2871 101.642H100.64V115.066H98.2871V101.642Z" fill="#004A99"/>
<path d="M100.741 115.133H98.3039L98.2192 101.625L100.656 101.54L100.741 115.133ZM100.572 101.625L98.3039 101.709L98.3885 115.049L100.572 114.964V101.625Z" fill="#004A99"/>
<path d="M103.771 104.938H106.089V106.511C106.749 105.547 107.68 104.735 109.254 104.735C111.539 104.735 112.859 106.274 112.859 108.624V115.065H110.54V109.317C110.54 107.745 109.762 106.849 108.374 106.849C106.986 106.849 106.089 107.795 106.089 109.351V115.065H103.771V104.938Z" fill="#004A99"/>
<path d="M112.943 115.133H110.54L110.455 109.3C110.455 107.778 109.694 106.916 108.374 106.916C107.054 106.916 106.173 107.863 106.173 109.334V115.048L103.77 115.133L103.686 104.921L106.089 104.837L106.173 106.494C106.85 105.226 107.917 104.634 109.254 104.634C111.538 104.634 112.943 106.155 112.943 108.607V115.133ZM108.374 106.747C109.812 106.747 110.625 107.677 110.625 109.3V115.048L112.774 114.964V108.607C112.774 106.257 111.42 104.803 109.254 104.803C107.951 104.803 106.969 105.361 106.156 106.544L106.004 104.921L103.77 105.006L103.855 115.048L106.089 114.964L106.004 109.334C106.004 107.762 106.935 106.747 108.374 106.747Z" fill="#004A99"/>
<path d="M115.957 112.259V106.934H114.67V104.939H115.957V102.166H118.275V104.939H121V106.934H118.275V111.904C118.275 112.8 118.732 113.172 119.528 113.172C120.051 113.172 120.508 113.054 120.965 112.817V114.711C120.391 115.032 119.73 115.235 118.867 115.235C117.158 115.235 115.957 114.491 115.957 112.259Z" fill="#004A99"/>
<path d="M118.866 115.319C116.87 115.319 115.871 114.288 115.871 112.259V106.933L114.67 107.018L114.585 104.938L115.956 104.854L115.871 102.166L118.275 102.081L118.359 104.938L121 104.854L121.084 106.933L118.275 107.018L118.359 111.904C118.359 112.715 118.732 113.087 119.527 113.087C120.018 113.087 120.475 112.986 120.932 112.749L121.05 114.727C120.373 115.167 119.696 115.336 118.866 115.336V115.319ZM115.956 106.849L116.04 112.259C116.04 114.203 116.972 115.15 118.866 115.15C119.646 115.15 120.305 114.981 120.914 114.643L120.864 112.817C120.508 113.138 120.035 113.24 119.51 113.24C118.63 113.24 118.173 112.783 118.173 111.887V106.916L120.982 106.832L120.898 104.921L118.257 105.006L118.173 102.149L115.939 102.233L116.024 104.921L114.653 105.006L114.737 106.916L115.939 106.832L115.956 106.849Z" fill="#004A99"/>
<path d="M122.303 110.027V109.994C122.303 107.103 124.351 104.719 127.245 104.719C130.478 104.719 132.102 107.255 132.102 110.163C132.102 110.366 132.085 110.585 132.069 110.805H124.621C124.875 112.462 126.043 113.375 127.533 113.375C128.667 113.375 129.478 112.952 130.274 112.158L131.628 113.375C130.663 114.525 129.344 115.269 127.481 115.269C124.554 115.269 122.286 113.138 122.286 110.011L122.303 110.027ZM129.801 109.284C129.648 107.796 128.768 106.612 127.228 106.612C125.806 106.612 124.808 107.711 124.604 109.284H129.801Z" fill="#004A99"/>
<path d="M127.498 115.37C124.435 115.37 122.218 113.121 122.218 110.027C122.218 106.933 124.384 104.634 127.245 104.634C130.663 104.634 132.186 107.407 132.186 110.162C132.186 110.382 132.17 110.585 132.153 110.822L124.621 110.906C124.943 112.343 126.026 113.307 127.533 113.307C128.564 113.307 129.36 112.952 130.223 112.124L131.696 113.324C130.647 114.727 129.225 115.37 127.498 115.37ZM127.245 104.803C124.47 104.803 122.387 107.035 122.387 109.993C122.387 112.952 124.536 115.201 127.498 115.201C129.174 115.201 130.544 114.575 131.577 113.341L130.223 112.242C129.462 113.104 128.615 113.476 127.533 113.476C125.925 113.476 124.773 112.462 124.536 110.839L132.069 110.737C132.001 110.585 132.017 110.382 132.017 110.179C132.017 107.508 130.544 104.82 127.245 104.82V104.803ZM124.604 109.368C124.74 107.609 125.806 106.544 127.228 106.544C128.65 106.544 129.716 107.593 129.885 109.283L124.604 109.368ZM127.228 106.696C125.891 106.696 124.892 107.711 124.689 109.283L129.801 109.182C129.546 107.677 128.599 106.68 127.228 106.68V106.696Z" fill="#004A99"/>
<path d="M134.234 104.939H136.554V107.221C137.18 105.7 138.364 104.668 140.141 104.753V107.204H140.006C137.975 107.204 136.554 108.523 136.554 111.211V115.066H134.234V104.939Z" fill="#004A99"/>
<path d="M136.638 115.134H134.235L134.15 104.922L136.554 104.837L136.638 107.204C136.959 106.021 137.958 104.651 139.955 104.651H140.141L140.226 107.272H140.006C137.873 107.272 136.638 108.709 136.638 111.194V115.134ZM136.468 104.922L134.235 105.006L134.319 115.049L136.468 114.965V111.194C136.468 108.625 137.789 107.103 140.006 107.103L140.057 104.736L139.955 104.82C138.042 104.82 137.095 106.139 136.638 107.238L136.468 104.922Z" fill="#004A99"/>
<path d="M141.969 104.938H144.287V106.511C144.947 105.547 145.878 104.735 147.452 104.735C149.737 104.735 151.058 106.274 151.058 108.624V115.065H148.739V109.317C148.739 107.745 147.96 106.849 146.572 106.849C145.184 106.849 144.287 107.795 144.287 109.351V115.065H141.969V104.938Z" fill="#004A99"/>
<path d="M151.142 115.133H148.739L148.654 109.3C148.654 107.778 147.893 106.916 146.572 106.916C145.252 106.916 144.373 107.863 144.373 109.334V115.048L141.969 115.133L141.885 104.921L144.287 104.837L144.373 106.494C145.066 105.209 146.098 104.634 147.452 104.634C149.72 104.634 151.142 106.155 151.142 108.607V115.133ZM146.572 106.747C148.01 106.747 148.823 107.677 148.823 109.3V115.048L150.972 114.964V108.607C150.972 106.257 149.619 104.803 147.452 104.803C146.149 104.803 145.168 105.361 144.355 106.544L144.203 104.921L141.969 105.006L142.054 115.048L144.287 114.964L144.203 109.334C144.203 107.762 145.133 106.747 146.572 106.747Z" fill="#004A99"/>
<path d="M159.859 115.049V113.798C159.164 114.626 158.114 115.252 156.575 115.252C154.662 115.252 152.97 114.153 152.97 112.124V112.09C152.97 109.859 154.713 108.776 157.083 108.776C158.318 108.776 159.096 108.946 159.892 109.199V109.013C159.892 107.61 159.012 106.849 157.404 106.849C156.27 106.849 155.424 107.103 154.51 107.475L153.884 105.615C155 105.125 156.084 104.77 157.743 104.77C160.738 104.77 162.194 106.342 162.194 109.047V115.049H159.892H159.859ZM159.909 110.805C159.316 110.569 158.487 110.4 157.591 110.4C156.134 110.4 155.272 110.991 155.272 111.972V112.006C155.272 112.969 156.134 113.51 157.235 113.51C158.775 113.51 159.925 112.648 159.925 111.38V110.805H159.909Z" fill="#004A99"/>
<path d="M156.575 115.353C154.798 115.353 152.886 114.356 152.886 112.141C152.886 109.926 154.459 108.709 157.083 108.709C158.318 108.709 159.114 108.878 159.909 109.132L159.808 109.03C159.808 107.661 158.978 106.951 157.404 106.951C156.27 106.951 155.441 107.204 154.543 107.576L153.8 105.666C154.984 105.057 156.084 104.719 157.743 104.719C160.705 104.719 162.278 106.224 162.278 109.081V115.083L159.892 115.167L159.808 113.832C159.147 114.863 157.98 115.37 156.609 115.37L156.575 115.353ZM157.066 108.878C154.543 108.878 153.038 110.078 153.038 112.107C153.038 114.237 154.866 115.184 156.558 115.184C157.879 115.184 158.995 114.694 159.773 113.764L159.926 115.066L162.143 114.981L162.059 109.064C162.059 106.325 160.552 104.871 157.692 104.871C156.068 104.871 154.984 105.209 153.867 105.699L154.543 107.458C155.356 107.018 156.202 106.764 157.354 106.764C159.012 106.764 159.926 107.559 159.926 109.013V109.199C159.029 109.03 158.25 108.861 157.032 108.861L157.066 108.878ZM157.218 113.612C156 113.612 155.17 112.969 155.17 112.023C155.17 110.94 156.068 110.332 157.573 110.332C158.402 110.332 159.248 110.484 159.926 110.738L159.977 111.397C159.977 112.682 158.809 113.612 157.202 113.612H157.218ZM157.573 110.501C156.169 110.501 155.339 111.059 155.339 111.989C155.339 113.003 156.288 113.443 157.218 113.443C158.725 113.443 159.824 112.58 159.824 111.397V110.822C159.232 110.653 158.386 110.501 157.591 110.501H157.573Z" fill="#004A99"/>
<path d="M165.105 112.259V106.934H163.819V104.939H165.105V102.166H167.423V104.939H170.148V106.934H167.423V111.904C167.423 112.8 167.88 113.172 168.676 113.172C169.201 113.172 169.658 113.054 170.115 112.817V114.711C169.539 115.032 168.896 115.235 168.032 115.235C166.324 115.235 165.122 114.491 165.122 112.259H165.105Z" fill="#004A99"/>
<path d="M168.032 115.319C166.036 115.319 165.037 114.288 165.037 112.259V106.933L163.835 107.018L163.751 104.938L165.122 104.854L165.037 102.166L167.441 102.081L167.525 104.938L170.165 104.854L170.25 106.933L167.441 107.018L167.525 111.904C167.525 112.715 167.898 113.087 168.693 113.087C169.184 113.087 169.641 112.986 170.098 112.749L170.216 114.727C169.539 115.167 168.862 115.336 168.05 115.336L168.032 115.319ZM165.122 106.849L165.206 112.259C165.206 114.203 166.137 115.15 168.032 115.15C168.812 115.15 169.471 114.981 170.08 114.643L170.03 112.817C169.674 113.138 169.201 113.24 168.676 113.24C167.796 113.24 167.339 112.783 167.339 111.887V106.916L170.148 106.832L170.064 104.921L167.423 105.006L167.339 102.149L165.105 102.233L165.19 104.921L163.819 105.006L163.903 106.916L165.105 106.832L165.122 106.849Z" fill="#004A99"/>
<path d="M172.332 101.186H174.82V103.383H172.332V101.186ZM172.433 104.939H174.752V115.066H172.433V104.939Z" fill="#004A99"/>
<path d="M174.837 115.134H172.433L172.348 104.922L174.751 104.837L174.837 115.134ZM174.667 104.922L172.433 105.006L172.517 115.049L174.667 114.964V104.922ZM174.921 103.451H172.348L172.264 101.169L174.837 101.084L174.921 103.451ZM174.751 101.169L172.348 101.253L172.433 103.366L174.751 103.282V101.169Z" fill="#004A99"/>
<path d="M177.037 110.044V110.011C177.037 107.12 179.338 104.719 182.452 104.719C185.566 104.719 187.834 107.069 187.834 109.977V110.011C187.834 112.885 185.532 115.286 182.401 115.286C179.27 115.286 177.037 112.935 177.037 110.044ZM185.515 110.044V110.011C185.515 108.219 184.229 106.748 182.401 106.748C180.573 106.748 179.355 108.202 179.355 109.96V109.994C179.355 111.752 180.641 113.257 182.452 113.257C184.263 113.257 185.515 111.786 185.515 110.044Z" fill="#004A99"/>
<path d="M182.401 115.37C179.338 115.37 176.952 113.036 176.952 110.044C176.952 107.051 179.373 104.634 182.452 104.634C185.533 104.634 187.919 106.984 187.919 109.976C187.919 112.969 185.498 115.37 182.401 115.37ZM182.435 104.803C179.439 104.803 177.104 107.085 177.104 110.01C177.104 112.935 179.423 115.201 182.384 115.201C185.346 115.201 187.733 112.918 187.733 110.01C187.733 107.102 185.397 104.803 182.435 104.803ZM182.435 113.358C180.659 113.358 179.254 111.887 179.254 110.01C179.254 108.133 180.573 106.663 182.384 106.663C184.195 106.663 185.583 108.1 185.583 110.01C185.583 111.921 184.263 113.358 182.435 113.358ZM182.401 106.849C180.676 106.849 179.439 108.167 179.439 109.976C179.439 111.785 180.76 113.189 182.452 113.189C184.144 113.189 185.431 111.87 185.431 110.061C185.431 108.252 184.128 106.849 182.401 106.849Z" fill="#004A99"/>
<path d="M190 104.938H192.319V106.511C192.963 105.547 193.91 104.735 195.484 104.735C197.769 104.735 199.089 106.274 199.089 108.624V115.065H196.771V109.317C196.771 107.745 195.993 106.849 194.604 106.849C193.216 106.849 192.319 107.795 192.319 109.351V115.065H190V104.938Z" fill="#004A99"/>
<path d="M199.173 115.133H196.771L196.686 109.3C196.686 107.778 195.925 106.916 194.604 106.916C193.284 106.916 192.404 107.863 192.404 109.334V115.048L190.001 115.133L189.917 104.921L192.319 104.837L192.404 106.494C193.081 105.226 194.147 104.634 195.484 104.634C197.752 104.634 199.173 106.155 199.173 108.607V115.133ZM194.604 106.747C196.043 106.747 196.855 107.677 196.855 109.3V115.048L199.004 114.964V108.607C199.004 106.257 197.65 104.803 195.484 104.803C194.181 104.803 193.2 105.361 192.387 106.544L192.235 104.921L190.001 105.006L190.086 115.048L192.319 114.964L192.235 109.334C192.235 107.762 193.165 106.747 194.604 106.747Z" fill="#004A99"/>
<path d="M207.89 115.049V113.798C207.196 114.626 206.146 115.252 204.606 115.252C202.694 115.252 201.001 114.153 201.001 112.124V112.09C201.001 109.859 202.744 108.776 205.115 108.776C206.35 108.776 207.128 108.946 207.924 109.199V109.013C207.924 107.61 207.044 106.849 205.436 106.849C204.302 106.849 203.456 107.103 202.542 107.475L201.916 105.615C203.032 105.125 204.115 104.77 205.774 104.77C208.77 104.77 210.225 106.342 210.225 109.047V115.049H207.924H207.89ZM207.941 110.805C207.348 110.569 206.519 110.4 205.622 110.4C204.166 110.4 203.303 110.991 203.303 111.972V112.006C203.303 112.969 204.166 113.51 205.267 113.51C206.807 113.51 207.957 112.648 207.957 111.38V110.805H207.941Z" fill="#004A99"/>
<path d="M204.607 115.353C202.83 115.353 200.917 114.356 200.917 112.141C200.917 109.926 202.491 108.709 205.115 108.709C206.35 108.709 207.145 108.878 207.941 109.132L207.84 109.03C207.84 107.661 207.01 106.951 205.436 106.951C204.302 106.951 203.473 107.204 202.575 107.576L201.83 105.666C203.016 105.057 204.116 104.719 205.774 104.719C208.736 104.719 210.31 106.224 210.31 109.081V115.083L207.924 115.167L207.84 113.832C207.179 114.863 206.012 115.37 204.64 115.37L204.607 115.353ZM205.098 108.878C202.575 108.878 201.069 110.078 201.069 112.107C201.069 114.237 202.898 115.184 204.59 115.184C205.926 115.184 207.01 114.711 207.805 113.764L207.957 115.066L210.174 114.981L210.09 109.064C210.09 106.325 208.583 104.871 205.724 104.871C204.098 104.871 203.016 105.209 201.898 105.699L202.575 107.458C203.388 107.018 204.234 106.764 205.385 106.764C207.044 106.764 207.957 107.559 207.957 109.013V109.199C207.06 109.03 206.282 108.861 205.08 108.861L205.098 108.878ZM205.249 113.612C204.031 113.612 203.201 112.969 203.201 112.023C203.201 110.94 204.098 110.332 205.605 110.332C206.434 110.332 207.28 110.484 207.957 110.738L208.009 111.397C208.009 112.682 206.84 113.612 205.232 113.612H205.249ZM205.622 110.501C204.217 110.501 203.388 111.059 203.388 111.989C203.388 113.003 204.335 113.443 205.267 113.443C206.772 113.443 207.873 112.58 207.873 111.397V110.822C207.28 110.653 206.434 110.501 205.639 110.501H205.622Z" fill="#004A99"/>
<path d="M212.883 101.066H215.201V115.065H212.883V101.066Z" fill="#004A99"/>
<path d="M215.303 115.134H212.899L212.815 101.05L215.217 100.966L215.303 115.117V115.134ZM215.133 101.05L212.899 101.135L212.984 115.049L215.133 114.965V101.05Z" fill="#004A99"/>
<path d="M223.884 101.642H233.835V103.755H226.236V107.238H232.972V109.351H226.236V112.952H233.92V115.066H223.867V101.642H223.884Z" fill="#004A99"/>
<path d="M234.004 115.133H223.866L223.781 101.625L233.817 101.54L233.903 103.738L226.218 103.823L226.304 107.221L232.955 107.136L233.039 109.334L226.218 109.419L226.304 112.935L233.92 112.851L234.004 115.133ZM233.733 101.625L223.866 101.709L223.95 115.049L233.835 114.964V112.935L226.218 113.02L226.134 109.334L232.955 109.25L232.87 107.221L226.218 107.305L226.134 103.738L233.817 103.653L233.733 101.625Z" fill="#004A99"/>
<path d="M235.544 110.01V109.977C235.544 106.629 237.83 104.719 240.249 104.719C241.924 104.719 242.974 105.564 243.702 106.494V101.05H246.02V115.049H243.702V113.358C242.957 114.406 241.891 115.251 240.249 115.251C237.863 115.251 235.544 113.358 235.544 110.01ZM243.735 110.01V109.977C243.735 108.015 242.348 106.731 240.808 106.731C239.267 106.731 237.896 107.965 237.896 109.977V110.01C237.896 111.955 239.234 113.24 240.808 113.24C242.381 113.24 243.735 111.938 243.735 110.01Z" fill="#004A99"/>
<path d="M240.249 115.353C237.931 115.353 235.459 113.476 235.459 110.028C235.459 106.579 237.863 104.651 240.249 104.651C241.671 104.651 242.822 105.243 243.77 106.46L243.618 101.067L246.02 100.982L246.105 115.066L243.702 115.15L243.618 113.375C242.838 114.728 241.688 115.353 240.249 115.353ZM240.249 104.82C237.948 104.82 235.628 106.595 235.628 109.994C235.628 113.392 237.948 115.201 240.249 115.201C241.636 115.201 242.737 114.592 243.634 113.341L243.787 115.083L246.02 114.998L245.936 101.084L243.702 101.168L243.787 106.528C242.72 105.412 241.62 104.837 240.249 104.837V104.82ZM240.807 113.341C239.098 113.341 237.812 111.921 237.812 110.028C237.812 108.134 239.082 106.663 240.807 106.663C242.534 106.663 243.82 108.1 243.82 109.994C243.82 111.887 242.5 113.358 240.807 113.358V113.341ZM240.807 106.832C239.132 106.832 237.981 108.134 237.981 109.994C237.981 111.853 239.199 113.189 240.807 113.189C242.212 113.189 243.651 112.006 243.651 110.044C243.651 108.202 242.432 106.849 240.807 106.849V106.832Z" fill="#004A99"/>
<path d="M248.61 111.38V104.939H250.929V110.687C250.929 112.259 251.707 113.156 253.094 113.156C254.483 113.156 255.379 112.209 255.379 110.636V104.922H257.698V115.049H255.379V113.477C254.72 114.44 253.788 115.252 252.215 115.252C249.93 115.252 248.61 113.714 248.61 111.363V111.38Z" fill="#004A99"/>
<path d="M252.215 115.353C249.947 115.353 248.525 113.831 248.525 111.38V104.938L250.929 104.854L251.013 110.687C251.013 112.208 251.775 113.07 253.095 113.07C254.415 113.07 255.296 112.124 255.296 110.636V104.921L257.698 104.837L257.783 115.049L255.38 115.133L255.296 113.476C254.601 114.761 253.569 115.336 252.215 115.336V115.353ZM250.844 104.938L248.611 105.023L248.695 111.38C248.695 113.73 250.048 115.184 252.215 115.184C253.518 115.184 254.5 114.626 255.312 113.442L255.465 115.065L257.698 114.981L257.614 104.938L255.38 105.023L255.465 110.653C255.465 112.225 254.534 113.257 253.095 113.257C251.657 113.257 250.844 112.327 250.844 110.704V104.955V104.938Z" fill="#004A99"/>
<path d="M259.865 110.044V110.011C259.865 107.137 262.082 104.719 265.112 104.719C267.024 104.719 268.226 105.429 269.156 106.46L267.718 108.016C267.007 107.272 266.262 106.748 265.095 106.748C263.402 106.748 262.183 108.202 262.183 109.96V109.994C262.183 111.786 263.436 113.257 265.213 113.257C266.313 113.257 267.108 112.733 267.837 111.989L269.241 113.375C268.242 114.491 267.075 115.269 265.095 115.269C262.082 115.269 259.865 112.919 259.865 110.027V110.044Z" fill="#004A99"/>
<path d="M265.095 115.37C262.115 115.37 259.781 113.036 259.781 110.044C259.781 107.051 262.133 104.634 265.112 104.634C266.838 104.634 268.107 105.175 269.224 106.409L267.785 108.083C267.058 107.44 266.313 106.849 265.095 106.849C263.504 106.849 262.269 108.218 262.269 109.976C262.269 111.819 263.537 113.189 265.213 113.189C266.143 113.189 266.939 112.8 267.785 111.954L269.309 113.341C268.463 114.406 267.295 115.387 265.112 115.387L265.095 115.37ZM265.112 104.803C262.218 104.803 259.95 107.085 259.95 110.01C259.95 112.935 262.218 115.201 265.095 115.201C267.211 115.201 268.345 114.254 269.173 113.324L267.769 112.056C267.024 112.952 266.195 113.341 265.196 113.341C263.419 113.341 262.082 111.904 262.082 109.993C262.082 108.083 263.402 106.646 265.077 106.646C266.364 106.646 267.125 107.271 267.769 107.931L269.089 106.375C268.006 105.31 266.787 104.769 265.095 104.769L265.112 104.803Z" fill="#004A99"/>
<path d="M277.365 115.049V113.798C276.671 114.626 275.621 115.252 274.081 115.252C272.169 115.252 270.477 114.153 270.477 112.124V112.09C270.477 109.859 272.219 108.776 274.589 108.776C275.825 108.776 276.603 108.946 277.381 109.199V109.013C277.381 107.61 276.502 106.849 274.894 106.849C273.76 106.849 272.914 107.103 272 107.475L271.373 105.615C272.491 105.125 273.573 104.77 275.232 104.77C278.228 104.77 279.684 106.342 279.684 109.047V115.049H277.381H277.365ZM277.432 110.805C276.84 110.569 276.01 110.4 275.114 110.4C273.658 110.4 272.795 110.991 272.795 111.972V112.006C272.795 112.969 273.658 113.51 274.759 113.51C276.298 113.51 277.449 112.648 277.449 111.38V110.805H277.432Z" fill="#004A99"/>
<path d="M274.081 115.353C272.304 115.353 270.391 114.356 270.391 112.141C270.391 109.926 271.966 108.709 274.588 108.709C275.825 108.709 276.62 108.878 277.416 109.132L277.313 109.03C277.313 107.661 276.484 106.951 274.911 106.951C273.777 106.951 272.947 107.204 272.05 107.576L271.305 105.666C272.49 105.057 273.59 104.719 275.249 104.719C278.211 104.719 279.785 106.224 279.785 109.081V115.083L277.398 115.167L277.313 113.832C276.654 114.863 275.486 115.37 274.115 115.37L274.081 115.353ZM274.572 108.878C272.05 108.878 270.544 110.078 270.544 112.107C270.544 114.237 272.372 115.184 274.065 115.184C275.401 115.184 276.484 114.711 277.28 113.764L277.432 115.066L279.649 114.981L279.565 109.064C279.565 106.325 278.058 104.871 275.199 104.871C273.573 104.871 272.507 105.209 271.373 105.699L272.05 107.458C272.863 107.018 273.709 106.764 274.86 106.764C276.518 106.764 277.432 107.559 277.432 109.013V109.199C276.535 109.03 275.757 108.861 274.555 108.861L274.572 108.878ZM274.724 113.612C273.506 113.612 272.676 112.969 272.676 112.023C272.676 110.94 273.573 110.332 275.08 110.332C275.909 110.332 276.755 110.484 277.432 110.738L277.483 111.397C277.483 112.682 276.315 113.612 274.707 113.612H274.724ZM275.096 110.501C273.692 110.501 272.863 111.059 272.863 111.989C272.863 113.003 273.81 113.443 274.742 113.443C276.247 113.443 277.348 112.58 277.348 111.397V110.822C277.009 110.755 276.214 110.501 275.113 110.501H275.096Z" fill="#004A99"/>
<path d="M282.628 112.259V106.934H281.341V104.939H282.628V102.166H284.947V104.939H287.672V106.934H284.947V111.904C284.947 112.8 285.404 113.172 286.199 113.172C286.723 113.172 287.18 113.054 287.637 112.817V114.711C287.063 115.032 286.402 115.235 285.539 115.235C283.83 115.235 282.628 114.491 282.628 112.259Z" fill="#004A99"/>
<path d="M285.539 115.319C283.542 115.319 282.543 114.288 282.543 112.259V106.933L281.341 107.018L281.257 104.938L282.628 104.854L282.543 102.166L284.947 102.081L285.031 104.938L287.672 104.854L287.756 106.933L284.947 107.018L285.031 111.904C285.031 112.715 285.404 113.087 286.199 113.087C286.69 113.087 287.13 112.986 287.604 112.749L287.722 114.727C287.046 115.167 286.369 115.336 285.539 115.336V115.319ZM282.628 106.849L282.712 112.259C282.712 114.203 283.644 115.15 285.539 115.15C286.334 115.15 286.978 114.981 287.587 114.643L287.536 112.817C287.18 113.138 286.707 113.24 286.182 113.24C285.303 113.24 284.846 112.783 284.846 111.887V106.916L287.655 106.832L287.571 104.921L284.93 105.006L284.846 102.149L282.611 102.233L282.696 104.921L281.325 105.006L281.409 106.916L282.611 106.832L282.628 106.849Z" fill="#004A99"/>
<path d="M289.854 101.186H292.342V103.383H289.854V101.186ZM289.956 104.939H292.275V115.066H289.956V104.939Z" fill="#004A99"/>
<path d="M292.342 115.134H289.94L289.855 104.922L292.258 104.837L292.342 115.134ZM292.173 104.922L289.94 105.006L290.024 115.049L292.173 114.964V104.922ZM292.41 103.451H289.839L289.753 101.169L292.326 101.084L292.41 103.451ZM292.241 101.169L289.839 101.253L289.923 103.366L292.241 103.282V101.169Z" fill="#004A99"/>
<path d="M294.543 110.044V110.011C294.543 107.12 296.845 104.719 299.959 104.719C303.073 104.719 305.358 107.069 305.358 109.977V110.011C305.358 112.885 303.057 115.286 299.925 115.286C296.794 115.286 294.56 112.935 294.56 110.044H294.543ZM303.022 110.044V110.011C303.022 108.219 301.736 106.748 299.925 106.748C298.114 106.748 296.878 108.202 296.878 109.96V109.994C296.878 111.752 298.165 113.257 299.959 113.257C301.753 113.257 303.022 111.786 303.022 110.044Z" fill="#004A99"/>
<path d="M299.925 115.37C296.862 115.37 294.476 113.036 294.476 110.044C294.476 107.051 296.895 104.634 299.976 104.634C303.057 104.634 305.459 106.984 305.459 109.976C305.459 112.969 303.039 115.37 299.941 115.37H299.925ZM299.959 104.803C296.981 104.803 294.628 107.085 294.628 110.01C294.628 112.935 296.946 115.201 299.908 115.201C302.87 115.201 305.257 112.918 305.257 110.01C305.257 107.102 302.921 104.803 299.941 104.803H299.959ZM299.959 113.358C298.181 113.358 296.794 111.887 296.794 110.01C296.794 108.133 298.115 106.663 299.925 106.663C301.736 106.663 303.107 108.1 303.107 110.01C303.107 111.921 301.787 113.358 299.959 113.358ZM299.925 106.849C298.199 106.849 296.963 108.167 296.963 109.976C296.963 111.785 298.284 113.189 299.959 113.189C301.635 113.189 302.938 111.87 302.938 110.061C302.938 108.252 301.635 106.849 299.908 106.849H299.925Z" fill="#004A99"/>
<path d="M307.507 104.938H309.826V106.511C310.487 105.547 311.417 104.735 312.991 104.735C315.276 104.735 316.596 106.274 316.596 108.624V115.065H314.278V109.317C314.278 107.745 313.498 106.849 312.111 106.849C310.723 106.849 309.826 107.795 309.826 109.351V115.065H307.507V104.938Z" fill="#004A99"/>
<path d="M316.68 115.133H314.278L314.192 109.3C314.192 107.778 313.431 106.916 312.111 106.916C310.791 106.916 309.911 107.863 309.911 109.334V115.048L307.507 115.133L307.423 104.921L309.826 104.837L309.911 106.494C310.588 105.226 311.654 104.634 312.991 104.634C315.276 104.634 316.68 106.155 316.68 108.607V115.133ZM312.111 106.747C313.549 106.747 314.362 107.677 314.362 109.3V115.048L316.511 114.964V108.607C316.511 106.257 315.157 104.803 312.991 104.803C311.687 104.803 310.707 105.361 309.894 106.544L309.742 104.921L307.507 105.006L307.593 115.048L309.826 114.964L309.742 109.334C309.742 107.762 310.672 106.747 312.111 106.747Z" fill="#004A99"/>
</g>
</g>
<defs>
<clipPath id="clip0_202_53">
<rect width="335" height="115" fill="white" transform="translate(0.311035 0.488281)"/>
</clipPath>
</defs>
</svg>
