<svg width="235" height="81" viewBox="0 0 235 81" fill="none" xmlns="http://www.w3.org/2000/svg">
<g clip-path="url(#clip0_204_157)">
<mask id="mask0_204_157" style="mask-type:luminance" maskUnits="userSpaceOnUse" x="0" y="0" width="235" height="81">
<path d="M0 81H235V0H0V81Z" fill="white"/>
</mask>
<g mask="url(#mask0_204_157)">
<path d="M17.9224 2.30495e-05H35.6817C35.8588 -0.00101782 36.0343 0.0332035 36.1981 0.100722C36.362 0.168241 36.5111 0.267728 36.6367 0.39347C36.7624 0.519213 36.8621 0.668735 36.9303 0.833453C36.9985 0.99817 37.0337 1.17484 37.0339 1.35332V19.2662C37.0343 19.9837 36.7524 20.6722 36.25 21.1805L21.0169 36.5369C20.7674 36.788 20.4712 36.987 20.1454 37.1226C19.8195 37.2582 19.4704 37.3277 19.1179 37.3272H1.35074C0.994522 37.3272 0.652867 37.1847 0.400801 36.9309C0.148735 36.6772 0.00686727 36.333 0.00634801 35.9739V18.065C0.00598362 17.3474 0.287885 16.659 0.790249 16.1506L16.0215 0.790267C16.2712 0.539003 16.5677 0.339869 16.8939 0.204267C17.2201 0.0686655 17.5696 -0.000740684 17.9224 2.30495e-05Z" fill="#70C4CE"/>
<path d="M62.342 2.71932e-06H44.5749C44.3984 -0.000256964 44.2236 0.0345554 44.0605 0.102448C43.8974 0.170341 43.7492 0.269983 43.6244 0.395674C43.4995 0.521364 43.4004 0.670638 43.3328 0.834956C43.2653 0.999274 43.2305 1.17541 43.2305 1.3533V19.2661C43.2301 19.9837 43.512 20.6721 44.0144 21.1805L59.2475 36.5369C59.7522 37.044 60.436 37.3283 61.1485 37.3272H78.9156C79.2717 37.3272 79.6131 37.1846 79.8649 36.9308C80.1166 36.677 80.2581 36.3328 80.2581 35.9739V18.065C80.2584 17.3474 79.9765 16.659 79.4742 16.1506L64.241 0.790247C63.9915 0.539218 63.6953 0.34022 63.3695 0.204626C63.0437 0.0690312 62.6945 -0.000501183 62.342 2.71932e-06Z" fill="#70C4CE"/>
<path d="M62.342 81.0001H44.5749C44.3984 81.0003 44.2236 80.9655 44.0605 80.8976C43.8974 80.8297 43.7492 80.7301 43.6244 80.6044C43.4995 80.4787 43.4004 80.3294 43.3328 80.1651C43.2653 80.0008 43.2305 79.8247 43.2305 79.6468V61.73C43.2301 61.0124 43.512 60.324 44.0144 59.8156L59.2475 44.4592C59.7523 43.9523 60.436 43.6681 61.1485 43.6689H78.9156C79.2717 43.6689 79.6131 43.8115 79.8649 44.0653C80.1166 44.3191 80.2581 44.6633 80.2581 45.0222V62.9351C80.2584 63.6527 79.9765 64.3411 79.4742 64.8495L64.241 80.2059C63.9915 80.4569 63.6953 80.6559 63.3695 80.7915C63.0437 80.9271 62.6945 80.9966 62.342 80.9961" fill="#70C4CE"/>
<path d="M17.922 81.0001H35.6812C36.0375 81.0001 36.3791 80.8576 36.6312 80.6038C36.8832 80.3501 37.0251 80.0059 37.0256 79.6468V61.73C37.026 61.0124 36.7441 60.324 36.2417 59.8156L21.0086 44.4592C20.5044 43.9526 19.8214 43.6684 19.1096 43.6689H1.34244C0.986221 43.6689 0.644566 43.8115 0.3925 44.0652C0.140434 44.3189 -0.00143351 44.6631 -0.00195277 45.0222V62.9351C-0.00231716 63.6527 0.279585 64.3411 0.781948 64.8495L16.0151 80.2059C16.2646 80.4569 16.5608 80.6559 16.8866 80.7915C17.2124 80.9271 17.5616 80.9966 17.9141 80.9961" fill="#70C4CE"/>
<path d="M168.719 36.4459C169.456 33.628 171.107 31.1396 173.409 29.3772C175.824 27.5339 178.788 26.5726 181.816 26.6508C184.559 26.6082 187.236 27.493 189.422 29.1638C191.712 30.9898 193.296 33.566 193.9 36.4459H168.719ZM169.225 44.7948H202.435C202.547 43.7069 202.633 42.8245 202.691 42.1475C202.746 41.4659 202.776 40.9839 202.776 40.6994C202.796 37.7476 202.281 34.817 201.255 32.0522C200.287 29.4331 198.84 27.0206 196.989 24.94C195.143 22.885 192.9 21.2324 190.398 20.0839C187.703 18.863 184.776 18.252 181.822 18.294C178.799 18.2579 175.798 18.8225 172.991 19.9555C170.391 21.0093 168.031 22.587 166.056 24.5923C164.094 26.6114 162.544 28.9989 161.494 31.6195C160.371 34.4493 159.812 37.4741 159.847 40.5216C159.849 41.9486 159.965 43.3731 160.196 44.781C160.362 45.8761 160.619 46.9553 160.964 48.0072C161.129 48.5287 161.294 49.0503 161.494 49.5501C162.538 52.1978 164.121 54.5951 166.142 56.5873C168.18 58.5708 170.595 60.1195 173.24 61.141C176.085 62.2407 179.109 62.7896 182.155 62.7591C185.762 62.8003 189.321 61.9223 192.501 60.2066C195.608 58.5217 198.307 56.166 200.406 53.3077L192.971 49.0483C191.71 50.6661 190.127 52.0004 188.325 52.966C186.45 53.9483 184.362 54.4459 182.249 54.4141C179.154 54.5033 176.114 53.5763 173.587 51.7727C172.214 50.7625 171.055 49.4864 170.177 48.019C169.58 47.0492 169.254 45.9343 169.235 44.7929" fill="#13234E"/>
<path d="M223.792 10.6699C225.749 9.52463 228.004 9.00518 230.259 9.18027L235 9.13089V1.1751H228.729C226.749 1.08888 224.773 1.4024 222.916 2.09723C221.058 2.79205 219.357 3.85417 217.913 5.22115C216.595 6.53833 215.554 8.10893 214.85 9.83973C214.146 11.5705 213.794 13.4263 213.815 15.2968V19.2282H205.271V27.0694H213.815V61.8263H222.095V27.0694H234.992V19.2342H222.095V16.3063C222.095 14.4275 222.252 11.8928 223.782 10.6699" fill="#13234E"/>
<path d="M100.038 61.8246H108.318V19.2324H100.038V61.8246Z" fill="#13234E"/>
<path d="M112.6 40.3874C112.521 37.4712 113.031 34.5691 114.099 31.8579C115.168 29.1466 116.772 26.6828 118.815 24.6163C120.857 22.5498 123.296 20.9239 125.982 19.8374C128.667 18.7508 131.544 18.2265 134.437 18.2962C144.364 18.2962 153.143 24.3771 155.052 34.6147H146.112C145.347 32.1299 143.784 29.972 141.669 28.4809C139.554 26.9898 137.007 26.2501 134.43 26.3784C126.642 26.3784 121.299 32.2282 121.299 40.3874C121.299 48.6238 126.796 54.3965 134.355 54.3965C136.949 54.5057 139.506 53.7507 141.631 52.248C143.757 50.7453 145.332 48.5787 146.114 46.0831H155.048C153.063 56.5539 144.207 62.4807 134.357 62.4807C131.47 62.5421 128.6 62.0114 125.922 60.9207C123.245 59.8301 120.815 58.2024 118.78 56.1362C116.745 54.0701 115.148 51.6087 114.086 48.9015C113.024 46.1943 112.518 43.2976 112.6 40.3874Z" fill="#13234E"/>
</g>
</g>
<defs>
<clipPath id="clip0_204_157">
<rect width="235" height="81" fill="white"/>
</clipPath>
</defs>
</svg>
