<svg width="64" height="65" viewBox="0 0 64 65" fill="none" xmlns="http://www.w3.org/2000/svg">
<g clip-path="url(#clip0_198_841)">
<g filter="url(#filter0_d_198_841)">
<path d="M32 64.5C49.6731 64.5 64 50.1731 64 32.5C64 14.8269 49.6731 0.5 32 0.5C14.3269 0.5 0 14.8269 0 32.5C0 50.1731 14.3269 64.5 32 64.5Z" fill="#1D262D"/>
<path fill-rule="evenodd" clip-rule="evenodd" d="M41.0986 35.7833C40.6503 35.535 38.4429 34.3485 38.029 34.183C37.6151 34.0174 37.3116 33.9277 36.9943 34.3761C36.677 34.8176 35.7596 35.8178 35.4836 36.1144C35.2077 36.411 34.9387 36.4386 34.4903 36.1903C34.042 35.942 32.5865 35.4039 30.9033 33.7829C29.5927 32.5205 28.7305 30.9892 28.4821 30.5201C28.2338 30.051 28.4821 29.8165 28.7167 29.5958C28.9305 29.3957 29.1926 29.0784 29.4341 28.8232C29.6686 28.568 29.7514 28.3748 29.9169 28.0782C30.0825 27.7816 30.0135 27.5126 29.91 27.278C29.8066 27.0435 28.9719 24.7602 28.627 23.8359C28.2821 22.9047 27.8958 23.0426 27.6268 23.0357C27.3578 23.0288 27.0542 22.9736 26.7507 22.9667C26.4472 22.953 25.9437 23.0495 25.5091 23.491C25.0745 23.9325 23.8467 24.9948 23.7639 27.2435C23.6811 29.4923 25.2332 31.7273 25.4539 32.0377C25.6677 32.355 28.427 37.225 33.0004 39.2323C37.5807 41.2397 37.6013 40.6257 38.4429 40.5843C39.2845 40.5429 41.1883 39.5772 41.6091 38.5287C42.0299 37.4733 42.0644 36.5628 41.954 36.3696C41.8436 36.1765 41.547 36.0454 41.0986 35.804V35.7833ZM32.7037 46.6201C29.6755 46.6201 26.8611 45.7096 24.502 44.1575L18.7766 45.9924L20.6391 40.4602C18.8525 38.0045 17.804 34.9831 17.804 31.7204C17.804 23.4979 24.4882 16.8137 32.7037 16.8137C40.9193 16.8137 47.6104 23.4979 47.6104 31.7204C47.6104 39.9428 40.9262 46.627 32.7037 46.627V46.6201ZM32.7037 13.813C22.8188 13.813 14.8033 21.8286 14.8033 31.7135C14.8033 35.0935 15.7415 38.2597 17.3763 40.9568L14.1411 50.5589L24.0536 47.3858C26.6197 48.8068 29.5651 49.6139 32.7037 49.6139C42.5955 49.6139 50.611 41.5984 50.611 31.7066C50.611 21.8148 42.5955 13.8062 32.7037 13.8062V13.813Z" fill="white"/>
</g>
</g>
<defs>
<filter id="filter0_d_198_841" x="-1" y="-0.5" width="72" height="72" filterUnits="userSpaceOnUse" color-interpolation-filters="sRGB">
<feFlood flood-opacity="0" result="BackgroundImageFix"/>
<feColorMatrix in="SourceAlpha" type="matrix" values="0 0 0 0 0 0 0 0 0 0 0 0 0 0 0 0 0 0 127 0" result="hardAlpha"/>
<feOffset dx="3" dy="3"/>
<feGaussianBlur stdDeviation="2"/>
<feColorMatrix type="matrix" values="0 0 0 0 0 0 0 0 0 0 0 0 0 0 0 0 0 0 0.1 0"/>
<feBlend mode="normal" in2="BackgroundImageFix" result="effect1_dropShadow_198_841"/>
<feBlend mode="normal" in="SourceGraphic" in2="effect1_dropShadow_198_841" result="shape"/>
</filter>
<clipPath id="clip0_198_841">
<rect width="64" height="64" fill="white" transform="translate(0 0.5)"/>
</clipPath>
</defs>
</svg>
