<svg width="79" height="77" viewBox="0 0 79 77" fill="none" xmlns="http://www.w3.org/2000/svg">
<path d="M53.0048 43.7131V71.2838C53.0048 73.1701 51.476 74.6973 49.5913 74.6973H6.21266C4.32799 74.6973 2.80078 73.1701 2.80078 71.2838V5.83891C2.80078 3.95409 4.32799 2.42688 6.21266 2.42688H49.5913C51.476 2.42688 53.0048 3.95409 53.0048 5.83891V28.0389" stroke="#CEB3FE" stroke-width="4" stroke-miterlimit="10" stroke-linecap="round" stroke-linejoin="round"/>
<path d="M31.0338 17.6621H15.4022C14.3961 17.6621 13.5806 16.8464 13.5806 15.8403V11.5145C13.5806 10.5084 14.3961 9.69288 15.4022 9.69288H40.4032C41.4093 9.69288 42.2248 10.5084 42.2248 11.5145V15.8403C42.2248 16.8464 41.4093 17.6621 40.4032 17.6621H36.2368" stroke="#CEB3FE" stroke-width="4" stroke-miterlimit="10" stroke-linecap="round" stroke-linejoin="round"/>
<path d="M8.90381 23.6758H46.9018" stroke="#CEB3FE" stroke-width="4" stroke-miterlimit="10" stroke-linecap="round" stroke-linejoin="round"/>
<path d="M8.90381 29.6904H46.9018" stroke="#CEB3FE" stroke-width="4" stroke-miterlimit="10" stroke-linecap="round" stroke-linejoin="round"/>
<path d="M8.90381 35.7031H37.7262" stroke="#CEB3FE" stroke-width="4" stroke-miterlimit="10" stroke-linecap="round" stroke-linejoin="round"/>
<path d="M10.8389 48.6963H21.9258" stroke="#CEB3FE" stroke-width="4" stroke-miterlimit="10" stroke-linecap="round" stroke-linejoin="round"/>
<path d="M22.5837 57.4845C23.3901 58.6779 23.8609 60.117 23.8609 61.6659C23.8609 65.7961 20.5126 69.1445 16.3823 69.1445C12.2521 69.1445 8.90381 65.7961 8.90381 61.6659C8.90381 57.5356 12.2521 54.1873 16.3823 54.1873C17.2019 54.1873 17.9909 54.319 18.7289 54.5627" stroke="#CEB3FE" stroke-width="4" stroke-miterlimit="10" stroke-linecap="round" stroke-linejoin="round"/>
<path d="M44.7198 64.5623C42.7886 66.4936 39.6575 66.4936 37.7264 64.5623C35.7952 62.631 32.6642 62.631 30.7329 64.5623" stroke="#CEB3FE" stroke-width="4" stroke-miterlimit="10" stroke-linecap="round" stroke-linejoin="round"/>
<path d="M44.2232 52.4932L39.3647 47.6346L68.4503 18.549L73.3088 23.4076L44.2232 52.4932Z" stroke="#CEB3FE" stroke-width="4" stroke-miterlimit="10" stroke-linecap="round" stroke-linejoin="round"/>
<path d="M36.3509 55.508L34.2798 57.5791" stroke="#CEB3FE" stroke-width="4" stroke-miterlimit="10" stroke-linecap="round" stroke-linejoin="round"/>
<path d="M39.365 47.6349L36.0934 54.1141C35.5588 55.1727 36.6856 56.2997 37.7442 55.765L44.2234 52.4935L39.365 47.6349Z" stroke="#CEB3FE" stroke-width="4" stroke-miterlimit="10" stroke-linecap="round" stroke-linejoin="round"/>
<path d="M73.3091 23.4072L68.4507 18.5486L70.9369 16.0622C71.6568 15.3426 72.8237 15.3426 73.5435 16.0622L75.7955 18.3144C76.5152 19.0341 76.5152 20.2012 75.7955 20.9208L73.3091 23.4072Z" stroke="#CEB3FE" stroke-width="4" stroke-miterlimit="10" stroke-linecap="round" stroke-linejoin="round"/>
<path d="M73.3086 23.4088C74.8113 24.9113 74.8113 27.3476 73.3086 28.85L64.0776 38.0811" stroke="#CEB3FE" stroke-width="4" stroke-miterlimit="10" stroke-linecap="round" stroke-linejoin="round"/>
<path d="M14.0601 61.665H18.7044" stroke="#CEB3FE" stroke-width="4" stroke-miterlimit="10" stroke-linecap="round" stroke-linejoin="round"/>
</svg>
