<svg width="71" height="67" viewBox="0 0 71 67" fill="none" xmlns="http://www.w3.org/2000/svg">
<path d="M35.4152 13.6971L43.7715 5.34086C45.3089 3.8034 47.8015 3.8034 49.339 5.34086C49.3397 5.34169 49.3407 5.34252 49.3415 5.34335C50.0796 6.08164 50.4945 7.08299 50.4945 8.12705C50.4945 9.17125 50.0796 10.1726 49.3415 10.9109C47.1198 13.1324 44.3779 15.8744 44.3779 15.8744C44.3779 15.8744 45.7417 14.5107 47.1133 13.1389C47.8517 12.4006 48.8529 11.9857 49.8973 11.9857C50.9413 11.9857 51.9428 12.4006 52.681 13.1389C52.6818 13.1396 52.6826 13.1406 52.6833 13.1413C53.4218 13.8796 53.8365 14.8809 53.8365 15.9251C53.8365 16.9692 53.4218 17.9705 52.6833 18.7088C50.8487 20.5436 48.7832 22.6091 48.7832 22.6091C48.7832 22.6091 49.5545 21.8378 50.4554 20.9369C51.1936 20.1986 52.1951 19.7838 53.2391 19.7838C54.2833 19.7838 55.2847 20.1986 56.0228 20.9369C56.0237 20.9376 56.0246 20.9385 56.0255 20.9394C56.7636 21.6775 57.1784 22.679 57.1784 23.7231C57.1784 24.7673 56.7636 25.7686 56.0255 26.5069C54.1908 28.3414 52.1252 30.407 52.1252 30.407C52.1252 30.407 52.8966 29.6358 53.7974 28.7348C54.5357 27.9967 55.5371 27.5817 56.5813 27.5817C57.6253 27.5817 58.6267 27.9967 59.365 28.7348C59.3658 28.7356 59.3666 28.7365 59.3675 28.7373C60.9048 30.2748 60.9048 32.7674 59.3675 34.3048C55.6631 38.009 49.1306 44.5416 45.2498 48.4225C43.2324 50.4397 40.4966 51.573 37.6435 51.573H33.1873L19.8192 64.9409" stroke="#CEB3FE" stroke-width="4" stroke-miterlimit="10" stroke-linecap="round" stroke-linejoin="round"/>
<path d="M12.5793 35.4221C13.3176 36.1603 14.319 36.5752 15.3632 36.5752C16.4072 36.5752 17.4086 36.1603 18.1469 35.4221C18.1477 35.4213 18.1485 35.4205 18.1494 35.4196C18.8875 34.6814 19.3024 33.68 19.3024 32.6359C19.3024 31.5917 18.8875 30.5904 18.1494 29.8521L17.0329 28.7357C16.2946 27.9974 15.2933 27.5826 14.2491 27.5826C13.205 27.5826 12.2037 27.9974 11.4654 28.7357C11.4645 28.7365 11.4637 28.7373 11.4629 28.7382C10.7247 29.4764 10.3098 30.4778 10.3098 31.5219C10.3098 32.5661 10.7247 33.5674 11.4629 34.3057C11.8319 34.6747 12.2103 35.053 12.5793 35.4221Z" stroke="#CEB3FE" stroke-width="4" stroke-miterlimit="10" stroke-linecap="round" stroke-linejoin="round"/>
<path d="M18.1493 29.8518C18.8874 30.5901 19.8889 31.0049 20.933 31.0049C21.9772 31.0049 22.9785 30.5901 23.7168 29.8518C23.7175 29.8511 23.7185 29.8502 23.7193 29.8493C24.4575 29.1112 24.8724 28.1097 24.8724 27.0656C24.8724 26.0214 24.4575 25.0201 23.7193 24.2818C22.6542 23.2168 21.4398 22.0024 20.3748 20.9374C19.6367 20.1992 18.6352 19.7842 17.5911 19.7842C16.5469 19.7842 15.5456 20.1992 14.8073 20.9374C14.8066 20.9381 14.8056 20.9391 14.8048 20.9398C14.0666 21.6781 13.6517 22.6794 13.6517 23.7236C13.6517 24.7677 14.0666 25.7692 14.8048 26.5073C15.8699 27.5725 17.0841 28.7867 18.1493 29.8518Z" stroke="#CEB3FE" stroke-width="4" stroke-miterlimit="10" stroke-linecap="round" stroke-linejoin="round"/>
<path d="M23.7195 24.282C25.257 25.8194 27.7496 25.8194 29.2869 24.282C29.2878 24.2811 29.2887 24.2803 29.2894 24.2795C30.8269 22.7422 30.8269 20.2494 29.2894 18.7119C27.5878 17.0103 25.4188 14.8412 23.717 13.1395C22.1797 11.6021 19.687 11.6021 18.1495 13.1395C18.1487 13.1402 18.1478 13.1412 18.147 13.142C16.6097 14.6794 16.6097 17.1721 18.147 18.7094C19.8488 20.4112 22.0178 22.5802 23.7195 24.282Z" stroke="#CEB3FE" stroke-width="4" stroke-miterlimit="10" stroke-linecap="round" stroke-linejoin="round"/>
<path d="M29.2893 18.7117C30.0276 19.45 31.029 19.8647 32.0732 19.8647C33.1172 19.8647 34.1186 19.45 34.8569 18.7117C34.8577 18.711 34.8586 18.71 34.8594 18.7092C35.5975 17.971 36.0124 16.9696 36.0124 15.9255C36.0124 14.8813 35.5975 13.8799 34.8594 13.1417C32.8589 11.1413 30.1734 8.45579 28.1729 6.45531C27.4348 5.71702 26.4333 5.30226 25.3892 5.30226C24.345 5.30226 23.3437 5.71702 22.6055 6.45531C22.6047 6.45615 22.6037 6.45698 22.6029 6.45781C21.8647 7.19596 21.45 8.19731 21.45 9.24151C21.45 10.2857 21.8647 11.2871 22.6029 12.0253C24.6033 14.0257 27.289 16.7113 29.2893 18.7117Z" stroke="#CEB3FE" stroke-width="4" stroke-miterlimit="10" stroke-linecap="round" stroke-linejoin="round"/>
<path d="M37.6431 51.5729L51.011 64.9409" stroke="#CEB3FE" stroke-width="4" stroke-miterlimit="10" stroke-linecap="round" stroke-linejoin="round"/>
<path d="M57.6951 35.9773L68.835 47.1172" stroke="#CEB3FE" stroke-width="4" stroke-miterlimit="10" stroke-linecap="round" stroke-linejoin="round"/>
<path d="M13.1352 35.9773L1.99524 47.1172" stroke="#CEB3FE" stroke-width="4" stroke-miterlimit="10" stroke-linecap="round" stroke-linejoin="round"/>
<path d="M28.7313 7.01367L37.6433 2.55773L42.0993 7.01367" stroke="#CEB3FE" stroke-width="4" stroke-miterlimit="10" stroke-linecap="round" stroke-linejoin="round"/>
</svg>

