<svg width="75" height="81" viewBox="0 0 75 81" fill="none" xmlns="http://www.w3.org/2000/svg">
<path d="M4.03321 12.3784C2.6471 12.6725 1.75355 14.0472 2.04764 15.4335L14.9011 76.0201C15.1952 77.4063 16.57 78.2999 17.9562 78.0058L20.9808 77.3641L7.05791 11.7367L4.03321 12.3784Z" stroke="#E8CBFE" stroke-width="4" stroke-miterlimit="10" stroke-linecap="round" stroke-linejoin="round"/>
<path d="M62.7617 26.5484L44.1211 30.503C42.9951 30.7419 42.2761 31.8484 42.5149 32.9744L50.1665 69.0414C50.4054 70.1673 51.5118 70.8865 52.6378 70.6477L71.2783 66.6931C72.4043 66.4542 73.1235 65.3477 72.8846 64.2217L65.233 28.1547C64.9941 27.0288 63.8876 26.3096 62.7617 26.5484Z" stroke="#E8CBFE" stroke-width="4" stroke-miterlimit="10" stroke-linecap="round" stroke-linejoin="round"/>
<path d="M59.4965 34.6914L62.9467 50.9547" stroke="#E8CBFE" stroke-width="4" stroke-miterlimit="10" stroke-linecap="round" stroke-linejoin="round"/>
<path d="M54.954 35.6548L58.4042 51.9181" stroke="#E8CBFE" stroke-width="4" stroke-miterlimit="10" stroke-linecap="round" stroke-linejoin="round"/>
<path d="M50.4113 36.6187L53.8615 52.882" stroke="#E8CBFE" stroke-width="4" stroke-miterlimit="10" stroke-linecap="round" stroke-linejoin="round"/>
<path d="M29.6988 17.5352C21.2284 19.3323 15.8182 27.6558 17.6152 36.1263C19.4123 44.5968 27.7358 50.0068 36.2064 48.2098C39.6268 47.4841 42.5476 45.694 44.6969 43.2603L42.5147 32.9745C42.2759 31.8485 42.9949 30.742 44.1209 30.5032L48.2898 29.6187C46.4929 21.1482 38.1693 15.7382 29.6988 17.5352Z" stroke="#E8CBFE" stroke-width="4" stroke-miterlimit="10" stroke-linecap="round" stroke-linejoin="round"/>
<path d="M36.2066 48.2098C41.0619 47.1798 43.5412 39.478 41.7441 31.0075C39.9471 22.5369 34.5543 16.5052 29.699 17.5353C24.8436 18.5654 22.3644 26.2671 24.1614 34.7377C25.9584 43.2082 31.3512 49.2399 36.2066 48.2098Z" stroke="#E8CBFE" stroke-width="4" stroke-miterlimit="10" stroke-linecap="round" stroke-linejoin="round"/>
<path d="M27.3504 58.5064C26.6106 58.6633 26.1381 59.3902 26.295 60.1299L26.9031 62.9961C27.06 63.7359 27.7869 64.2083 28.5267 64.0513L48.2216 59.8731L47.0452 54.3281L27.3504 58.5064Z" stroke="#E8CBFE" stroke-width="4" stroke-miterlimit="10" stroke-linecap="round" stroke-linejoin="round"/>
<path d="M29.8451 18.2241L36.1093 47.7514" stroke="#E8CBFE" stroke-width="4" stroke-miterlimit="10" stroke-linecap="round" stroke-linejoin="round"/>
<path d="M47.1544 29.8595L18.2125 35.9995" stroke="#E8CBFE" stroke-width="4" stroke-miterlimit="10" stroke-linecap="round" stroke-linejoin="round"/>
<path d="M57.5885 59.4564L48.5402 61.376L50.1664 69.0414C50.4052 70.1673 51.5116 70.8866 52.6376 70.6477L71.2782 66.6931C72.4042 66.4542 73.1233 65.3477 72.8845 64.2217L71.2583 56.5563L62.2099 58.4759" stroke="#E8CBFE" stroke-width="4" stroke-miterlimit="10" stroke-linecap="round" stroke-linejoin="round"/>
<path d="M50.3864 14.1251L48.5701 5.56376C48.276 4.17752 46.9012 3.28397 45.515 3.57806L4.03321 12.3784C2.6471 12.6725 1.75355 14.0472 2.04764 15.4335L14.9011 76.0201C15.1952 77.4063 16.57 78.2999 17.9562 78.0058L52.638 70.6481C51.512 70.8869 50.4056 70.1677 50.1668 69.0417L42.5151 32.9746C42.2762 31.8487 42.9954 30.7421 44.1213 30.5033L53.4416 28.526L51.367 18.7468" stroke="#E8CBFE" stroke-width="4" stroke-miterlimit="10" stroke-linecap="round" stroke-linejoin="round"/>
</svg>
