<svg width="92" height="84" viewBox="0 0 92 84" fill="none" xmlns="http://www.w3.org/2000/svg">
<path d="M46.0689 31.8409C43.7332 31.8409 41.8398 29.9475 41.8398 27.6118V24.0452C41.8398 21.7097 43.7332 19.8163 46.0689 19.8163C48.4045 19.8163 50.298 21.7097 50.298 24.0452V27.6118C50.298 29.9475 48.4045 31.8409 46.0689 31.8409Z" stroke="#CEB3FE" stroke-width="4" stroke-miterlimit="10" stroke-linecap="round" stroke-linejoin="round"/>
<path d="M47.1103 52.5213H59.1247C59.9593 52.5213 60.6358 53.1979 60.6358 54.0325V81.6573H31.5V54.0325C31.5 53.1979 32.1766 52.5213 33.0113 52.5213H40.9452" stroke="#CEB3FE" stroke-width="4" stroke-miterlimit="10" stroke-linecap="round" stroke-linejoin="round"/>
<path d="M53.124 81.6573H39.0117V67.6841C39.0117 66.9567 39.6014 66.367 40.3288 66.367H51.8069C52.5343 66.367 53.124 66.9567 53.124 67.6841V81.6573Z" stroke="#CEB3FE" stroke-width="4" stroke-miterlimit="10" stroke-linecap="round" stroke-linejoin="round"/>
<path d="M33.9961 52.5216V36.6307V20.7625C33.9961 19.4919 34.6061 18.2964 35.6338 17.5501L46.0698 9.97689L56.5057 17.5501C57.5334 18.2964 58.1434 19.4919 58.1434 20.7625V36.6307V52.5216" stroke="#CEB3FE" stroke-width="4" stroke-miterlimit="10" stroke-linecap="round" stroke-linejoin="round"/>
<path d="M58.1434 81.6573H33.9961" stroke="#CEB3FE" stroke-width="4" stroke-miterlimit="10" stroke-linecap="round" stroke-linejoin="round"/>
<path d="M46.0703 9.97665V2.65219" stroke="#CEB3FE" stroke-width="4" stroke-miterlimit="10" stroke-linecap="round" stroke-linejoin="round"/>
<path d="M31.5 81.6573H33.9941" stroke="#CEB3FE" stroke-width="4" stroke-miterlimit="10" stroke-linecap="round" stroke-linejoin="round"/>
<path d="M33.9959 52.5217V36.6308H5.68359V55.839" stroke="#CEB3FE" stroke-width="4" stroke-miterlimit="10" stroke-linecap="round" stroke-linejoin="round"/>
<path d="M5.68359 75.8977V70.1825" stroke="#CEB3FE" stroke-width="4" stroke-miterlimit="10" stroke-linecap="round" stroke-linejoin="round"/>
<path d="M14.7114 81.6573H3.55081C3.04552 81.6573 2.63672 81.2483 2.63672 80.745V76.8124C2.63672 76.3073 3.04552 75.8984 3.55081 75.8984H31.5011" stroke="#CEB3FE" stroke-width="4" stroke-miterlimit="10" stroke-linecap="round" stroke-linejoin="round"/>
<path d="M33.9979 81.6573H31.5038H20.8672" stroke="#CEB3FE" stroke-width="4" stroke-miterlimit="10" stroke-linecap="round" stroke-linejoin="round"/>
<path d="M3.55011 30.691H33.9957V36.63H3.55011C3.0457 36.63 2.63672 36.2212 2.63672 35.7166V31.6044C2.63672 31.1 3.0457 30.691 3.55011 30.691Z" stroke="#CEB3FE" stroke-width="4" stroke-miterlimit="10" stroke-linecap="round" stroke-linejoin="round"/>
<path d="M5.74829 70.1847C4.0297 70.1847 2.63672 68.7915 2.63672 67.0731V58.9483C2.63672 57.2297 4.0297 55.8367 5.74829 55.8367C7.46688 55.8367 8.85986 57.2297 8.85986 58.9483V67.0731C8.85986 68.7915 7.46688 70.1847 5.74829 70.1847Z" stroke="#CEB3FE" stroke-width="4" stroke-miterlimit="10" stroke-linecap="round" stroke-linejoin="round"/>
<path d="M20.8655 70.1847C19.1469 70.1847 17.7539 68.7915 17.7539 67.0731V58.9483C17.7539 57.2297 19.1469 55.8367 20.8655 55.8367C22.5841 55.8367 23.977 57.2297 23.977 58.9483V67.0731C23.977 68.7915 22.5841 70.1847 20.8655 70.1847Z" stroke="#CEB3FE" stroke-width="4" stroke-miterlimit="10" stroke-linecap="round" stroke-linejoin="round"/>
<path d="M20.8672 70.1843V81.6573" stroke="#CEB3FE" stroke-width="4" stroke-miterlimit="10" stroke-linecap="round" stroke-linejoin="round"/>
<path d="M27 43.3315V48.1642" stroke="#CEB3FE" stroke-width="4" stroke-miterlimit="10" stroke-linecap="round" stroke-linejoin="round"/>
<path d="M19.8398 43.3315V48.1642" stroke="#CEB3FE" stroke-width="4" stroke-miterlimit="10" stroke-linecap="round" stroke-linejoin="round"/>
<path d="M12.6758 43.3315V48.1642" stroke="#CEB3FE" stroke-width="4" stroke-miterlimit="10" stroke-linecap="round" stroke-linejoin="round"/>
<path d="M86.4568 55.839V36.6308H58.1445V52.5217" stroke="#CEB3FE" stroke-width="4" stroke-miterlimit="10" stroke-linecap="round" stroke-linejoin="round"/>
<path d="M58.1445 81.6573H60.6386H86.4568" stroke="#CEB3FE" stroke-width="4" stroke-miterlimit="10" stroke-linecap="round" stroke-linejoin="round"/>
<path d="M86.4531 75.8977V70.1825" stroke="#CEB3FE" stroke-width="4" stroke-miterlimit="10" stroke-linecap="round" stroke-linejoin="round"/>
<path d="M58.1445 81.6573H60.6386H88.5889C89.0942 81.6573 89.5032 81.2483 89.5032 80.745V76.8124C89.5032 76.3073 89.0942 75.8984 88.5889 75.8984H60.6386" stroke="#CEB3FE" stroke-width="4" stroke-miterlimit="10" stroke-linecap="round" stroke-linejoin="round"/>
<path d="M58.1406 30.691V36.63H88.5861C89.0907 36.63 89.4996 36.2212 89.4996 35.7166V31.6044C89.4996 31.1 89.0907 30.691 88.5861 30.691H64.3012" stroke="#CEB3FE" stroke-width="4" stroke-miterlimit="10" stroke-linecap="round" stroke-linejoin="round"/>
<path d="M86.3889 70.1847C88.1075 70.1847 89.5007 68.7915 89.5007 67.0731V58.9483C89.5007 57.2297 88.1075 55.8367 86.3889 55.8367C84.6705 55.8367 83.2773 57.2297 83.2773 58.9483V67.0731C83.2773 68.7915 84.6705 70.1847 86.3889 70.1847Z" stroke="#CEB3FE" stroke-width="4" stroke-miterlimit="10" stroke-linecap="round" stroke-linejoin="round"/>
<path d="M71.2717 70.1847C72.9903 70.1847 74.3835 68.7915 74.3835 67.0731V58.9483C74.3835 57.2297 72.9903 55.8367 71.2717 55.8367C69.5533 55.8367 68.1602 57.2297 68.1602 58.9483V67.0731C68.1602 68.7915 69.5533 70.1847 71.2717 70.1847Z" stroke="#CEB3FE" stroke-width="4" stroke-miterlimit="10" stroke-linecap="round" stroke-linejoin="round"/>
<path d="M71.2734 70.1843V81.6573" stroke="#CEB3FE" stroke-width="4" stroke-miterlimit="10" stroke-linecap="round" stroke-linejoin="round"/>
<path d="M80.3711 43.3315V48.1642" stroke="#CEB3FE" stroke-width="4" stroke-miterlimit="10" stroke-linecap="round" stroke-linejoin="round"/>
<path d="M73.2109 43.3315V48.1642" stroke="#CEB3FE" stroke-width="4" stroke-miterlimit="10" stroke-linecap="round" stroke-linejoin="round"/>
<path d="M66.0469 43.3315V48.1642" stroke="#CEB3FE" stroke-width="4" stroke-miterlimit="10" stroke-linecap="round" stroke-linejoin="round"/>
<path d="M43.6523 59.1436H48.4879" stroke="#CEB3FE" stroke-width="4" stroke-miterlimit="10" stroke-linecap="round" stroke-linejoin="round"/>
<path d="M39.7969 38.0775H52.3361" stroke="#CEB3FE" stroke-width="4" stroke-miterlimit="10" stroke-linecap="round" stroke-linejoin="round"/>
<path d="M39.7969 43.3311H52.3361" stroke="#CEB3FE" stroke-width="4" stroke-miterlimit="10" stroke-linecap="round" stroke-linejoin="round"/>
<path d="M46.0703 81.6573V66.367" stroke="#CEB3FE" stroke-width="4" stroke-miterlimit="10" stroke-linecap="round" stroke-linejoin="round"/>
</svg>